<?xml version="1.0" encoding="utf-8"?>
<!-- Generator: Adobe Illustrator 27.5.0, SVG Export Plug-In . SVG Version: 6.00 Build 0)  -->
<svg version="1.1" xmlns="http://www.w3.org/2000/svg" xmlns:xlink="http://www.w3.org/1999/xlink" x="0px" y="0px"
	 viewBox="0 0 500 500" style="enable-background:new 0 0 500 500;" xml:space="preserve">
<g id="Background_Simple_1_">
	<g>
		<path style="fill:#C6FF00;" d="M431.525,200.973c-6.172-37.023-33.071-55.829-65.612-67.223
			c-22.569-7.902-43.624-16.271-64.32-27.686c-22.534-12.429-41.844-29.752-64.763-41.715
			c-19.415-10.134-41.581-17.16-64.447-13.536c-18.229,2.889-35.718,12.438-50.586,24.853
			c-34.736,29.006-55.844,74.801-54.346,117.906c1.562,44.949,26.071,83.84,57.568,112.17c19.438,17.484,42.146,31.68,67.396,39.934
			c22.183,7.251,113.165,12.593,162.174-12.681C400.445,309.348,439.756,250.349,431.525,200.973z"/>
		<path style="opacity:0.6;fill:#FFFFFF;" d="M431.525,200.973c-6.172-37.023-33.071-55.829-65.612-67.223
			c-22.569-7.902-43.624-16.271-64.32-27.686c-22.534-12.429-41.844-29.752-64.763-41.715
			c-19.415-10.134-41.581-17.16-64.447-13.536c-18.229,2.889-35.718,12.438-50.586,24.853
			c-34.736,29.006-55.844,74.801-54.346,117.906c1.562,44.949,26.071,83.84,57.568,112.17c19.438,17.484,42.146,31.68,67.396,39.934
			c22.183,7.251,113.165,12.593,162.174-12.681C400.445,309.348,439.756,250.349,431.525,200.973z"/>
	</g>
</g>
<g id="Table_line_1_">
	
		<line id="Table_line_2_" style="fill:none;stroke:#263238;stroke-linecap:round;stroke-linejoin:round;stroke-miterlimit:10;" x1="127.197" y1="401.554" x2="329.768" y2="324.075"/>
</g>
<g id="Night_1_">
	<g id="Night">
		<path style="fill:#263238;" d="M134.759,171.301c-11.772,5.524-25.924,0.848-32.027-10.781
			c-6.276-11.958-1.668-26.742,10.29-33.018c3.56-1.868,7.371-2.772,11.132-2.803c-11.224,6.888-15.334,21.396-9.124,33.228
			C119.103,165.686,126.648,170.45,134.759,171.301z"/>
		<g>
			<polygon style="fill:#263238;" points="143.183,125.982 142.204,123.471 139.581,122.854 141.667,121.147 141.443,118.462 
				143.711,119.918 146.196,118.875 145.512,121.482 147.271,123.523 144.581,123.678 			"/>
			<polygon style="fill:#263238;" points="155.806,151.28 154.395,151.586 153.847,152.922 153.12,151.674 151.68,151.566 
				152.642,150.489 152.3,149.086 153.621,149.668 154.85,148.91 154.705,150.346 			"/>
			<polygon style="fill:#263238;" points="109.266,190.911 107.855,191.217 107.307,192.553 106.58,191.305 105.141,191.197 
				106.102,190.12 105.76,188.717 107.082,189.299 108.31,188.541 108.165,189.977 			"/>
			<polygon style="fill:#263238;" points="74.914,192.45 72.841,189.568 69.292,189.642 71.392,186.78 70.225,183.427 
				73.596,184.54 76.424,182.394 76.407,185.944 79.322,187.971 75.941,189.052 			"/>
		</g>
	</g>
</g>
<g id="Paper_1_">
	<g id="Paper_2_">
		<polygon style="fill:#C6FF00;" points="354.058,392.99 356.104,422.681 401.753,451.447 450.87,419.35 459.103,391.97 
			397.065,372.155 		"/>
		<polygon style="fill:#FFFFFF;stroke:#263238;stroke-linecap:round;stroke-linejoin:round;stroke-miterlimit:10;" points="
			352.568,389.985 389.644,369.179 459.265,391.282 403.854,425.422 		"/>
		<polyline style="fill:none;stroke:#263238;stroke-linecap:round;stroke-linejoin:round;stroke-miterlimit:10;" points="
			353.759,389.461 356.104,422.681 401.83,451.601 403.854,425.422 		"/>
		<polyline style="fill:none;stroke:#263238;stroke-linecap:round;stroke-linejoin:round;stroke-miterlimit:10;" points="
			401.83,451.601 450.682,419.163 459.265,391.282 		"/>
		<g>
			<path style="fill:#FFFFFF;stroke:#263238;stroke-miterlimit:10;" d="M344.379,389.07l59.795,31.265l51.72-34.13
				c0,0-60.584-18.748-61.756-19.139C392.966,366.675,344.379,389.07,344.379,389.07z"/>
			
				<line style="fill:none;stroke:#263238;stroke-linecap:round;stroke-linejoin:round;stroke-miterlimit:10;" x1="401.528" y1="413.109" x2="441.003" y2="386.923"/>
			
				<line style="fill:none;stroke:#263238;stroke-linecap:round;stroke-linejoin:round;stroke-miterlimit:10;" x1="397.424" y1="410.374" x2="436.899" y2="384.187"/>
			
				<line style="fill:none;stroke:#263238;stroke-linecap:round;stroke-linejoin:round;stroke-miterlimit:10;" x1="391.366" y1="408.615" x2="430.841" y2="382.429"/>
			
				<line style="fill:none;stroke:#263238;stroke-linecap:round;stroke-linejoin:round;stroke-miterlimit:10;" x1="386.676" y1="406.074" x2="426.151" y2="379.888"/>
		</g>
		
			<line style="fill:none;stroke:#263238;stroke-linecap:round;stroke-linejoin:round;stroke-miterlimit:10;" x1="384.485" y1="425.138" x2="377.927" y2="420.914"/>
		
			<line style="fill:none;stroke:#263238;stroke-linecap:round;stroke-linejoin:round;stroke-miterlimit:10;" x1="432.279" y1="418.913" x2="444.172" y2="411.911"/>
		
			<line style="fill:none;stroke:#263238;stroke-linecap:round;stroke-linejoin:round;stroke-miterlimit:10;" x1="425.166" y1="430.028" x2="432.724" y2="425.805"/>
	</g>
</g>
<g id="Plant_1_">
	<path id="Plant" style="fill:#263238;" d="M139.893,366.578c0.03,0.01,0.059,0.016,0.089,0.026l-8.606,5.02v-21.495l3.545-2.475
		l11.255-7.699c20.469-0.021,24.049-18.521,24.049-18.521c-25.16-1.442-25.417,15.025-25.254,18.042l-13.594,9.49V332.35
		c0.018,0.006,0.035,0.012,0.053,0.017c0,0,21.514-6.525-0.353-38.796c0,0-23.127,30.496-0.653,38.462v34.574l-9.18-6.964
		c0.159-3.424-0.374-20.807-27.728-19.694c0,0,10.536,26.396,27.159,20.458l2.6,1.973l6.979,5.295
		c0.05,0.038,0.111,0.041,0.169,0.057v12.068l-14.689-0.174l6.172,37.209l17.811-0.529l5.819-36.327l-14.16-0.168v-7.069
		l9.894-5.771c16.625,4.332,26.485-12.033,26.485-12.033C140.245,350.001,139.893,366.578,139.893,366.578z"/>
</g>
<g id="Coffee_1_">
	<g id="Coffee_2_">
		<g>
			<path style="fill:none;stroke:#263238;stroke-linecap:round;stroke-linejoin:round;stroke-miterlimit:10;" d="M224.884,414.322
				c0,3.338-8.118,6.044-18.132,6.044c-10.014,0-18.132-2.706-18.132-6.044s8.118-6.044,18.132-6.044
				C216.766,408.278,224.884,410.984,224.884,414.322z"/>
			<path style="fill:none;stroke:#263238;stroke-linecap:round;stroke-linejoin:round;stroke-miterlimit:10;" d="M188.62,414.322
				c0,0,0.671,12.312,3.581,19.923c2.91,7.611,15.524,10.213,22.385,7.163c5.09-2.262,7.666-9.156,8.968-15.421"/>
			<path style="fill:#FFFFFF;stroke:#263238;stroke-linecap:round;stroke-linejoin:round;stroke-miterlimit:10;" d="
				M217.879,435.362c0.928,2.365,4.282,2.4,6.376,2.16c4.053-0.464,6.823-3.148,7.078-7.306c0.165-2.692-0.582-5.991-2.202-8.159
				c-1.319-1.766-3.507-2.828-5.712-2.841c-1.082-0.006-2.156,0.493-2.85,1.323c-0.694,0.831-0.993,1.977-0.794,3.04
				c0.079,0.424,0.241,0.846,0.539,1.158c0.918,0.964,2.24,0.422,3.341,0.851c1.053,0.411,1.735,1.482,2.027,2.535
				c0.434,1.563,0.646,2.969-0.359,4.346c-0.698,0.956-1.934,1.208-3.05,1.063c-1.018-0.132-1.843-0.974-2.877-1.02
				c-1.019-0.045-1.734,0.848-1.707,1.84C217.697,434.736,217.764,435.07,217.879,435.362z"/>
			<ellipse style="fill:#263238;" cx="206.836" cy="415.88" rx="16.519" ry="4.214"/>
		</g>
		<g>
			<path style="fill:#263238;" d="M202.174,405.103c-0.385-1.105-0.531-2.315-0.261-3.453c0.472-1.991,2.121-3.486,3.849-4.582
				c1.729-1.095,3.637-1.942,5.153-3.316c1.517-1.374,2.603-3.489,2.036-5.455c-0.339-1.174-1.207-2.116-1.736-3.217
				c-0.91-1.895-0.69-4.329,0.688-5.917c1.377-1.587,3.89-2.127,5.72-1.092c1.83,1.035,2.642,3.622,1.591,5.442
				c-0.644,1.115-1.815,1.83-2.551,2.887c-1.028,1.478-1.037,3.592-0.022,5.079c0.76,1.113,2.033,1.909,2.416,3.201
				c0.381,1.285-0.294,2.712-1.353,3.535c-1.059,0.823-2.424,1.142-3.758,1.279c-1.326,0.136-2.685,0.118-3.956,0.521
				c-1.898,0.603-3.458,2.181-4.038,4.086c-0.58,1.905-0.165,4.084,1.075,5.643c0.755,0.949,0.062,0.41-1.118-0.269
				C204.214,408.501,202.822,406.963,202.174,405.103z"/>
			<path style="opacity:0.7;fill:#FFFFFF;" d="M202.178,405.091c-0.385-1.105-0.531-2.315-0.261-3.453
				c0.472-1.991,2.121-3.486,3.849-4.581c1.729-1.095,3.637-1.942,5.153-3.316c1.516-1.374,2.603-3.488,2.036-5.455
				c-0.339-1.174-1.207-2.116-1.736-3.217c-0.91-1.895-0.69-4.329,0.688-5.917c1.377-1.588,3.89-2.127,5.72-1.092
				c1.83,1.035,2.642,3.622,1.591,5.442c-0.644,1.115-1.815,1.83-2.551,2.887c-1.028,1.478-1.037,3.592-0.022,5.079
				c0.76,1.113,2.033,1.909,2.416,3.201c0.381,1.286-0.294,2.712-1.353,3.535s-2.424,1.142-3.758,1.279
				c-1.326,0.136-2.685,0.118-3.956,0.521c-1.898,0.603-3.458,2.181-4.038,4.086c-0.58,1.905-0.165,4.085,1.075,5.643
				c0.755,0.949,0.062,0.41-1.118-0.269C204.218,408.49,202.826,406.951,202.178,405.091z"/>
		</g>
	</g>
</g>
<g id="Window_1_">
	<g id="Window">
		
			<line style="fill:none;stroke:#263238;stroke-width:1.0496;stroke-linecap:round;stroke-linejoin:round;" x1="310.768" y1="310.859" x2="310.768" y2="128.503"/>
		
			<line style="fill:none;stroke:#263238;stroke-width:1.0496;stroke-linecap:round;stroke-linejoin:round;" x1="170.171" y1="290.858" x2="170.171" y2="109.637"/>
		
			<line style="fill:none;stroke:#263238;stroke-width:1.0206;stroke-linecap:round;stroke-linejoin:round;" x1="64.71" y1="211.091" x2="376.111" y2="211.091"/>
		
			<line style="fill:none;stroke:#263238;stroke-width:0.5248;stroke-linecap:round;stroke-linejoin:round;" x1="207.926" y1="174.08" x2="203.7" y2="176.945"/>
		
			<line style="fill:none;stroke:#263238;stroke-width:1.0496;stroke-linecap:round;stroke-linejoin:round;" x1="126.507" y1="227.964" x2="60.853" y2="272.538"/>
		
			<line style="fill:none;stroke:#263238;stroke-width:1.0496;stroke-linecap:round;stroke-linejoin:round;" x1="119.404" y1="221.73" x2="103.511" y2="232.511"/>
	</g>
</g>
<g id="Clock_1_">
	<g id="Clock_2_">
		
			<ellipse transform="matrix(0.2684 -0.9633 0.9633 0.2684 147.3261 460.9676)" style="fill:#263238;" cx="377.155" cy="133.487" rx="34.745" ry="34.745"/>
		
			<ellipse transform="matrix(0.9265 -0.3763 0.3763 0.9265 -22.5089 151.7491)" style="fill:#FFFFFF;" cx="377.155" cy="133.487" rx="27.554" ry="27.554"/>
		<path style="fill:#263238;" d="M379.477,133.487c0,1.282-1.039,2.322-2.322,2.322c-1.282,0-2.322-1.04-2.322-2.322
			c0-1.282,1.039-2.322,2.322-2.322C378.438,131.165,379.477,132.205,379.477,133.487z"/>
		
			<line style="fill:none;stroke:#263238;stroke-width:1.1365;stroke-linecap:round;stroke-linejoin:round;stroke-miterlimit:10;" x1="377.497" y1="134.17" x2="377.497" y2="111.517"/>
		
			<line style="fill:none;stroke:#263238;stroke-width:1.1365;stroke-linecap:round;stroke-linejoin:round;stroke-miterlimit:10;" x1="377.146" y1="133.137" x2="371.894" y2="115.559"/>
	</g>
</g>
<g id="Character_1_">
	<g id="Character">
		<g>
			<path style="fill:#263238;" d="M190.285,377.686l-31.412-123.643c-1.365-5.374,1.286-10.978,6.329-13.283
				c27.855-12.729,74.994-26.379,111.895-25.823c5.935,0.09,10.824,4.687,11.293,10.604l8.103,102.201
				c0.4,5.041-2.537,9.752-7.239,11.613L190.285,377.686z"/>
			<path style="opacity:0.5;" d="M190.285,377.686l-31.412-123.643c-1.365-5.374,1.286-10.978,6.329-13.283
				c27.855-12.729,74.994-26.379,111.895-25.823c5.935,0.09,10.824,4.687,11.293,10.604l8.103,102.201
				c0.4,5.041-2.537,9.752-7.239,11.613L190.285,377.686z"/>
		</g>
		<g>
			<g>
				<path style="fill:#263238;" d="M270.044,416.641l56.319-23.873c2.164-0.917,2.495-3.847,0.59-5.224l-22.188-16.034
					c-0.822-0.594-1.888-0.735-2.836-0.376l-57.57,21.807c-2.207,0.836-2.643,3.768-0.775,5.21l23.438,18.1
					C267.885,416.918,269.04,417.067,270.044,416.641z"/>
				<path style="fill:#FFFFFF;" d="M295.381,377.953c0,0,17.99,2.578,20.096,12.41c2.107,9.831-37.921,10.182-41.432,2.809
					C270.534,385.798,289.412,377.953,295.381,377.953z"/>
			</g>
			<g>
				<g>
					<path style="fill:#FFFFFF;" d="M309.411,386.957c0,0-2.897-13.789-11.124-16.222c-8.227-2.433-27.345,0.348-27.345,0.348
						l-39.807-23.387l-25.553,17.608l11.337,4.599l-0.088,0.138c0,0,1.856,0.708,4.865,1.8l6.647,2.697l0.296-0.236
						c10.372,3.587,25.116,8.279,33.75,9.227c0,0,5.308,5.515,10.754,6.558c0,0,3.476,0.811,5.446,0.232
						c1.97-0.579,4.171-1.043,6.952,0.116c2.781,1.159,12.151,5.533,14.418,4.33c2.267-1.202-1.209-5.142-7.582-8.733
						c0,0,12.746,3.824,15.411,3.824c2.665,0,3.708-0.464,3.592-1.043L309.411,386.957z"/>
					<g>
						<g>
							<path style="fill:#C6FF00;" d="M223.207,359.164l40.458,20.903c2.597,3.044,5.861,5.703,9.779,6.516
								c2.074,0.43,4.22,0.126,6.338,0.088c6.928-0.124,13.858,2.783,18.624,7.814c0,0-1.475,0.417-4.172-0.706
								c-2.697-1.124-9.708-6.023-15.643-3.461c-5.935,2.562-16.199-6.79-16.199-6.79s-41.656-8.63-55.142-17.62L223.207,359.164z"
								/>
							<path style="opacity:0.5;fill:#FFFFFF;" d="M223.207,359.164l40.458,20.903c2.597,3.044,5.861,5.703,9.779,6.516
								c2.074,0.43,4.22,0.126,6.338,0.088c6.928-0.124,13.858,2.783,18.624,7.814c0,0-1.475,0.417-4.172-0.706
								c-2.697-1.124-9.708-6.023-15.643-3.461c-5.935,2.562-16.199-6.79-16.199-6.79s-41.656-8.63-55.142-17.62L223.207,359.164z"
								/>
						</g>
						<g>
							<path style="fill:none;stroke:#263238;stroke-linecap:round;stroke-linejoin:round;stroke-miterlimit:10;" d="
								M289.308,384.367c0,0,18.869,7.011,21.327,5.256c2.458-1.756-7.866-7.5-19.102-11.362"/>
							<path style="fill:none;stroke:#263238;stroke-linecap:round;stroke-linejoin:round;stroke-miterlimit:10;" d="
								M297.049,374.705c3.741,1.346,7.622,3.572,10.245,6.757"/>
							<path style="fill:none;stroke:#263238;stroke-linecap:round;stroke-linejoin:round;stroke-miterlimit:10;" d="
								M309.042,386.554c0,0-2.708-11.254-8.678-15.117c-5.969-3.862-29.829-0.257-29.829-0.257l-43.256-25.924"/>
							<path style="fill:none;stroke:#263238;stroke-linecap:round;stroke-linejoin:round;stroke-miterlimit:10;" d="
								M206.363,365.983c4.313,1.744,9.796,3.843,16.702,6.309c24.578,8.778,39.325,11.236,39.325,11.236s8.663,9.099,17.205,6.32
								c5.764-1.875,16.503,6.671,20.365,4.916c3.862-1.756-5.785-8.473-17.723-13.739"/>
						</g>
					</g>
				</g>
				<g>
					<path style="fill:#C6FF00;" d="M327.798,324.492l25.569-29.266c0,0-6.885-12.828-15.454-27.128
						c-8.532-14.239-18.739-29.938-23.072-35.842c-12.058-5.889,4.954,66.6,4.954,66.6L327.798,324.492z"/>
					<path style="fill:none;stroke:#263238;stroke-linecap:round;stroke-linejoin:round;stroke-miterlimit:10;" d="M353.903,296.557
						c-10.918-23.718-39.068-64.662-39.068-64.662"/>
					<g>
						<path style="fill:#C6FF00;" d="M224.531,315.155l22.127,41.337l70.641-27.471l2.732-32.825
							c4.013-27.792-5.199-64.368-5.199-64.368l-46.037-9.888c0,0-66.015,22.607-66.979,26.893
							C200.852,253.118,224.531,315.155,224.531,315.155z"/>
						<path style="fill:none;stroke:#263238;stroke-miterlimit:10;" d="M224.531,315.155l22.127,41.337l70.641-27.471l2.732-32.825
							c4.013-27.792-5.199-64.368-5.199-64.368l-46.037-9.888c0,0-66.015,22.607-66.979,26.893
							C200.852,253.118,224.531,315.155,224.531,315.155z"/>
						<path style="opacity:0.2;" d="M210.727,260.93c1.696,3.602,10.043,22.291,13.015,26.996c3.963-33.931,2.61-37.661,5.662-39.44
							c4.732-2.757,9.464-5.515,14.196-8.272l-7.422-4.532l-0.341-1.539c0,0-29.154,11.072-33.889,14.828
							C201.947,248.972,205.463,249.753,210.727,260.93z"/>
					</g>
					<path style="opacity:0.2;" d="M352.293,295.304c3.088-1.807-7.085,1.24-10.264,2.882c-2.594,1.34-5.386,3.174-8.189,2.356
						c-2.9-0.847-4.267-4.114-5.018-7.04c-2.308-8.991-2.468-18.404-4.44-27.474c-1.401-6.441-3.701-12.649-6.09-18.793
						c0,0,4.464,27.955,1.573,49.956l7.104,24.824C326.97,322.015,326.424,310.44,352.293,295.304z"/>
				</g>
				<g>
					<path style="fill:#C6FF00;" d="M189.693,347.741c0,0,21.342,4.886,41.655-10.028c0,0-0.529-31.852-3.616-39.926
						c-3.964-10.368-21.928-50.872-25.785-48.815c-2.724,1.453-8.353,45.364-10.973,74.393
						C189.884,335.444,189.315,344.946,189.693,347.741z"/>
					<path style="fill:none;stroke:#263238;stroke-miterlimit:10;" d="M189.693,347.741c0,0,21.342,4.886,41.655-10.028
						c0,0-0.529-31.852-3.616-39.926c-3.964-10.368-21.928-50.872-25.785-48.815c-2.724,1.453-8.353,45.364-10.973,74.393
						C189.884,335.444,189.315,344.946,189.693,347.741z"/>
					<g>
						<path style="fill:none;stroke:#263238;stroke-linecap:round;stroke-linejoin:round;stroke-miterlimit:10;" d="
							M231.737,289.595c2.925,8.508,3.528,17.801,1.726,26.615"/>
						<path style="fill:none;stroke:#263238;stroke-linecap:round;stroke-linejoin:round;stroke-miterlimit:10;" d="
							M208.769,323.215c6.46-0.749,13.191,1.203,18.249,5.29"/>
						<path style="fill:none;stroke:#263238;stroke-linecap:round;stroke-linejoin:round;stroke-miterlimit:10;" d="
							M216.813,318.393c5.884,2.751,10.908,7.308,14.219,12.896"/>
					</g>
					<path style="opacity:0.2;" d="M207.993,255.423c4.878,9.212,2.486,20.7,3.729,31.05c0.67,5.577,1.388,11.31,4.09,16.235
						c1.967,3.586,4.886,6.548,7.205,9.918c2.768,4.021,4.672,8.634,5.545,13.437c-6.213-6.263-12.99-12.834-21.665-14.438
						c4.124,2.094,9.854,6.915,8.387,8.434c-2.886,2.723-6.434-3.567-9.403-1.793c-1.266,0.756-1.917,2.213-2.386,3.611
						c-1.344,4.004-1.819,8.298-1.383,12.499l-13.242,6.109c0,0,8.051-84.571,13.078-91.511
						C201.947,248.972,205.615,250.933,207.993,255.423z"/>
				</g>
				<path style="fill:none;stroke:#263238;stroke-linecap:round;stroke-linejoin:round;stroke-miterlimit:10;" d="M316.462,265.949
					c1.827,8.406,3.191,16.913,4.083,25.469"/>
				<g>
					<g>
						<path style="fill:#FFFFFF;" d="M206.868,366.732c0,0,26.223-10.825,29.032-15.038c2.809-4.213-3.629-18.891-6.789-21.349
							c-3.16-2.458-43.076,5.146-42.022,13.221c1.053,8.076,4.097,7.21,2.895,13.991
							C189.184,362.064,194.546,371.953,206.868,366.732z"/>
						<g>
							<path style="fill:#C6FF00;" d="M223.461,358.652c3.688-2.854-9.183,1.814-13.838,1.543c-1.523-0.089-3.224-0.361-4.128-1.59
								c-0.717-0.974-0.718-2.343-0.259-3.462c0.459-1.119,1.316-2.027,2.224-2.825c2.515-2.208,5.544-3.761,8.668-4.964
								c1.38-0.531,3.648-1.003,2.98-2.861c-1.321-1.994-4.974,0.041-7.309,1.054c-2.335,1.013-5.242,1.839-7.252,0.279
								c-1.648-1.279-1.938-3.783-1.141-5.712c0.796-1.929,2.444-3.372,4.16-4.559c0.605-0.418,1.254-0.846,1.575-1.507
								c0.321-0.662,0.137-1.629-0.558-1.87c0,0-18.978,5.192-20.374,10.079c-1.396,4.887,2.269,11.344,2.269,11.344
								s-2.24,8.068,3.519,12.431C199.757,370.397,214.907,365.273,223.461,358.652z"/>
							<path style="opacity:0.7;fill:#FFFFFF;" d="M223.461,358.652c3.688-2.854-9.183,1.814-13.838,1.543
								c-1.523-0.089-3.224-0.361-4.128-1.59c-0.717-0.974-0.718-2.343-0.259-3.462c0.459-1.119,1.316-2.027,2.224-2.825
								c2.515-2.208,5.544-3.761,8.668-4.964c1.38-0.531,3.648-1.003,2.98-2.861c-1.321-1.994-4.974,0.041-7.309,1.054
								c-2.335,1.013-5.242,1.839-7.252,0.279c-1.648-1.279-1.938-3.783-1.141-5.712c0.796-1.929,2.444-3.372,4.16-4.559
								c0.605-0.418,1.254-0.846,1.575-1.507c0.321-0.662,0.137-1.629-0.558-1.87c0,0-18.978,5.192-20.374,10.079
								c-1.396,4.887,2.269,11.344,2.269,11.344s-1.919,8.068,3.84,12.431C200.078,370.397,214.907,365.273,223.461,358.652z"/>
						</g>
					</g>
					<path style="fill:none;stroke:#263238;stroke-miterlimit:10;" d="M207.253,366.732c0,0,26.223-10.825,29.032-15.038
						c2.809-4.213-3.629-18.891-6.789-21.349c-3.16-2.458-43.076,5.146-42.022,13.221c1.053,8.076,4.097,7.21,2.895,13.991
						C189.569,362.064,194.93,371.953,207.253,366.732z"/>
				</g>
				<g>
					<path style="fill:#FFFFFF;" d="M330.999,330.646c-0.25-0.202-0.491-0.416-0.722-0.642c-6.654-6.497-2.441-14.682,2.963-20.359
						c4.992-5.243,13.922-13.226,21.442-14.126c3.385-0.405,4.896,1.473,6.866,3.848c1.133,1.365,2.531,2.497,3.622,3.896
						c3.368,4.32,3.259,11.086-0.444,15.186c-3.114,3.447-7.404,4.725-11.53,6.472c-4.98,2.109-9.656,5.599-14.732,7.327
						C335.839,333.142,333.109,332.349,330.999,330.646z"/>
					<g>
						<path style="fill:#C6FF00;" d="M352.396,324.39c3.973-3.09,8.024-6.189,10.728-10.433c1.024-1.607,1.93-3.392,1.932-5.298
							c0.002-1.906-1.154-3.927-3.012-4.352c-1.508-0.345-3.03,0.393-4.402,1.108c-1.395,0.727-2.79,1.455-4.185,2.182
							c-0.508,0.265-1.075,0.538-1.63,0.398c-0.796-0.2-1.156-1.136-1.205-1.956c-0.136-2.292,1.148-4.4,2.384-6.335
							c0.763-1.193,1.525-2.387,2.287-3.58c-0.288-0.28-0.781-0.316-1.106-0.08c0,0-11.803,2.241-19.776,12.64
							c-7.973,10.399-8.666,14.039-6.066,18.892C330.944,332.429,335.592,337.457,352.396,324.39z"/>
						<path style="opacity:0.7;fill:#FFFFFF;" d="M352.396,324.39c3.99-3.068,8.024-6.189,10.728-10.433
							c1.024-1.607,1.93-3.392,1.932-5.298c0.002-1.906-1.154-3.927-3.012-4.352c-1.508-0.345-3.03,0.393-4.402,1.108
							c-1.395,0.727-2.79,1.455-4.185,2.182c-0.508,0.265-1.075,0.538-1.63,0.398c-0.796-0.2-1.156-1.136-1.205-1.956
							c-0.136-2.292,1.148-4.4,2.384-6.335c0.763-1.193,1.525-2.387,2.287-3.58c-0.288-0.28-0.781-0.316-1.106-0.08
							c0,0-11.803,2.241-19.776,12.64c-7.973,10.399-8.666,14.039-6.066,18.892C330.944,332.429,335.793,337.155,352.396,324.39z"/>
					</g>
					<path style="fill:none;stroke:#263238;stroke-miterlimit:10;" d="M330.999,330.646c-0.25-0.202-0.491-0.416-0.722-0.642
						c-6.654-6.497-2.441-14.682,2.963-20.359c4.992-5.243,13.922-13.226,21.442-14.126c3.385-0.405,4.896,1.473,6.866,3.848
						c1.133,1.365,2.531,2.497,3.622,3.896c3.368,4.32,3.259,11.086-0.444,15.186c-3.114,3.447-7.404,4.725-11.53,6.472
						c-4.98,2.109-9.656,5.599-14.732,7.327C335.839,333.142,333.109,332.349,330.999,330.646z"/>
				</g>
				<g>
					<path style="fill:none;stroke:#263238;stroke-linecap:round;stroke-linejoin:round;stroke-miterlimit:10;" d="M231.174,144.186
						c-0.655-4.842,1.081-9.837,4.155-13.635c3.073-3.798,7.387-6.465,11.983-8.123"/>
					<g>
						<path style="fill:#FFFFFF;" d="M276.692,210.09c-0.632,7.494-0.876,25.14-0.428,32.647l-28.234-13.173
							c0.995-6.792,1.373-19.132-0.322-25.785L276.692,210.09"/>
						<path style="fill:none;stroke:#263238;stroke-miterlimit:10;" d="M276.692,210.09c-0.632,7.494-0.876,25.14-0.428,32.647
							l-28.234-13.173c0.995-6.792,1.373-19.132-0.322-25.785L276.692,210.09"/>
						<path style="fill:#263238;" d="M249.02,208.092c0,0,8.356,15.522,17.145,15.806c8.576,0.277,10.5-12.511,10.5-12.511
							s-3.564,6.762-7.431,6.619C265.366,217.862,249.02,208.092,249.02,208.092z"/>
					</g>
					<path style="fill:#FFFFFF;" d="M285.602,144.217c0,0-36.525-7.815-46.853,1.734c-10.328,9.549-7.786,20.185-7.786,20.185
						s0.354,1.17,0.936,3.07c-0.26,0.002-0.522,0.025-0.783,0.086c-2.746,0.643-5.534,3.998-4.612,8.791
						c0.922,4.793,6.779,15.303,11.093,14.189c0.551-0.142,1.005-0.346,1.409-0.577c1.439,4.339,2.701,7.924,3.394,9.385
						c2.751,5.802,23.678,17.87,28.591,16.201c4.961-1.685,17.79-26.685,18.425-32.72
						C290.05,178.526,285.602,144.217,285.602,144.217z"/>
					<g>
						<path style="fill:#C6FF00;" d="M286.043,149.569c-4.426,4.687-11.734,5.272-18.076,4.114
							c-6.342-1.158-12.419-3.729-18.846-4.238c-1.764-0.14-3.611-0.106-5.201,0.671c-2.638,1.288-3.984,4.397-4.021,7.333
							c-0.036,2.935,0.998,5.765,2.014,8.519c1.015,2.755,2.039,5.59,1.98,8.525c-0.027,1.351-0.285,2.689-0.336,4.04
							c-0.204,5.403,1.059,11.505,2.881,16.573c4.297,11.951,15.333,16.776,26.399,21.014c0,0-4.031,3.304-11.898-0.898
							c-2.764-1.476-13.232-8.524-13.232-8.524s-4.845-2.691-6.818-8.971c-1.974-6.28-1.974-6.28-1.974-6.28
							s-3.05,2.153-5.921-1.077c-2.871-3.23-7.177-9.151-6.818-13.816c0.359-4.665,1.192-6.672,5.557-6.97
							c4.365-0.298,5.926,3.381,5.926,3.381l-3.409-20.275c0,0,10.227-9.689,17.584-8.254c7.356,1.435,24.043,4.127,28.17,3.05
							s5.742-1.794,5.742-1.794L286.043,149.569z"/>
						<path style="opacity:0.5;fill:#FFFFFF;" d="M286.043,149.569c-4.426,4.687-11.734,5.272-18.076,4.114
							c-6.342-1.158-12.419-3.729-18.846-4.238c-1.764-0.14-3.611-0.106-5.201,0.671c-2.638,1.288-3.984,4.397-4.021,7.333
							c-0.036,2.935,0.998,5.765,2.014,8.519c1.015,2.755,2.039,5.59,1.98,8.525c-0.027,1.351-0.285,2.689-0.336,4.04
							c-0.204,5.403,1.059,11.505,2.881,16.573c4.297,11.951,15.32,16.756,26.387,20.994c0,0-4.108,3.235-10.366-0.252
							c-2.737-1.525-14.752-9.15-14.752-9.15s-4.845-2.691-6.818-8.971c-1.974-6.28-1.974-6.28-1.974-6.28s-3.05,2.153-5.921-1.077
							c-2.871-3.23-7.177-9.151-6.818-13.816c0.359-4.665,0.763-6.171,5.128-6.468c4.365-0.298,6.356,2.88,6.356,2.88l-3.409-20.275
							c0,0,10.227-9.689,17.584-8.254c7.356,1.435,24.043,4.127,28.17,3.05s5.742-1.794,5.742-1.794L286.043,149.569z"/>
					</g>
					<g>
						<path style="fill:#263238;" d="M265.689,177.01c0.001,1.754-0.639,3.177-1.432,3.178c-0.792,0.001-1.436-1.421-1.438-3.176
							c-0.002-1.755,0.639-3.178,1.432-3.178C265.043,173.834,265.687,175.256,265.689,177.01z"/>
						<path style="fill:#263238;" d="M281.553,176.188c0.001,1.755-0.64,3.177-1.432,3.178c-0.793,0.001-1.436-1.421-1.438-3.175
							c-0.001-1.755,0.639-3.178,1.432-3.178C280.908,173.011,281.551,174.433,281.553,176.188z"/>
						<path style="fill:none;stroke:#263238;stroke-linecap:round;stroke-linejoin:round;stroke-miterlimit:10;" d="
							M276.745,198.713c-2.459-0.303-4.976-0.137-7.374,0.488"/>
						
							<path style="fill:none;stroke:#263238;stroke-width:0.5;stroke-linecap:round;stroke-linejoin:round;stroke-miterlimit:10;" d="
							M259.515,182.513c1.272,2.057,4.204,2.056,5.945,0.635c0.818-0.668,1.277-1.535,1.853-2.393"/>
						
							<path style="fill:none;stroke:#263238;stroke-width:0.5;stroke-linecap:round;stroke-linejoin:round;stroke-miterlimit:10;" d="
							M277.277,180.874c0.848,1.338,2.349,2.24,3.929,2.36c0.961,0.073,1.936-0.143,2.788-0.592"/>
						<path style="fill:none;stroke:#263238;stroke-width:2;stroke-linecap:round;stroke-linejoin:round;stroke-miterlimit:10;" d="
							M258.563,170.896c3.297-0.67,6.419-2.18,8.991-4.347"/>
						<path style="fill:none;stroke:#263238;stroke-width:2;stroke-linecap:round;stroke-linejoin:round;stroke-miterlimit:10;" d="
							M278.301,163.226c1.316,1.59,2.978,2.892,4.836,3.79"/>
						<path style="fill:none;stroke:#263238;stroke-linecap:round;stroke-linejoin:round;stroke-miterlimit:10;" d="
							M272.799,174.575c0.292,2.067,0.584,4.135,0.876,6.202c0.126,0.892,0.257,1.8,0.647,2.612
							c0.703,1.463,2.273,2.467,3.896,2.491c0.483,0.007,1.003-0.056,1.413,0.197c0.404,0.25,0.589,0.758,0.57,1.233
							c-0.032,0.808-0.552,1.508-1.098,2.104c-1.013,1.106-2.197,2.057-3.495,2.808"/>
					</g>
					<g>
						<g>
							<path style="fill:none;stroke:#263238;stroke-linecap:round;stroke-linejoin:round;stroke-miterlimit:10;" d="
								M231.139,175.591c3.283,2.674,4.991,7.154,4.324,11.335"/>
							<path style="fill:none;stroke:#263238;stroke-linecap:round;stroke-linejoin:round;stroke-miterlimit:10;" d="
								M230.55,180.818c0.18-0.468,0.647-0.781,1.136-0.893c0.489-0.112,1-0.053,1.493,0.037c0.35,0.064,0.705,0.145,1.012,0.325
								s0.766,0.725,0.82,1.077"/>
						</g>
						<path style="fill:none;stroke:#263238;stroke-linecap:round;stroke-linejoin:round;stroke-miterlimit:10;" d="
							M240.483,184.838c0,0,2.173,6.242-3.221,7.633c-4.317,1.115-10.177-9.396-11.101-14.189c-0.562-2.954,0.276-5.365,1.648-6.928
							c0.858-0.972,1.915-1.61,2.973-1.858c3.192-0.753,6.365,3.116,8.376,6.289c1.305,2.077,2.019,2.928,2.019,2.928"/>
					</g>
					<path style="fill:none;stroke:#263238;stroke-miterlimit:10;" d="M238.665,191.894c1.44,4.342,2.702,7.926,3.396,9.389
						c2.751,5.802,23.678,17.87,28.591,16.201c4.961-1.685,17.79-26.685,18.425-32.721c0.635-6.036-3.812-40.344-3.812-40.344
						s-36.525-7.815-46.853,1.734c-10.329,9.549-7.786,20.185-7.786,20.185"/>
					<g>
						<path style="fill:none;stroke:#263238;stroke-linecap:round;stroke-linejoin:round;stroke-miterlimit:10;" d="
							M294.062,127.735c0,0,5.639,11.749-1.566,19.737c-7.206,7.989-23.654,1.41-23.654,1.41"/>
						<path style="fill:#263238;" d="M287.213,122.395c-2.287,0.924,1.62,4.926-3.24,6.156c-4.86,1.239-43.443-16.685-53.153,14.522
							c0,0-17.295,12.273-3.011,28.282c0.858-0.972,1.915-1.61,2.973-1.858c3.099-0.731,6.178,2.893,8.194,6.009
							c0.9,2.605,2.312,4.931,4.467,4.147c3.919-1.427,2.595-6.329,0.975-9.923c-0.512-1.136-1.054-2.141-1.47-2.865
							c-2.453-4.273-6.101-8.981-4.437-14.184c3.318-6.229,13.412-7.209,23.012-4.759c15.875,4.05,34.457-1.753,34.171-13.188
							C295.408,123.3,289.49,121.461,287.213,122.395z"/>
						<path style="opacity:0.5;" d="M294.491,127.53c-0.024-0.05-0.059-0.089-0.095-0.127c-1.939-4.894-5.525-5.688-7.183-5.008
							c-2.287,0.924,1.62,4.926-3.24,6.156c-4.744,1.209-41.621-15.834-52.406,12.386c0.263-3.52,1.69-7.069,4.132-10.086
							c2.786-3.442,6.857-6.2,11.774-7.974c0.248-0.089,0.376-0.362,0.286-0.61c-0.089-0.247-0.361-0.376-0.61-0.286
							c-5.08,1.833-9.296,4.693-12.191,8.271c-2.928,3.618-4.482,7.975-4.396,12.193c-3.033,0.663-5.901,2.08-8.239,4.127
							c-2.907,2.544-4.979,6.02-5.834,9.786c-0.058,0.257,0.103,0.512,0.359,0.57c0.036,0.008,0.071,0.012,0.106,0.012
							c0.217,0,0.414-0.15,0.464-0.371c0.811-3.572,2.775-6.868,5.532-9.28c2.099-1.837,4.645-3.146,7.35-3.815
							c-2.761,2.216-15.281,13.547-2.491,27.881c0.858-0.972,1.915-1.61,2.973-1.858c3.099-0.731,6.178,2.893,8.194,6.009
							c0.9,2.605,2.312,4.931,4.467,4.147c3.919-1.427,2.595-6.329,0.975-9.923c-0.512-1.136-1.054-2.141-1.47-2.865
							c-2.453-4.273-6.101-8.981-4.437-14.184c3.318-6.229,13.412-7.209,23.012-4.759c2.259,0.576,4.572,0.946,6.878,1.136
							c0.047,0.117,0.137,0.216,0.264,0.267c0.419,0.167,6.633,2.606,13.075,2.606c4.084,0,8.26-0.98,11.109-4.139
							C300.184,139.66,294.549,127.65,294.491,127.53z M292.142,147.154c-5.351,5.933-16.21,3.477-20.891,2.045
							c12.21,0.196,23.471-4.789,24.377-13.118C295.852,139.639,295.198,143.765,292.142,147.154z"/>
						
							<path style="fill:none;stroke:#FFFFFF;stroke-width:0.5;stroke-linecap:round;stroke-linejoin:round;stroke-miterlimit:10;" d="
							M236.394,149.442c2.549-4.798,8.276-7.164,13.705-7.373c5.429-0.209,10.747,1.341,16.052,2.515
							c5.305,1.174,10.931,1.966,16.099,0.289c5.168-1.677,9.678-6.489,9.339-11.912"/>
						
							<path style="fill:none;stroke:#FFFFFF;stroke-width:0.5;stroke-linecap:round;stroke-linejoin:round;stroke-miterlimit:10;" d="
							M235.352,146c0.906-3.584,3.746-6.363,6.796-8.452c4.651-3.185,10.081-5.221,15.679-5.879"/>
					</g>
				</g>
				<g>
					<g>
						<path style="fill:#263238;" d="M265.256,240.174c0.409-0.409,11.592-2.455,11.592-2.455s-1.909,13.228-0.954,18.001
							l-4.637,0.818c0,0-4.5-8.319-8.046-10.91C259.664,243.038,265.256,240.174,265.256,240.174z"/>
						<polygon style="fill:#263238;" points="271.896,254.34 271.971,310.493 284.629,320.061 290.013,306.518 274.445,253.117 
													"/>
					</g>
					<g>
						<g>
							<path style="fill:#FFFFFF;" d="M271.492,230.98l6.184-8.253c0.381-0.508,1.123-0.561,1.572-0.112l7.907,7.907
								c0.33,0.33,0.401,0.84,0.172,1.248l-9.495,16.937c-0.456,0.813-1.667,0.666-1.915-0.232l-4.596-16.59
								C271.235,231.573,271.298,231.239,271.492,230.98z"/>
							<path style="fill:none;stroke:#263238;stroke-linecap:round;stroke-linejoin:round;stroke-miterlimit:10;" d="
								M271.492,230.98l6.184-8.253c0.381-0.508,1.123-0.561,1.572-0.112l7.907,7.907c0.33,0.33,0.401,0.84,0.172,1.248
								l-9.495,16.937c-0.456,0.813-1.667,0.666-1.915-0.232l-4.596-16.59C271.235,231.573,271.298,231.239,271.492,230.98z"/>
						</g>
						<g>
							<path style="fill:#FFFFFF;" d="M246.215,221.459l24.038,9.561c0.521,0.207,0.785,0.788,0.598,1.317l-6.158,17.428
								c-0.214,0.604-0.917,0.875-1.481,0.57l-27.034-14.652c-0.558-0.302-0.719-1.029-0.341-1.539l9.154-12.337
								C245.273,221.427,245.775,221.284,246.215,221.459z"/>
							<path style="fill:none;stroke:#263238;stroke-linecap:round;stroke-linejoin:round;stroke-miterlimit:10;" d="
								M246.215,221.459l24.038,9.561c0.521,0.207,0.785,0.788,0.598,1.317l-6.158,17.428c-0.214,0.604-0.917,0.875-1.481,0.57
								l-27.034-14.652c-0.558-0.302-0.719-1.029-0.341-1.539l9.154-12.337C245.273,221.427,245.775,221.284,246.215,221.459z"/>
						</g>
					</g>
				</g>
				<line style="fill:none;stroke:#263238;stroke-miterlimit:10;" x1="326.797" y1="322.266" x2="319.701" y2="298.659"/>
			</g>
			<g>
				<path style="fill:#FFFFFF;stroke:#263238;stroke-miterlimit:10;" d="M341.391,330.366l-48.957,20.584
					c-2.195,0.923-2.479,3.919-0.496,5.237l37.831,25.149l24.609-24.567L341.391,330.366z"/>
				<path style="fill:#263238;" d="M320.985,352.035l-5.899,2.31l3.164,2.225l5.899-2.31L320.985,352.035z M320.985,352.035
					l-5.899,2.31l3.164,2.225l5.899-2.31L320.985,352.035z M320.985,352.035l-5.899,2.31l3.164,2.225l5.899-2.31L320.985,352.035z
					 M324.993,354.859l-5.9,2.301l3.43,2.418l5.908-2.311L324.993,354.859z M324.993,354.859l-5.9,2.301l3.43,2.418l5.908-2.311
					L324.993,354.859z M324.993,354.859l-5.9,2.301l3.43,2.418l5.908-2.311L324.993,354.859z M324.993,354.859l-5.9,2.301
					l3.43,2.418l5.908-2.311L324.993,354.859z M324.993,354.859l-5.9,2.301l3.43,2.418l5.908-2.311L324.993,354.859z
					 M324.993,354.859l-5.9,2.301l3.43,2.418l5.908-2.311L324.993,354.859z M324.993,354.859l-5.9,2.301l3.43,2.418l5.908-2.311
					L324.993,354.859z M311.779,360.023l3.496,2.384l6.289-2.452l-3.43-2.418L311.779,360.023z M324.993,354.859l-5.9,2.301
					l3.43,2.418l5.908-2.311L324.993,354.859z M324.993,354.859l-5.9,2.301l3.43,2.418l5.908-2.311L324.993,354.859z
					 M324.993,354.859l-5.9,2.301l3.43,2.418l5.908-2.311L324.993,354.859z M324.993,354.859l-5.9,2.301l3.43,2.418l5.908-2.311
					L324.993,354.859z M324.993,354.859l-5.9,2.301l3.43,2.418l5.908-2.311L324.993,354.859z M324.993,354.859l-5.9,2.301
					l3.43,2.418l5.908-2.311L324.993,354.859z M329.274,357.859l-5.907,2.311l3.932,2.765l5.899-2.31L329.274,357.859z
					 M330.233,357.482l3.932,2.764l0.29-0.113l1.1-4.726L330.233,357.482z M329.391,356.891l-0.96,0.376l0.843,0.591l0.96-0.376
					L329.391,356.891z M329.274,357.859l-5.907,2.311l3.932,2.765l5.899-2.31L329.274,357.859z M329.274,357.859l-5.907,2.311
					l3.932,2.765l5.899-2.31L329.274,357.859z M329.274,357.859l-5.907,2.311l3.932,2.765l5.899-2.31L329.274,357.859z
					 M335.033,354.682l0.596,0.413l0.166-0.705L335.033,354.682z M329.391,356.891l-0.96,0.376l0.843,0.591l0.96-0.376
					L329.391,356.891z M331.604,352.272l-5.642,2.209l3.429,2.409l5.642-2.209L331.604,352.272z M329.391,356.891l-0.96,0.376
					l0.843,0.591l0.96-0.376L329.391,356.891z M329.274,357.859l-5.907,2.311l3.932,2.765l5.899-2.31L329.274,357.859z
					 M329.391,356.891l-0.96,0.376l0.843,0.591l0.96-0.376L329.391,356.891z M329.274,357.859l-5.907,2.311l3.932,2.765l5.899-2.31
					L329.274,357.859z M329.274,357.859l-5.907,2.311l3.932,2.765l5.899-2.31L329.274,357.859z M330.233,357.482l3.932,2.764
					l-0.968,0.377l0.852,0.59l-5.908,2.311l-0.843-0.591l-0.96,0.376l0.852,0.59l-6.189,2.423l3.042,2.075l6.131-2.399l0.853,0.599
					l-6.123,2.389l4.034,2.752l2.429,1.664l0.666-2.871l0.643-2.773l0.213-0.892l0.257-1.097l0.232-1.016l0.805-3.443l0.033-0.16
					l0.179-0.741l0.062-0.276l1.1-4.726L330.233,357.482z M329.274,357.859l-5.907,2.311l3.932,2.765l5.899-2.31L329.274,357.859z
					 M329.391,356.891l-0.96,0.376l0.843,0.591l0.96-0.376L329.391,356.891z M329.274,357.859l-5.907,2.311l3.932,2.765l5.899-2.31
					L329.274,357.859z M329.391,356.891l-0.96,0.376l0.843,0.591l0.96-0.376L329.391,356.891z M329.274,357.859l-5.907,2.311
					l3.932,2.765l5.899-2.31L329.274,357.859z M329.391,356.891l-0.96,0.376l0.843,0.591l0.96-0.376L329.391,356.891z
					 M329.274,357.859l-5.907,2.311l3.932,2.765l5.899-2.31L329.274,357.859z M329.391,356.891l-0.96,0.376l0.843,0.591l0.96-0.376
					L329.391,356.891z M332.563,351.896l3.268,2.299l0.919-3.933L332.563,351.896z M327.587,349.449l-5.642,2.209l-0.844-0.6
					l5.643-2.201L327.587,349.449l0.96-0.376l-0.843-0.591l5.974-2.336l-3.023-2.129l-5.955,2.351l-0.96,0.376l-5.624,2.216
					l-0.968,0.377l-5.88,2.325l-0.96,0.376l-6.476,2.553l3.005,2.054l6.437-2.522l0.844,0.6l-6.42,2.512l3.222,2.201l6.371-2.488
					l0.843,0.591l0.96-0.376l-0.843-0.591l5.899-2.31l0.844,0.6l0.968-0.377l-0.853-0.599l5.642-2.209L327.587,349.449z
					 M315.086,354.344l-0.853-0.598l5.908-2.311l0.844,0.6L315.086,354.344z M334.637,345.769l-0.96,0.376l0.851,0.59l0.951-0.375
					L334.637,345.769z M335.48,346.36l1.875,1.315l0.516-2.246L335.48,346.36z M331.606,343.641l3.031,2.128l3.475-1.357
					l0.854-3.674L331.606,343.641z M329.391,356.891l-0.96,0.376l0.843,0.591l0.96-0.376L329.391,356.891z M330.751,351.674
					l-3.164-2.225l-5.642,2.209l-0.96,0.376l3.164,2.225l0.844,0.6l0.968-0.377l-0.853-0.599L330.751,351.674z M331.604,352.272
					l-5.642,2.209l3.429,2.409l5.642-2.209L331.604,352.272z M337.144,348.576l-2.615-1.841l-5.982,2.337l3.164,2.225l-0.951,0.375
					l0.844,0.6l0.96-0.376l-0.844-0.6l5.271-2.06L337.144,348.576z M329.391,356.891l5.642-2.209l-3.429-2.409l-5.642,2.209
					L329.391,356.891z M330.751,351.674l-3.164-2.225l-5.642,2.209l-0.96,0.376l3.164,2.225l0.844,0.6l0.968-0.377l-0.853-0.599
					L330.751,351.674z M329.274,357.859l-5.907,2.311l3.932,2.765l5.899-2.31L329.274,357.859z M329.274,357.859l-5.907,2.311
					l3.932,2.765l5.899-2.31L329.274,357.859z M324.993,354.859l-5.9,2.301l3.43,2.418l5.908-2.311L324.993,354.859z
					 M322.415,360.545l-6.281,2.451l4.007,2.738l6.197-2.424L322.415,360.545z M322.523,359.578l-0.96,0.376l0.852,0.59l0.951-0.375
					L322.523,359.578z M329.274,357.859l-5.907,2.311l3.932,2.765l5.899-2.31L329.274,357.859z M330.233,357.482l3.932,2.764
					l0.29-0.113l1.1-4.726L330.233,357.482z M329.391,356.891l-0.96,0.376l0.843,0.591l0.96-0.376L329.391,356.891z
					 M320.985,352.035l-5.899,2.31l3.164,2.225l5.899-2.31L320.985,352.035z M320.985,352.035l-5.899,2.31l3.164,2.225l5.899-2.31
					L320.985,352.035z M320.985,352.035l-5.899,2.31l3.164,2.225l5.899-2.31L320.985,352.035z"/>
				<path style="fill:#C6FF00;stroke:#263238;stroke-miterlimit:10;" d="M329.769,381.336l13.469-58.873
					c0.509-2.226,2.058-4.071,4.163-4.958l72.356-30.502c1.509-0.636,3.078,0.768,2.613,2.338l-17.351,58.597L329.769,381.336z"/>
				<path style="fill:#263238;" d="M384.123,327.075c2.068,1.194,2.509,4.304,0.984,6.945c-1.525,2.641-4.438,3.814-6.507,2.62
					c-2.068-1.194-2.509-4.304-0.984-6.945C379.141,327.054,382.054,325.881,384.123,327.075z"/>
			</g>
		</g>
	</g>
</g>
</svg>
