<?xml version="1.0" encoding="utf-8"?>
<!-- Generator: Adobe Illustrator 27.5.0, SVG Export Plug-In . SVG Version: 6.00 Build 0)  -->
<svg version="1.1" xmlns="http://www.w3.org/2000/svg" xmlns:xlink="http://www.w3.org/1999/xlink" x="0px" y="0px"
	 viewBox="0 0 500 500" style="enable-background:new 0 0 500 500;" xml:space="preserve">
<g id="Background_Simple_1_">
	<g id="Background_Simple">
		<path style="fill:#C6FF00;" d="M321.902,65.816c-28.785,6.933-55.243,22.208-85.606,28.382
			c-49.219,10.008-104.716,7.065-141.223,47.647c-27.57,30.648-43.159,75.522-33.842,116.41
			c24.236,106.357,176.99,125.338,259.245,80.144c42.672-23.446,73.614-67.003,95.149-109.568
			c19.776-39.089,40.78-90.537,11.011-130.211c-14.202-18.928-36.519-30.981-59.854-34.909
			C350.767,61.015,336.054,62.408,321.902,65.816z"/>
		<path style="opacity:0.8;fill:#FFFFFF;" d="M321.902,65.816c-28.785,6.933-55.243,22.208-85.606,28.382
			c-49.219,10.008-104.716,7.065-141.223,47.647c-27.57,30.648-43.159,75.522-33.842,116.41
			c24.236,106.357,176.99,125.338,259.245,80.144c42.672-23.446,73.614-67.003,95.149-109.568
			c19.776-39.089,40.78-90.537,11.011-130.211c-14.202-18.928-36.519-30.981-59.854-34.909
			C350.767,61.015,336.054,62.408,321.902,65.816z"/>
	</g>
</g>
<g id="Graphics_1_">
	<g id="Graphics">
		<g>
			<g>
				<rect x="367.085" y="323.251" style="fill:#C6FF00;" width="8.065" height="45.599"/>
				<path style="fill:#263238;" d="M375.65,369.35h-9.065v-46.6h9.065V369.35z M367.585,368.35h7.065v-44.6h-7.065V368.35z"/>
			</g>
			<g>
				<rect x="377.632" y="346.206" style="fill:#C6FF00;" width="8.065" height="22.645"/>
				<path style="fill:#263238;" d="M386.197,369.35h-9.065v-23.645h9.065V369.35z M378.132,368.35h7.065v-21.645h-7.065V368.35z"/>
			</g>
			<g>
				<rect x="387.868" y="331.316" style="fill:#C6FF00;" width="8.065" height="37.534"/>
				<path style="fill:#263238;" d="M396.434,369.35h-9.065v-38.534h9.065V369.35z M388.368,368.35h7.065v-36.534h-7.065V368.35z"/>
			</g>
			<g>
				<path style="fill:#263238;" d="M405.151,372.609h-38.337c-0.276,0-0.5-0.224-0.5-0.5c0-0.276,0.224-0.5,0.5-0.5h38.337
					c0.276,0,0.5,0.224,0.5,0.5C405.651,372.385,405.427,372.609,405.151,372.609z"/>
			</g>
			<g>
				<path style="fill:#263238;" d="M402.219,375.089c-0.276,0-0.5-0.224-0.5-0.5v-38.337c0-0.276,0.224-0.5,0.5-0.5
					c0.276,0,0.5,0.224,0.5,0.5v38.337C402.719,374.866,402.495,375.089,402.219,375.089z"/>
			</g>
		</g>
		<g>
			<path style="fill:#263238;" d="M108.006,77.434c0,1.493-1.211,2.704-2.704,2.704c-1.493,0-2.704-1.211-2.704-2.704
				c0-1.493,1.211-2.704,2.704-2.704C106.795,74.73,108.006,75.94,108.006,77.434z"/>
			<path style="fill:#263238;" d="M137.898,84.263c0,2.699-2.188,4.886-4.886,4.886s-4.886-2.188-4.886-4.886
				c0-2.699,2.188-4.886,4.886-4.886S137.898,81.564,137.898,84.263z"/>
			<path style="fill:#263238;" d="M92.772,99.209c0,2.064-1.673,3.737-3.737,3.737c-2.064,0-3.737-1.673-3.737-3.737
				c0-2.064,1.673-3.737,3.737-3.737C91.099,95.473,92.772,97.146,92.772,99.209z"/>
			<g>
				<polygon style="fill:#263238;" points="89.436,99.509 88.635,98.91 105.098,76.871 133.99,83.777 133.758,84.749 
					105.505,77.997 				"/>
			</g>
		</g>
		<g>
			<path style="fill:#263238;" d="M399.014,305.539c-0.002,1.431,0.164,2.857,0.494,4.249l-4.265,3.314l4.322,7.625l5.045-2.06
				c2.066,1.996,4.577,3.472,7.326,4.306l0.724,5.361l8.756,0.027l0.764-5.379c2.763-0.799,5.292-2.252,7.375-4.236l5.009,2.065
				l4.397-7.57l-4.25-3.313c0.678-2.793,0.682-5.707,0.013-8.502l4.265-3.314l-4.329-7.631l-5.021,2.034
				c-2.066-1.996-4.577-3.472-7.326-4.306l-0.718-5.355l-8.756-0.027l-0.764,5.379c-2.763,0.801-5.294,2.251-7.381,4.229
				l-5.002-2.059l-4.397,7.57l4.244,3.32C399.195,302.665,399.019,304.099,399.014,305.539z M414.914,296.095
				c5.245-1.216,10.482,2.049,11.699,7.293c1.217,5.245-2.049,10.482-7.293,11.699c-5.245,1.216-10.482-2.049-11.699-7.294
				c-0.34-1.467-0.336-2.993,0.012-4.458C408.468,299.724,411.298,296.91,414.914,296.095z"/>
			<path style="fill:#FFFFFF;" d="M364.326,258.696c-0.005,0.808,0.085,1.613,0.268,2.4l-2.412,1.861l2.455,4.271l2.834-1.15
				c1.17,1.122,2.59,1.949,4.143,2.412l0.401,3.017l4.929,0.013l0.424-3.012c1.555-0.457,2.979-1.275,4.156-2.388l2.818,1.161
				l2.48-4.264l-2.4-1.874c0.378-1.573,0.383-3.213,0.013-4.789l2.412-1.861l-2.455-4.271l-2.823,1.138
				c-1.17-1.122-2.59-1.949-4.143-2.412l-0.401-3.017l-4.929-0.013l-0.429,3.018c-1.553,0.453-2.976,1.27-4.151,2.382l-2.818-1.161
				l-2.48,4.264l2.399,1.873C364.424,257.081,364.326,257.887,364.326,258.696z M373.487,253.313c2.972-0.58,5.851,1.36,6.43,4.332
				c0.579,2.972-1.36,5.851-4.332,6.43c-2.972,0.58-5.851-1.36-6.431-4.332c-0.138-0.707-0.135-1.434,0.008-2.14
				C369.607,255.431,371.312,253.739,373.487,253.313z"/>
		</g>
		<g>
			<path style="fill:#C6FF00;" d="M124.97,200.085c0.378,0.934,0.864,1.82,1.448,2.64l-1.903,3.291l4.838,3.827l2.744-2.68
				c1.876,0.755,3.904,1.052,5.918,0.868l1.892,3.304l5.717-2.302l-0.926-3.71c1.59-1.253,2.855-2.87,3.687-4.715l3.813,0.02
				l0.862-6.101l-3.649-1.035c-0.298-2.001-1.067-3.902-2.244-5.548l1.903-3.291l-4.844-3.829l-2.736,2.656
				c-1.876-0.754-3.904-1.052-5.918-0.868l-1.886-3.302l-5.717,2.301l0.927,3.71c-1.589,1.254-2.856,2.87-3.693,4.713l-3.807-0.018
				l-0.863,6.101l3.647,1.041C124.327,198.163,124.592,199.145,124.97,200.085z M132.837,189.715
				c3.098-2.182,7.378-1.44,9.561,1.658c2.182,3.098,1.44,7.378-1.658,9.561c-3.098,2.182-7.378,1.44-9.561-1.657
				c-0.61-0.867-1.012-1.863-1.173-2.91C129.595,193.789,130.695,191.204,132.837,189.715z"/>
			<path style="fill:#C6FF00;" d="M129.077,172.824c0.153,0.383,0.35,0.746,0.587,1.082l-0.782,1.342l1.979,1.547l1.118-1.087
				c0.768,0.305,1.598,0.424,2.42,0.344l0.768,1.348l2.331-0.94l-0.378-1.504c0.647-0.514,1.163-1.174,1.505-1.926l1.554,0.008
				l0.353-2.49l-1.493-0.425c-0.123-0.816-0.436-1.592-0.913-2.265l0.782-1.342l-1.979-1.547l-1.115,1.079
				c-0.768-0.306-1.598-0.424-2.42-0.344l-0.768-1.348l-2.331,0.94l0.376,1.508c-0.647,0.512-1.162,1.171-1.504,1.922l-1.554-0.008
				l-0.353,2.49l1.493,0.425C128.813,172.042,128.922,172.442,129.077,172.824z M132.372,168.523
				c1.293-0.844,3.025-0.48,3.869,0.812c0.844,1.293,0.48,3.025-0.812,3.869c-1.293,0.844-3.025,0.48-3.869-0.812
				c-0.201-0.308-0.339-0.652-0.407-1.013C130.945,170.268,131.426,169.142,132.372,168.523z"/>
		</g>
	</g>
</g>
<g id="Window">
	<g id="Screen">
		<g>
			<path style="fill:#C6FF00;" d="M383.607,280.141H113.341V144.693c0-1.657,1.343-3,3-3h267.266c1.657,0,3,1.343,3,3v132.448
				C386.607,278.798,385.263,280.141,383.607,280.141z"/>
			<path style="opacity:0.2;" d="M383.607,280.141H113.341V144.693c0-1.657,1.343-3,3-3h267.266c1.657,0,3,1.343,3,3v132.448
				C386.607,278.798,385.263,280.141,383.607,280.141z"/>
		</g>
		<g>
			<path style="fill:#263238;" d="M388.706,287.496H111.294c-3.033,0-5.5-2.467-5.5-5.5V105.101c0-3.033,2.467-5.5,5.5-5.5h278.411
				c2.481,0,4.5,2.019,4.5,4.5v177.896C394.206,285.03,391.738,287.496,388.706,287.496z M111.294,100.601
				c-2.481,0-4.5,2.019-4.5,4.5v176.896c0,2.481,2.019,4.5,4.5,4.5h277.411c2.481,0,4.5-2.019,4.5-4.5V104.101
				c0-1.93-1.57-3.5-3.5-3.5H111.294z"/>
		</g>
		<g>
			<path style="fill:#C6FF00;" d="M266.573,116.124H116.82c-2.209,0-4-1.791-4-4v-0.428c0-2.209,1.791-4,4-4h148.754
				c2.209,0,4,1.791,4,4v1.428C269.573,114.781,268.23,116.124,266.573,116.124z"/>
			<path style="fill:#263238;" d="M266.574,116.624H116.82c-2.481,0-4.5-2.019-4.5-4.5v-0.428c0-2.481,2.019-4.5,4.5-4.5h148.754
				c2.482,0,4.5,2.019,4.5,4.5v1.428C270.074,115.054,268.503,116.624,266.574,116.624z M116.82,108.197c-1.93,0-3.5,1.57-3.5,3.5
				v0.428c0,1.93,1.57,3.5,3.5,3.5h149.754c1.379,0,2.5-1.122,2.5-2.5v-1.428c0-1.93-1.57-3.5-3.5-3.5H116.82z"/>
		</g>
		<g>
			<g>
				<path style="fill:#FFFFFF;" d="M120.973,127.843c0,1.731-1.403,3.134-3.134,3.134c-1.731,0-3.134-1.403-3.134-3.134
					c0-1.731,1.403-3.134,3.134-3.134C119.57,124.709,120.973,126.112,120.973,127.843z"/>
				<path style="fill:#263238;" d="M117.839,131.478c-2.004,0-3.634-1.63-3.634-3.635c0-2.004,1.63-3.634,3.634-3.634
					s3.634,1.63,3.634,3.634C121.473,129.848,119.843,131.478,117.839,131.478z M117.839,125.209c-1.453,0-2.634,1.182-2.634,2.634
					c0,1.453,1.182,2.635,2.634,2.635c1.453,0,2.634-1.182,2.634-2.635C120.473,126.39,119.291,125.209,117.839,125.209z"/>
			</g>
			<g>
				<circle style="fill:#FFFFFF;" cx="128.496" cy="127.843" r="3.134"/>
				<path style="fill:#263238;" d="M128.496,131.478c-2.004,0-3.634-1.63-3.634-3.635c0-2.004,1.63-3.634,3.634-3.634
					c2.004,0,3.634,1.63,3.634,3.634C132.13,129.848,130.499,131.478,128.496,131.478z M128.496,125.209
					c-1.453,0-2.634,1.182-2.634,2.634c0,1.453,1.182,2.635,2.634,2.635c1.453,0,2.634-1.182,2.634-2.635
					C131.13,126.39,129.948,125.209,128.496,125.209z"/>
			</g>
			<g>
				<path style="fill:#FFFFFF;" d="M142.287,127.843c0,1.731-1.403,3.134-3.134,3.134c-1.731,0-3.134-1.403-3.134-3.134
					c0-1.731,1.403-3.134,3.134-3.134C140.883,124.709,142.287,126.112,142.287,127.843z"/>
				<path style="fill:#263238;" d="M139.152,131.478c-2.004,0-3.634-1.63-3.634-3.635c0-2.004,1.63-3.634,3.634-3.634
					c2.004,0,3.634,1.63,3.634,3.634C142.787,129.848,141.156,131.478,139.152,131.478z M139.152,125.209
					c-1.453,0-2.634,1.182-2.634,2.634c0,1.453,1.182,2.635,2.634,2.635c1.453,0,2.634-1.182,2.634-2.635
					C141.787,126.39,140.605,125.209,139.152,125.209z"/>
			</g>
		</g>
	</g>
</g>
<g id="Floor_1_">
	<g>
		<ellipse style="fill:#C6FF00;" cx="250" cy="427.273" rx="154.404" ry="14.932"/>
		<ellipse style="opacity:0.7;fill:#FFFFFF;" cx="250" cy="427.273" rx="154.404" ry="14.932"/>
	</g>
</g>
<g id="Character_2_1_">
	<g id="Character_2">
		<g>
			<path style="fill:#FFFFFF;" d="M255.171,414.606c0,0-6.686,8.088-7.872,14.45c-1.186,6.362,0.863,6.039,2.48,6.147
				c1.618,0.108,6.039-5.176,7.117-7.225c1.078-2.049,3.559-14.127,3.559-14.127L255.171,414.606z"/>
			<path style="fill:#FFFFFF;" d="M317.202,413.376l3.601-2.342c0,0,5.753,4.985,10.429,6.409c4.677,1.423,13.93-0.915,15.607,4.728
				c0,0-8.446,2.943-13.45,2.564c-5.004-0.378-16.807-0.191-16.807-0.191L317.202,413.376z"/>
			<path style="fill:#263238;" d="M282.383,238.079c0,0-6.969,53.326-9.09,68.173c-2.121,14.846-10.302,53.932-11.817,62.719
				c-1.515,8.787-7.272,46.66-7.272,46.66l6.06,2.727l44.236-133.012c0,0,6.363,49.084,6.06,63.931
				c-0.303,14.846,5.757,65.749,5.757,65.749l6.052-2.701c0,0,7.583-39.717,6.371-54.261c-1.212-14.543,3.333-61.507,1.818-78.474
				c-1.515-16.967-3.636-42.419-3.636-42.419S310.561,247.169,282.383,238.079z"/>
			<g>
				<path style="fill:#263238;" d="M249.293,435.626c-0.158,0-0.318-0.007-0.479-0.022c-1.251-0.119-2.082-0.839-2.402-2.08
					c-1.316-5.094,6.173-18.064,9.54-20.368c0.224-0.151,0.531-0.095,0.686,0.129c0.153,0.225,0.095,0.532-0.129,0.686
					c-3.049,2.086-10.316,14.758-9.142,19.306c0.217,0.837,0.706,1.264,1.539,1.343c0.13,0.013,0.259,0.018,0.387,0.018
					c6.962,0.002,10.27-18.087,10.303-18.273c0.047-0.269,0.3-0.443,0.573-0.399c0.268,0.048,0.447,0.304,0.399,0.572
					C260.425,417.334,257.075,435.626,249.293,435.626z"/>
			</g>
			<g>
				<path style="fill:#FFFFFF;" d="M304.951,283.451c-0.11,0-0.22-0.037-0.311-0.111c-0.211-0.172-0.244-0.483-0.071-0.694
					l14.439-17.748c0.172-0.212,0.484-0.242,0.694-0.071c0.211,0.172,0.244,0.483,0.071,0.694l-14.439,17.748
					C305.236,283.389,305.093,283.451,304.951,283.451z"/>
			</g>
			<g>
				<path style="fill:#FFFFFF;" d="M306.479,285.599c-0.169,0-0.333-0.087-0.426-0.244c-0.138-0.235-0.059-0.538,0.176-0.676
					c2.207-1.294,4.291-2.814,6.192-4.518c0.202-0.182,0.514-0.167,0.697,0.038c0.182,0.203,0.165,0.516-0.038,0.697
					c-1.952,1.748-4.088,3.308-6.352,4.636C306.651,285.576,306.564,285.599,306.479,285.599z"/>
			</g>
			<g>
				<path style="fill:#263238;" d="M333.39,425.228c-2.206,0-4.937-0.128-7.579-0.253c-3.716-0.176-8.341-0.392-8.955-0.02
					c-0.154,0.094-0.356,0.102-0.51,0.011c-0.156-0.089-0.259-0.251-0.256-0.431l0.261-15.398c0.005-0.272,0.195-0.516,0.502-0.485
					c0.272,0.005,0.49,0.229,0.485,0.502l-0.25,14.731c1.311-0.212,4.018-0.12,8.769,0.104c2.63,0.123,5.35,0.251,7.533,0.251
					c4.965,0,11.216-1.875,12.873-2.403c-0.446-1.523-2.049-2.562-3.541-2.935c-1.311-0.328-2.66-0.313-4.084-0.304
					c-0.534,0.005-1.067,0.009-1.597-0.004c-6.2-0.161-12.361-3.023-16.483-7.656c-0.18-0.203-0.163-0.516,0.042-0.697
					c0.201-0.18,0.514-0.163,0.697,0.041c3.943,4.432,9.838,7.171,15.77,7.325c0.519,0.013,1.04,0.01,1.563,0.004
					c1.424-0.011,2.901-0.025,4.332,0.332c1.94,0.486,4.042,1.958,4.366,4.152c0.036,0.236-0.103,0.463-0.329,0.54
					C346.687,422.743,339.302,425.228,333.39,425.228z"/>
			</g>
			<g>
				<path style="fill:#FFFFFF;" d="M282.503,253.652c-0.412,0-0.828-0.083-1.227-0.27c-0.247-0.116-0.354-0.41-0.238-0.656
					c0.116-0.248,0.411-0.354,0.656-0.238c1.085,0.509,2.47-0.163,3.183-1.104c0.82-1.079,1.109-2.535,1.365-3.819l1.244-6.247
					c0.053-0.269,0.318-0.441,0.58-0.388c0.267,0.053,0.44,0.313,0.388,0.58l-1.244,6.247c-0.276,1.389-0.589,2.963-1.546,4.222
					C284.961,252.907,283.742,253.652,282.503,253.652z"/>
			</g>
			<g>
				<path style="fill:#263238;" d="M331.505,423.207c-1.656,0-3.314-0.11-4.962-0.331c-0.467-0.062-0.94-0.132-1.415-0.203
					c-2.938-0.437-5.977-0.891-8.443,0.481l-0.48-0.862c2.754-1.534,5.964-1.057,9.068-0.596c0.47,0.07,0.938,0.14,1.4,0.202
					c6.278,0.837,12.699,0.025,18.569-2.355l0.37,0.914C341.128,422.278,336.326,423.207,331.505,423.207z"/>
			</g>
			<g>
				<path style="fill:#263238;" d="M250.699,435.209c-0.856-0.402-2.285-1.531-2.632-2.674c-0.312-1.026-0.291-2.09-0.229-2.995
					c0.362-5.341,2.7-10.619,6.413-14.478l0.711,0.684c-3.555,3.694-5.792,8.746-6.139,13.861c-0.056,0.815-0.077,1.768,0.189,2.641
					c0.215,0.708,1.309,1.694,2.108,2.069L250.699,435.209z"/>
			</g>
		</g>
		<g>
			<polygon style="fill:#FFFFFF;" points="358.044,182.298 389.285,131.54 355.076,118.063 326.873,159.94 			"/>
			<path style="fill:#FFFFFF;" d="M380.232,164.442c0,0,2.682-3.43,2.744-6.861c0.062-3.43-2.173-3.848-1.585-5.853
				s0.096-3.147-1.997-5.258c-2.094-2.111-6.833-3.358-7.145-2.236c-0.312,1.123,4.241,2.931,3.805,4.865
				c0,0-8.108,0.312-8.482,2.37l-0.125,1.434c0,0-1.622,0.749-1.247,1.622c0.374,0.873,8.675,0.756,8.675,0.756
				s-1.378,5.419,0.431,7.04L380.232,164.442z"/>
			<path style="fill:#FFFFFF;" d="M364.539,135.969c8.582,11.308,0.771,25.55-10.803,32.915
				c-11.574,7.365-22.794,4.076-28.607-5.058c-5.813-9.135-1.142-22.511,10.433-29.876
				C347.136,126.585,357.993,127.344,364.539,135.969z"/>
			<path style="fill:#C6FF00;" d="M373.849,161.445l-14.422,33.055l-26.256-22.765c0,0-9.57-4.703-10.789-12.699l-18.64-2.592
				c0,0-2.237,8.85-6.066,10.77l-4.175-7.314l-0.634,9.003c0,0-9.617-3.907-12.324-6.191c0,0-21.491,9.714-24.966,20.33
				c-3.484,10.616,8.005,36.186,8.005,36.186s4.348,11.134,7.995,11.835c3.657,0.691,10.971-6.105,10.971-6.105l-1.977,12.766
				c0,0,28.114,11.144,46.706-1.152l-0.249-41.494c0,0,23.708,11.969,30.84,14.58c7.141,2.611,9.742,1.564,9.742,1.564
				s12.18-32.011,14.273-46.793L373.849,161.445z M278.84,210.961l-3.634-13.651l6.187,11.588L278.84,210.961z"/>
			<path style="fill:#C6FF00;" d="M329.535,167.932c0,0,14.524,5.999,28.416-8.841c13.892-14.84,5.041-24.116,5.041-24.116
				s12.325,8.487,1.747,23.484c-10.577,14.997-22.259,15.155-28.89,14.05C329.219,171.404,329.535,167.932,329.535,167.932z"/>
			<path style="opacity:0.2;" d="M290.128,218.334c-0.235-0.026,0.008,0.353,0.245,0.357c3.667,0.062,7.338-0.056,10.993-0.356
				c-3.319,1.302-6.638,2.605-9.956,3.907c-0.315,0.124-0.642,0.255-0.865,0.508c-0.211,0.239-0.305,0.556-0.392,0.863
				c-1.498,5.269-4.59,15.949-4.448,15.996l-5.135-1.887l1.98-12.766L290.128,218.334z"/>
			<path style="opacity:0.2;" d="M274.49,194.903l1.857-16.29c0,0,6.026,4.565,4.2,10.226c-1.826,5.661,4.565,17.348,4.565,17.348
				l-3.719,2.712l-7.42-15.312L274.49,194.903z"/>
			<path style="opacity:0.2;" d="M327.163,183.873c0,0,1.508,7.654,2.087,8.234c0.58,0.58-0.58-6.378,0.464-6.726
				s3.827,9.046,3.827,9.046s10.669,6.262,14.264,5.682c3.595-0.58,9.278-6.958,9.278-6.958l2.184,1.958
				c0,0-2.184,5.928-4.851,7.087c0,0,4.523,6.03,14.728,4.871c0,0-0.723,5.476-4.755,4.639
				c-9.494-1.972-37.361-16.628-37.361-16.628L327.163,183.873z"/>
			<path style="opacity:0.2;" d="M261.836,173.341c-4.528,16.832-2.779,22.675,2.635,36.89c0,0,7.431-3.506,13.467-0.287
				l0.573,1.576l-9.834,6.088c0,0,1.006,7.847,7.646,11.268c0,0-2.651,2.563-4.746,2.187c-2.095-0.376-10.345-18.284-12.156-21.906
				C257.611,205.535,248.959,187.426,261.836,173.341z"/>
			<path style="fill:#C6FF00;" d="M326.782,166.254c0,0-6.009-5.393-4.314-14.33c1.695-8.937,10.478-17.566,17.565-20.493
				c7.088-2.928,18.952-4.16,22.958,3.544c0,0-8.32-6.317-22.958,1.695C325.395,144.682,324.625,159.936,326.782,166.254z"/>
			<g>
				<g>
					<path style="fill:#263238;" d="M359.372,195.536c-0.118,0-0.235-0.041-0.33-0.126l-31.164-27.956
						c-0.202-0.182-0.22-0.494-0.038-0.697c0.183-0.203,0.494-0.219,0.697-0.038l31.164,27.956c0.202,0.182,0.22,0.493,0.038,0.697
						C359.642,195.481,359.507,195.536,359.372,195.536z"/>
				</g>
				<g>
					<path style="fill:#263238;" d="M365.419,212.335c-7.967,0.001-34.989-14.841-38.298-16.675
						c-0.239-0.132-0.325-0.433-0.193-0.671c0.133-0.239,0.435-0.323,0.671-0.193c13.945,7.73,35.808,18.472,38.914,16.347
						c3.501-2.394,11.742-33.546,14.758-45.889l-7.164-3.16l-16.037,37.653c-0.107,0.25-0.396,0.368-0.648,0.26
						c-0.251-0.107-0.367-0.396-0.26-0.648l16.233-38.112c0.052-0.121,0.149-0.217,0.273-0.265c0.121-0.048,0.259-0.046,0.381,0.007
						l7.999,3.529c0.219,0.096,0.336,0.336,0.28,0.568c-0.434,1.785-10.683,43.744-15.258,46.873
						C366.693,212.216,366.131,212.335,365.419,212.335z"/>
				</g>
			</g>
			<g>
				<g>
					<path style="fill:#263238;" d="M307.137,243.697c-13.453,0-26.557-5.432-26.76-5.518c-0.208-0.089-0.331-0.306-0.296-0.53
						l1.977-12.768c0.042-0.27,0.298-0.451,0.563-0.412c0.27,0.041,0.454,0.294,0.413,0.563l-1.917,12.382
						c3.477,1.379,31.418,11.857,45.665-1.062l-0.163-53.625c-0.001-0.272,0.22-0.494,0.492-0.495c0.001,0,0.002,0,0.002,0
						c0.272,0,0.492,0.22,0.493,0.492l0.164,53.843c0,0.139-0.057,0.271-0.158,0.364
						C322.085,242.044,314.557,243.697,307.137,243.697z"/>
				</g>
				<g>
					<path style="fill:#263238;" d="M321.724,158.505c-0.02,0-0.039-0.001-0.06-0.003l-18.386-2.194
						c-0.27-0.032-0.464-0.278-0.431-0.548c0.033-0.271,0.285-0.462,0.548-0.432l18.386,2.195c0.27,0.032,0.464,0.278,0.431,0.548
						C322.183,158.321,321.97,158.505,321.724,158.505z"/>
				</g>
				<g>
					<path style="fill:#263238;" d="M272.173,231.844c-2.058,0.001-3.746-2.953-4.757-4.724c-0.142-0.247-0.268-0.468-0.378-0.65
						c-2.305-3.844-4.144-7.863-5.98-11.985c-4.435-9.956-8.208-20.506-5.806-30.199c2.439-9.84,9.917-13.921,17.836-18.242
						c2.182-1.191,4.438-2.422,6.596-3.787c0.228-0.146,0.534-0.079,0.681,0.153c0.146,0.23,0.077,0.535-0.153,0.68
						c-2.186,1.383-4.455,2.621-6.651,3.82c-7.723,4.214-15.016,8.195-17.351,17.613c-2.331,9.404,1.386,19.765,5.75,29.561
						c1.823,4.093,3.648,8.082,5.923,11.878c0.113,0.186,0.243,0.413,0.389,0.669c0.845,1.48,2.415,4.227,3.899,4.227
						c0.01,0,0.018,0,0.028,0c4.247-0.098,28.157-21.707,37.42-30.405l-4.277-6.558l-33.99,22.807
						c-0.223,0.151-0.531,0.094-0.684-0.135c-0.152-0.226-0.092-0.533,0.135-0.684l34.396-23.081c0.108-0.075,0.239-0.102,0.37-0.08
						c0.129,0.024,0.244,0.098,0.317,0.207l0.086,0.125l4.7,7.208c0.13,0.2,0.098,0.465-0.075,0.628
						c-1.338,1.259-32.826,30.827-38.374,30.955C272.206,231.844,272.189,231.844,272.173,231.844z"/>
				</g>
			</g>
			<g>
				<path style="fill:#263238;" d="M304.05,128.887c-0.105,0-0.211-0.034-0.302-0.103c-0.215-0.166-0.255-0.476-0.09-0.692
					c0.853-1.106,2.876-4.318,2.015-5.867c-0.293-0.528-0.628-0.827-0.996-0.887c-0.585-0.099-1.135,0.401-1.141,0.407
					c-0.201,0.183-0.511,0.17-0.696-0.03c-0.184-0.2-0.172-0.51,0.027-0.694c0.037-0.034,0.905-0.826,1.959-0.657
					c0.684,0.108,1.26,0.574,1.71,1.383c1.327,2.391-1.742,6.49-2.097,6.949C304.344,128.821,304.198,128.887,304.05,128.887z"/>
			</g>
			<g>
				<g>
					<path style="fill:#263238;" d="M337.004,169.909c-5.145,0-9.439-1.834-12.194-5.237c-2.993-3.699-3.794-8.791-2.254-14.339
						c1.523-5.488,5.162-10.777,10.247-14.892c5.085-4.115,11.016-6.572,16.701-6.917c5.75-0.349,10.56,1.497,13.554,5.196
						c2.993,3.699,3.794,8.792,2.255,14.339c-1.523,5.488-5.162,10.777-10.247,14.892c-5.085,4.115-11.016,6.572-16.701,6.917
						C337.905,169.896,337.451,169.909,337.004,169.909z M350.861,129.471c-0.426,0-0.859,0.013-1.297,0.039
						c-5.482,0.333-11.214,2.712-16.14,6.699c-4.927,3.987-8.448,9.097-9.917,14.388c-1.452,5.232-0.716,10.01,2.071,13.455
						c2.787,3.444,7.313,5.158,12.728,4.831c5.482-0.333,11.214-2.712,16.14-6.699c4.927-3.987,8.448-9.096,9.916-14.388
						c1.451-5.232,0.716-10.01-2.071-13.455C359.729,131.176,355.703,129.471,350.861,129.471z"/>
				</g>
				<g>
					<path style="fill:#263238;" d="M340.206,173.438c-4.97,0-9.383-1.72-12.216-5.22c-2.993-3.699-3.794-8.791-2.255-14.339
						c1.523-5.488,5.162-10.777,10.247-14.892c10.545-8.533,24.116-9.306,30.256-1.721c2.993,3.699,3.794,8.792,2.254,14.339
						c-1.523,5.488-5.162,10.777-10.247,14.892C352.566,171.093,346.007,173.438,340.206,173.438z M354.025,133.018
						c-5.574,0-11.915,2.28-17.422,6.736c-4.927,3.987-8.449,9.097-9.916,14.389c-1.451,5.232-0.716,10.01,2.071,13.455
						c5.795,7.16,18.744,6.324,28.867-1.867c4.927-3.987,8.448-9.097,9.917-14.389c1.451-5.232,0.716-10.01-2.071-13.455
						C362.828,134.621,358.696,133.018,354.025,133.018z"/>
				</g>
				<path style="fill:#263238;" d="M332.518,171.504l-10.309,11.672l-0.038,0.048l-13.342,15.118l-2.405-5.606l-1.069,0.557
					c0.01-0.048-0.405,0.147-0.396,0.099c0.342-0.868,0.769-1.5,0.664-2.393c0.672-0.194,0.046-0.893,0.007-1.133l-0.007-1.256
					l7.746-7.181l0.441-0.461l13.774-13.918c0.009,0,0.067,0,0.163,0.01c0.153,0.019,0.403,0.048,0.729,0.154
					c0.451,0.125,1.037,0.374,1.641,0.845c0.787,0.605,1.622,1.564,2.265,3.11C332.432,171.274,332.47,171.389,332.518,171.504z"/>
			</g>
			<g>
				<g>
					<path style="fill:#C6FF00;" d="M337.683,159.452c-0.55,0-1.121-0.105-1.693-0.368c-1.35-0.622-2.309-2.038-2.503-3.697
						c-0.15-1.268,0.139-2.468,0.35-3.344c0.391-1.624,0.878-3.539,1.534-5.444c0.344-1.003,1.434-1.538,2.44-1.191
						c1.003,0.344,1.536,1.437,1.191,2.439c-0.603,1.753-1.062,3.559-1.432,5.094c-0.192,0.798-0.334,1.451-0.269,1.996
						c0.046,0.394,0.227,0.627,0.295,0.658c0.063,0.029,0.471,0.134,1.88-0.841c6.573-4.545,13.013-9.452,19.142-14.584
						c0.814-0.681,2.024-0.573,2.704,0.239c0.68,0.813,0.574,2.024-0.239,2.704c-6.219,5.207-12.754,10.187-19.424,14.799
						C340.976,158.386,339.433,159.452,337.683,159.452z"/>
					<path style="fill:#263238;" d="M337.683,159.946c-0.663,0-1.302-0.139-1.899-0.413c-1.506-0.694-2.573-2.26-2.787-4.088
						c-0.16-1.351,0.14-2.598,0.358-3.508c0.397-1.645,0.889-3.577,1.55-5.497c0.209-0.61,0.644-1.103,1.223-1.385
						c0.578-0.282,1.234-0.323,1.844-0.112c0.609,0.209,1.101,0.644,1.384,1.223c0.282,0.579,0.323,1.234,0.113,1.844
						c-0.596,1.733-1.052,3.525-1.419,5.049c-0.18,0.749-0.314,1.359-0.259,1.822c0.011,0.088,0.031,0.16,0.051,0.215
						c0.189-0.054,0.599-0.222,1.355-0.745c6.564-4.54,12.993-9.438,19.105-14.556c0.494-0.414,1.122-0.611,1.763-0.554
						c0.642,0.057,1.223,0.361,1.637,0.855c0.414,0.494,0.61,1.12,0.553,1.762c-0.057,0.642-0.36,1.223-0.855,1.637
						c-6.235,5.22-12.781,10.209-19.46,14.827C341.234,158.808,339.586,159.946,337.683,159.946z M337.183,145.797
						c-0.214,0-0.425,0.048-0.622,0.145c-0.342,0.167-0.599,0.458-0.723,0.819c-0.647,1.881-1.132,3.785-1.521,5.399
						c-0.203,0.846-0.478,1.993-0.339,3.17c0.174,1.49,1.025,2.756,2.219,3.307c0.468,0.214,0.968,0.323,1.487,0.323
						c1.595,0,3.066-1.016,3.694-1.449c6.655-4.602,13.178-9.572,19.388-14.773c0.293-0.245,0.472-0.588,0.506-0.968
						c0.034-0.379-0.083-0.749-0.328-1.041c-0.244-0.292-0.588-0.471-0.968-0.505c-0.366-0.032-0.748,0.082-1.041,0.328
						c-6.136,5.138-12.588,10.054-19.178,14.611c-1.154,0.798-1.928,1.084-2.368,0.883c-0.281-0.127-0.521-0.559-0.579-1.048
						c-0.073-0.625,0.076-1.322,0.28-2.169c0.373-1.547,0.836-3.367,1.446-5.139c0.124-0.36,0.1-0.747-0.066-1.09
						c-0.168-0.342-0.458-0.599-0.818-0.723C337.497,145.823,337.34,145.797,337.183,145.797z"/>
				</g>
			</g>
			<g>
				<path style="fill:#263238;" d="M348.381,175.957c-0.099,0-0.199-0.029-0.285-0.091l-3.975-2.811
					c-0.222-0.157-0.275-0.465-0.117-0.688c0.159-0.223,0.467-0.273,0.688-0.118l3.975,2.811c0.222,0.157,0.275,0.465,0.118,0.688
					C348.688,175.884,348.535,175.957,348.381,175.957z"/>
			</g>
			<g>
				<path style="fill:#263238;" d="M358.044,182.792c-0.101,0-0.201-0.031-0.285-0.091l-5.365-3.795
					c-0.223-0.158-0.275-0.465-0.118-0.688c0.159-0.223,0.467-0.274,0.688-0.118l4.937,3.492l16.051-25.981
					c0.144-0.233,0.449-0.304,0.68-0.161c0.232,0.143,0.304,0.447,0.161,0.679l-16.327,26.428c-0.072,0.116-0.188,0.197-0.322,0.224
					C358.109,182.789,358.077,182.792,358.044,182.792z"/>
			</g>
			<g>
				<path style="fill:#263238;" d="M380.632,146.093c-0.089,0-0.178-0.024-0.258-0.073c-0.232-0.143-0.304-0.447-0.162-0.679
					l8.344-13.557l-33.299-13.118l-7.347,10.496c-0.155,0.224-0.464,0.277-0.687,0.121c-0.223-0.156-0.278-0.464-0.12-0.687
					l7.569-10.815c0.131-0.187,0.371-0.259,0.585-0.176l34.209,13.476c0.136,0.053,0.241,0.165,0.287,0.303
					c0.046,0.138,0.028,0.291-0.048,0.415l-8.653,14.06C380.958,146.009,380.797,146.093,380.632,146.093z"/>
			</g>
			<g>
				<path style="fill:#263238;" d="M278.605,211.446c-0.167,0-0.329-0.085-0.421-0.239c-0.811-1.352-6.583-24.793-7.239-27.461
					c-0.065-0.264,0.096-0.532,0.362-0.596c0.27-0.066,0.532,0.098,0.596,0.361c2.556,10.404,6.563,26.231,7.127,27.189
					c0.138,0.234,0.062,0.538-0.173,0.676C278.779,211.423,278.691,211.446,278.605,211.446z"/>
			</g>
			<g>
				<path style="fill:#263238;" d="M281.331,208.83c-0.176,0-0.347-0.094-0.436-0.261l-7.047-13.213
					c-0.128-0.241-0.037-0.54,0.203-0.668c0.24-0.129,0.539-0.038,0.668,0.203l7.047,13.213c0.128,0.241,0.037,0.54-0.203,0.668
					C281.49,208.812,281.41,208.83,281.331,208.83z"/>
			</g>
			<g>
				<path style="fill:#263238;" d="M266.958,212.247c-0.246,0-0.459-0.184-0.489-0.434c-0.033-0.271,0.16-0.517,0.43-0.549
					c2.799-0.339,5.61-0.793,8.357-1.348c0.263-0.053,0.527,0.119,0.581,0.387c0.054,0.267-0.119,0.527-0.387,0.581
					c-2.771,0.56-5.608,1.018-8.432,1.36C266.998,212.246,266.978,212.247,266.958,212.247z"/>
			</g>
			<g>
				<path style="fill:#263238;" d="M274.608,196.878c-0.08,0-0.162-0.016-0.242-0.055c-0.181-0.089-0.31-0.32-0.296-0.521
					c0.013-0.18,0.1-0.309,0.157-0.384l1.364-12.884c0.029-0.272,0.276-0.47,0.543-0.438c0.271,0.028,0.467,0.271,0.439,0.543
					l-1.373,12.974c-0.005,0.047-0.014,0.091-0.027,0.13c0.036,0.173-0.026,0.363-0.158,0.483
					C274.919,196.811,274.768,196.878,274.608,196.878z M274.218,196.006c0,0.001,0,0.002,0,0.004V196.006z"/>
			</g>
			<g>
				<path style="fill:#FFFFFF;" d="M323.098,182.238c-0.029,1.689-1.747,5.183-1.747,5.183s-0.01,0.163-0.058,0.441
					c-0.058,0.413-0.173,1.065-0.403,1.814c-0.413,1.334-1.171,2.966-2.563,4.098c-0.259,0.211-0.547,0.442-0.874,0.691
					c-0.029,0.029-0.067,0.058-0.105,0.077c-2.073,1.584-5.212,3.782-7.103,5.097l-1.037-1.584c0,0-2.709-3.884-3.382-5.217
					c0.038-0.086,0.464-0.581,0.473-0.686c0.134-0.71-0.096-1.593-0.278-2.38c-0.067-0.288-0.134-0.557-0.173-0.797
					c-0.077-0.413-0.077-0.749,0.067-0.95c0.057-0.086,0.211-0.259,0.432-0.48l0.009-0.01c1.545-1.641,6.421-6.268,6.421-6.268
					s0.749-0.49,1.516-0.826c0.442-0.202,0.893-0.355,1.2-0.317c0.221,0.01,0.374,0.115,0.413,0.336
					c0.019,0.125,0.019,0.278-0.01,0.461c-0.24,1.421-1.825,4.64-1.95,4.889c-0.017,0.224,0.209,0.202,0.255-0.191
					c0.336-0.202,2.271-1.569,4.431-2.663c0.029-0.01,0.067-0.029,0.096-0.048c1.929-0.97,3.782-1.728,4.214-1.344
					c0.029,0.029,0.048,0.058,0.058,0.086c0.029,0.067,0.057,0.154,0.077,0.24C323.088,181.998,323.098,182.113,323.098,182.238z"/>
				<g>
					<path style="fill:#263238;" d="M310.325,200.289c-0.154,0-0.308-0.073-0.403-0.209c-0.157-0.223-0.104-0.531,0.118-0.687
						c1.971-1.39,5.152-3.645,6.976-4.97c0.023-0.023,0.095-0.07,0.122-0.089c2.602-1.882,2.919-2.925,3.226-4.474l0.05-0.262
						c0.063-0.323,0.128-0.664,0.212-1.03c0.04-0.182,0.092-0.379,0.153-0.574c0.224-0.736,0.552-1.491,0.868-2.222
						c0.538-1.241,1.047-2.414,0.956-3.251c-0.008-0.082-0.014-0.137-0.025-0.166c-0.016-0.041-0.028-0.085-0.033-0.129
						c-0.004-0.008-0.011-0.024-0.018-0.043c-0.142-0.045-0.881-0.097-3.597,1.436c-0.036,0.025-0.113,0.064-0.182,0.086
						c-2.348,1.353-4.943,3.18-4.969,3.198c-0.194,0.136-0.456,0.116-0.627-0.048c-0.171-0.165-0.2-0.427-0.069-0.626
						c0.139-0.212,0.268-0.424,0.379-0.618c1.609-2.641,1.922-3.845,1.902-4.392c-0.014-0.307-0.114-0.363-0.15-0.384
						c-0.109-0.062-0.279-0.085-0.501-0.082c-0.1,0.009-0.203,0.017-0.306,0.033c-0.919,0.142-2.647,1.975-4.173,3.593
						c-0.921,0.977-1.874,1.987-2.739,2.742c-0.331,0.291-0.579,0.599-0.736,0.914c-0.011,0.022-0.023,0.043-0.037,0.064
						c-0.168,0.327-0.262,0.672-0.287,1.054c-0.015,0.253-0.004,0.52,0.036,0.837c0.036,0.299,0.09,0.587,0.141,0.864
						c0.109,0.583,0.212,1.134,0.137,1.65c-0.008,0.093-0.047,0.219-0.372,0.913l-0.043,0.094c-0.111,0.25-0.403,0.361-0.652,0.251
						c-0.249-0.111-0.361-0.403-0.251-0.651l0.052-0.111c0.084-0.179,0.257-0.543,0.296-0.671c0.044-0.32-0.044-0.792-0.137-1.292
						c-0.056-0.298-0.113-0.607-0.15-0.925c-0.047-0.376-0.061-0.701-0.042-1.019c0.037-0.544,0.174-1.033,0.422-1.498
						c0.009-0.016,0.018-0.032,0.029-0.047c0.214-0.411,0.532-0.804,0.944-1.166c0.83-0.724,1.766-1.717,2.671-2.676
						c1.871-1.984,3.486-3.698,4.741-3.891c0.125-0.019,0.251-0.03,0.369-0.04c0.486-0.019,0.805,0.052,1.074,0.205
						c0.277,0.155,0.618,0.492,0.651,1.202c0.03,0.817-0.4,2.026-1.307,3.678c0.945-0.622,2.142-1.383,3.306-2.048
						c0.001-0.001,0.097-0.049,0.097-0.05c3.551-2.004,4.441-1.738,4.847-1.216c0.04,0.034,0.101,0.129,0.136,0.233
						c0.037,0.064,0.07,0.164,0.09,0.276c0.047,0.142,0.059,0.273,0.068,0.373c0.118,1.088-0.441,2.377-1.032,3.741
						c-0.306,0.705-0.622,1.434-0.831,2.12c-0.054,0.173-0.098,0.342-0.134,0.502c-0.082,0.356-0.146,0.686-0.205,0.998
						l-0.052,0.265c-0.344,1.741-0.777,3.03-3.545,5.037c-0.093,0.074-0.176,0.135-0.26,0.176c-1.758,1.285-4.943,3.544-6.918,4.936
						C310.522,200.26,310.423,200.289,310.325,200.289z M322.491,182.087c0.002,0.004,0.003,0.007,0.004,0.011
						C322.494,182.093,322.492,182.09,322.491,182.087z"/>
				</g>
			</g>
			<g>
				<path style="fill:#263238;" d="M351.784,200.376c-0.163,0-0.323-0.081-0.417-0.23c-0.146-0.23-0.076-0.535,0.154-0.68
					c1.694-1.071,3.283-2.321,4.721-3.715c0.196-0.189,0.508-0.183,0.698,0.012c0.189,0.196,0.184,0.508-0.012,0.698
					c-1.486,1.442-3.128,2.733-4.882,3.841C351.966,200.351,351.875,200.376,351.784,200.376z"/>
			</g>
			<g>
				<path style="fill:#263238;" d="M374.639,162.255c-0.225,0-0.428-0.154-0.481-0.382c-0.448-1.925-0.428-3.811,0.073-6.035
					c-2.319,0.192-4.646,0.077-6.935-0.34c-0.286-0.052-0.883-0.16-1.201-0.643c-0.36-0.549-0.157-1.244,0.231-1.647
					c0.337-0.351,0.773-0.515,1.189-0.653c1.999-0.659,4.085-1.016,5.882-1.3c0.669-0.105,1.503-0.235,2.307-0.004
					c1.461,0.422,2.285,1.835,2.942,3.127c0.124,0.243,0.027,0.54-0.216,0.664c-0.238,0.121-0.54,0.028-0.663-0.216
					c-0.59-1.158-1.256-2.314-2.337-2.626c-0.552-0.16-1.153-0.084-1.879,0.031c-1.76,0.277-3.798,0.626-5.727,1.261
					c-0.311,0.103-0.605,0.211-0.787,0.4c-0.122,0.127-0.178,0.327-0.118,0.42c0.085,0.13,0.413,0.189,0.552,0.214
					c2.426,0.443,4.899,0.532,7.348,0.264c0.168-0.02,0.322,0.046,0.428,0.168c0.106,0.123,0.145,0.29,0.103,0.447
					c-0.615,2.363-0.686,4.288-0.231,6.244c0.062,0.266-0.104,0.531-0.369,0.592C374.713,162.251,374.676,162.255,374.639,162.255z"
					/>
			</g>
			<g>
				<path style="fill:#263238;" d="M367.769,153.136c-0.204,0-0.407-0.071-0.581-0.208c-0.254-0.197-0.414-0.504-0.428-0.82
					c-0.019-0.401,0.151-0.796,0.507-1.175c0.612-0.655,1.443-1,2.174-1.251c2.462-0.843,5.06-1.033,7.316-0.532
					c0.266,0.059,0.434,0.323,0.375,0.589c-0.059,0.265-0.32,0.433-0.589,0.375c-2.081-0.463-4.49-0.284-6.782,0.503
					c-0.617,0.211-1.31,0.494-1.774,0.992c-0.162,0.173-0.247,0.333-0.242,0.454c0.002,0.035,0.036,0.081,0.055,0.092
					c0.274-0.054,0.503,0.117,0.557,0.385c0.054,0.267-0.143,0.526-0.411,0.58C367.888,153.13,367.829,153.136,367.769,153.136z"/>
			</g>
			<g>
				<path style="fill:#263238;" d="M380.542,164.792c-0.113,0-0.225-0.038-0.317-0.116c-0.209-0.175-0.236-0.487-0.061-0.695
					c2.313-2.752,2.91-6.818,1.482-10.117l-0.176-0.392c-0.239-0.524-0.486-1.065-0.568-1.678c-0.068-0.512-0.013-1.009,0.042-1.488
					c0.06-0.533,0.118-1.037-0.008-1.489c-0.224-0.809-1.022-1.401-1.819-1.938c-1.727-1.163-3.581-2.316-5.591-2.513
					c-0.258-0.027-0.578-0.038-0.781,0.092c-0.055,0.061-0.107,0.335-0.066,0.426l2.301,1.354c0.506,0.303,1.199,0.718,1.486,1.46
					c0.16,0.414,0.154,0.837,0.149,1.21c-0.003,0.206-0.008,0.412,0.022,0.613c0.041,0.269-0.145,0.521-0.413,0.562
					c-0.26,0.042-0.521-0.143-0.562-0.413c-0.039-0.254-0.038-0.515-0.034-0.775c0.004-0.311,0.009-0.605-0.083-0.84
					c-0.152-0.393-0.576-0.672-1.073-0.97l-2.364-1.415c-0.271-0.162-0.423-0.468-0.429-0.861c-0.007-0.412,0.155-0.936,0.532-1.18
					c0.457-0.294,0.996-0.285,1.411-0.244c2.238,0.22,4.214,1.443,6.046,2.677c0.95,0.64,1.904,1.359,2.218,2.492
					c0.177,0.636,0.106,1.261,0.038,1.864c-0.05,0.44-0.097,0.856-0.045,1.247c0.063,0.467,0.27,0.92,0.489,1.399l0.184,0.411
					c1.572,3.634,0.916,8.112-1.633,11.144C380.823,164.732,380.683,164.792,380.542,164.792z"/>
			</g>
		</g>
		<g>
			<path style="fill:#FFFFFF;" d="M267.747,124.025l3.898-4.76l2.845,3.764C274.49,123.029,271.255,124.433,267.747,124.025z"/>
			<path style="fill:#FFFFFF;" d="M283.696,154.651l-3.15,8.062l12.32,6.191v-8.839l4.901,7.671c0,0,3.5-4.96,5.972-11.293
				l-3.673-4.215c0,0-4.572,7.21-7.35,7.011C289.938,159.04,283.696,154.651,283.696,154.651z"/>
			<path style="fill:#FFFFFF;" d="M301.748,113.245l1.109,7.13c0,0,3.644,0.159,3.486,2.694c-0.158,2.535-2.693,6.496-2.693,6.496
				s1.742,11.166-3.645,16.553l-0.037,5.514c0,0-3.466,6.931-7.101,8.434c0,0-6.011-2.141-8.863-4.834c0,0-4.224-14.878-5.65-19.631
				c0,0-2.668,1.628-4.371,0.093c-1.703-1.535-4.526-5.139-3.194-7.06c1.332-1.921,4.659-1.129,4.659-1.129l-3.803-8.239
				c0,0,6.496-8.397,15.051-8.08C295.252,111.502,301.748,113.245,301.748,113.245z"/>
			<g>
				<path style="fill:#C6FF00;" d="M282.048,113.478c1.893,3.135,2.757,6.88,2.427,10.527c-0.186,2.058-0.739,4.073-0.85,6.136
					c-0.178,3.286,0.765,6.518,1.699,9.674c0.613,2.07,1.093,4.806,3.004,5.81c0.944,0.496,1.96,0.126,3.168,0.919
					c0,0.077,0.09,0.316,0.09,0.393c0,2.837,0.529,5.564,0.125,8.372c-0.211,1.464-0.593,2.984-1.61,4.058l-6.404-4.715
					c0,0-2.793-10.887-5.533-18.883c0,0-4.553,1.08-6.409-2.515c-1.855-3.595-1.739-5.102,0.116-5.566
					c1.855-0.464,4.523,0.116,4.523,0.116l-1.276-8.697l5.219-5.335L282.048,113.478z"/>
				<path style="opacity:0.5;fill:#FFFFFF;" d="M282.048,113.478c1.893,3.135,2.757,6.88,2.427,10.527
					c-0.186,2.058-0.739,4.073-0.85,6.136c-0.178,3.286,0.765,6.518,1.699,9.674c0.613,2.07,1.093,4.806,3.004,5.81
					c0.944,0.496,1.96,0.126,3.168,0.919c0,0.077,0.09,0.316,0.09,0.393c0,2.837,0.529,5.564,0.125,8.372
					c-0.211,1.464-0.593,2.984-1.61,4.058l-6.404-4.715c0,0-2.793-10.887-5.533-18.883c0,0-4.553,1.08-6.409-2.515
					c-1.855-3.595-1.739-5.102,0.116-5.566c1.855-0.464,4.523,0.116,4.523,0.116l-1.276-8.697l5.219-5.335L282.048,113.478z"/>
			</g>
			<path style="fill:#263238;" d="M275.502,129.898l2.08-1.233c0,0-1.814-3.578,0.337-5.268c2.15-1.69,4.147-3.84,2.611-8.756
				c0,0,3.072-1.536,7.988-0.307s17.347,2.559,22.723-3.124c5.376-5.684,5.848-7.936,3.698-11.776
				c-2.15-3.84-6.144,1.69-12.596-1.075c-6.452-2.765-11.367-5.069-22.273,1.997c-10.906,7.066-12.596,13.364-10.445,17.665
				C271.775,122.323,273.812,126.058,275.502,129.898z"/>
			<path style="fill:#FFFFFF;" d="M268.192,122.396l1.37-3.132c0,0-2.304-5.837-0.522-12.727c2.194-8.485,11.624-12.727,17.3-13.51
				c5.676-0.783,9.981,1.929,14.287,4.082l7.885,1.603C308.513,98.713,284.396,101.598,268.192,122.396z"/>
			<g>
				<path style="fill:#263238;" d="M296.095,147.652c-3.593,0.001-9.665-1.414-12.339-3.735c-0.03-0.027-0.058-0.057-0.081-0.09
					l-5.741-8.231c-0.156-0.224-0.101-0.531,0.122-0.687c0.222-0.154,0.53-0.102,0.687,0.122l5.705,8.18
					c3.188,2.713,11.147,3.957,13.352,3.273c2.236-0.693,4.887-2.579,5.542-11.081c0.659-8.571-1.553-19.858-1.575-19.971
					c-0.053-0.267,0.121-0.527,0.387-0.58c0.27-0.056,0.528,0.12,0.58,0.388c0.023,0.114,2.261,11.531,1.59,20.239
					c-0.7,9.094-3.698,11.161-6.232,11.947C297.603,147.579,296.913,147.652,296.095,147.652z"/>
			</g>
			<g>
				<path style="fill:#263238;" d="M275.75,136.616c-0.594,0-1.272-0.123-1.989-0.482c-1.356-0.679-2.798-2.625-3.426-4.63
					c-0.28-0.889-0.502-2.15,0.019-3.108c1.214-2.223,4.691-0.7,4.838-0.635c0.249,0.111,0.359,0.403,0.249,0.651
					c-0.111,0.248-0.399,0.361-0.651,0.25c-0.027-0.012-2.802-1.198-3.569,0.206c-0.278,0.509-0.257,1.341,0.056,2.34
					c0.538,1.715,1.823,3.491,2.926,4.042c1.728,0.864,3.151-0.019,3.21-0.057c0.228-0.148,0.534-0.079,0.681,0.149
					c0.147,0.228,0.082,0.532-0.145,0.68C277.896,136.057,277.015,136.616,275.75,136.616z"/>
			</g>
			<g>
				<path style="fill:#263238;" d="M295.831,131.975c-0.23,0-0.437-0.162-0.483-0.397c-0.053-0.268,0.12-0.527,0.387-0.58
					c0.573-0.114,1.104-0.444,1.458-0.907c0.157-0.204,0.307-0.514,0.216-0.713c-0.035-0.075-0.116-0.162-0.201-0.255
					c-0.362-0.395-0.682-0.796-0.973-1.217c-0.219-0.318-0.461-0.701-0.592-1.143c-0.114-0.382-0.136-0.771-0.148-1.104
					c-0.038-1.11,0.024-2.225,0.182-3.316c0.039-0.27,0.292-0.464,0.56-0.417c0.269,0.039,0.456,0.29,0.417,0.559
					c-0.15,1.033-0.208,2.09-0.173,3.14c0.01,0.285,0.026,0.587,0.107,0.857c0.092,0.309,0.274,0.598,0.458,0.864
					c0.264,0.383,0.556,0.748,0.865,1.087c0.142,0.153,0.293,0.317,0.392,0.534c0.233,0.508,0.11,1.152-0.328,1.724
					c-0.498,0.651-1.246,1.116-2.05,1.275C295.896,131.972,295.863,131.975,295.831,131.975z"/>
			</g>
			<g>
				<path style="fill:#263238;" d="M292.787,136.535c-0.338,0-0.654-0.039-0.913-0.071c-0.114-0.014-0.215-0.027-0.3-0.033
					c-1.083-0.077-2.158-0.397-3.106-0.926c-0.238-0.132-0.324-0.433-0.191-0.671c0.131-0.239,0.434-0.323,0.671-0.19
					c0.824,0.459,1.756,0.737,2.696,0.803c0.1,0.007,0.219,0.021,0.352,0.038c0.484,0.06,1.146,0.142,1.618-0.095
					c0.244-0.12,0.54-0.024,0.662,0.221c0.122,0.244,0.023,0.54-0.221,0.662C293.648,136.476,293.201,136.535,292.787,136.535z"/>
			</g>
			<g>
				<path style="fill:#263238;" d="M285.729,120.794c-0.09,0-0.18-0.024-0.261-0.075c-0.231-0.145-0.302-0.449-0.157-0.68
					c0.448-0.716,0.955-1.528,1.669-2.148c1.109-0.962,2.631-1.375,4.076-1.106c0.268,0.05,0.444,0.308,0.394,0.576
					c-0.05,0.268-0.315,0.438-0.575,0.395c-1.133-0.214-2.378,0.126-3.247,0.881c-0.603,0.523-1.048,1.237-1.48,1.926
					C286.054,120.712,285.893,120.794,285.729,120.794z"/>
			</g>
			<g>
				<path style="fill:#263238;" d="M301.655,120.179c-0.234,0-0.442-0.168-0.485-0.408c-0.032-0.179-0.125-0.353-0.257-0.478
					c-0.145-0.138-0.35-0.237-0.55-0.324c-0.62-0.268-2.196-0.816-3.447-0.09c-0.235,0.136-0.538,0.057-0.675-0.179
					c-0.137-0.236-0.056-0.538,0.179-0.675c1.155-0.669,2.735-0.655,4.335,0.038c0.27,0.117,0.581,0.27,0.839,0.514
					c0.285,0.271,0.48,0.634,0.548,1.022c0.047,0.268-0.132,0.524-0.4,0.572C301.713,120.177,301.684,120.179,301.655,120.179z"/>
			</g>
			<path style="fill:#263238;" d="M290.62,124.339c0.07,0.74-0.173,1.367-0.542,1.402c-0.37,0.035-0.726-0.536-0.797-1.275
				c-0.07-0.739,0.173-1.367,0.542-1.402C290.193,123.028,290.55,123.599,290.62,124.339z"/>
			<path style="fill:#263238;" d="M299.784,123.818c0.07,0.739-0.173,1.367-0.542,1.402c-0.37,0.035-0.726-0.536-0.796-1.275
				c-0.07-0.739,0.173-1.367,0.542-1.402C299.358,122.508,299.714,123.079,299.784,123.818z"/>
			<g>
				<path style="fill:#263238;" d="M300.065,152.721c-0.248,0-0.462-0.187-0.49-0.44c-0.432-3.956-0.296-5.855-0.29-5.934
					c0.021-0.272,0.255-0.48,0.529-0.454c0.272,0.021,0.476,0.257,0.456,0.529c-0.002,0.018-0.134,1.903,0.286,5.753
					c0.03,0.271-0.166,0.515-0.437,0.544C300.102,152.719,300.084,152.721,300.065,152.721z"/>
			</g>
			<g>
				<path style="fill:#263238;" d="M283.618,155.101c-0.246,0-0.459-0.184-0.489-0.434c-0.612-5.07-2.174-9.497-3.828-14.184
					c-0.565-1.601-1.15-3.257-1.7-4.957c-0.084-0.259,0.058-0.538,0.317-0.622c0.265-0.083,0.538,0.058,0.622,0.317
					c0.546,1.688,1.129,3.338,1.692,4.933c1.672,4.739,3.252,9.216,3.876,14.394c0.033,0.271-0.16,0.517-0.431,0.549
					C283.658,155.1,283.638,155.101,283.618,155.101z"/>
			</g>
			<g>
				<path style="fill:#263238;" d="M267.747,124.519c-0.061,0-0.122-0.011-0.181-0.035c-0.227-0.09-0.355-0.332-0.3-0.571
					c3.169-13.627,11.091-22.098,24.22-25.898c7.921-2.291,18.094,0.099,18.521,0.202c0.234,0.056,0.393,0.272,0.378,0.512
					c-0.015,0.24-0.201,0.434-0.44,0.459c-28.691,3.052-41.643,24.865-41.77,25.085
					C268.083,124.429,267.919,124.519,267.747,124.519z M299.374,98.024c-2.529,0-5.2,0.24-7.615,0.939
					c-11.842,3.428-19.325,10.771-22.8,22.409c4.155-5.616,16.315-19.365,37.788-22.758
					C304.831,98.322,302.19,98.024,299.374,98.024z"/>
			</g>
			<g>
				<path style="fill:#263238;" d="M268.759,124.887c-0.724,0-1.105-0.116-1.141-0.127c-0.259-0.083-0.403-0.36-0.32-0.62
					c0.084-0.26,0.362-0.405,0.621-0.319c0.012,0.003,1.806,0.505,5.347-1.056c0.251-0.11,0.541,0.002,0.652,0.252
					c0.11,0.249-0.004,0.541-0.253,0.651C271.389,124.669,269.752,124.887,268.759,124.887z"/>
			</g>
			<g>
				<path style="fill:#263238;" d="M268.966,118.855c-0.05-0.151-4.871-15.218,7-22.522c14.521-8.938,24.811,0.596,24.914,0.694
					l-0.68,0.715c-0.396-0.375-9.856-9.097-23.716-0.569c-11.212,6.9-6.627,21.228-6.58,21.371L268.966,118.855z"/>
			</g>
			<g>
				<path style="fill:#263238;" d="M292.866,169.398c-0.065,0-0.13-0.012-0.192-0.039c-0.433-0.183-10.626-4.493-12.668-6.873
					c-0.123-0.145-0.153-0.347-0.076-0.52l3.314-7.513c0.066-0.151,0.204-0.259,0.367-0.287c0.162-0.029,0.328,0.027,0.442,0.147
					c0.037,0.039,3.732,3.895,8.938,5.276c0.217,0.057,0.367,0.253,0.367,0.477v8.839c0,0.165-0.083,0.32-0.221,0.411
					C293.057,169.37,292.961,169.398,292.866,169.398z M280.965,162.064c1.972,1.908,9.148,5.11,11.407,6.091v-7.714
					c-4.191-1.212-7.32-3.826-8.513-4.938L280.965,162.064z"/>
			</g>
			<g>
				<path style="fill:#263238;" d="M297.768,168.23c-0.022,0-0.044-0.001-0.066-0.004c-0.144-0.02-0.272-0.101-0.349-0.224
					l-4.902-7.671c-0.071-0.11-0.094-0.244-0.066-0.372c0.029-0.128,0.107-0.24,0.218-0.309c0.057-0.037,5.741-3.69,7.083-8.127
					c0.054-0.178,0.203-0.311,0.387-0.343c0.18-0.034,0.368,0.04,0.481,0.19l3.583,4.778c0.087,0.116,0.119,0.266,0.086,0.407
					c-0.072,0.312-1.823,7.689-6.124,11.549C298.006,168.185,297.888,168.23,297.768,168.23z M293.542,160.207l4.32,6.76
					c3.382-3.376,5.03-9.214,5.342-10.416l-2.894-3.859C298.755,156.39,294.834,159.316,293.542,160.207z"/>
			</g>
			<g>
				<path style="fill:#FFFFFF;" d="M282.928,109.187c-0.219,0-0.418-0.146-0.477-0.367c-0.069-0.264,0.088-0.533,0.351-0.603
					c3.597-0.951,7.298-1.322,10.988-1.104c1.082,0.064,2.178,0.18,3.237,0.292c2.388,0.254,4.857,0.514,7.234,0.177
					c3.182-0.451,6.715-2.401,7.435-5.74c0.057-0.267,0.328-0.435,0.586-0.378c0.266,0.057,0.436,0.32,0.378,0.586
					c-0.819,3.803-4.74,6.009-8.26,6.509c-2.499,0.353-5.03,0.086-7.477-0.173c-1.049-0.111-2.132-0.226-3.191-0.289
					c-3.591-0.211-7.183,0.149-10.678,1.073C283.012,109.182,282.97,109.187,282.928,109.187z"/>
			</g>
			<g>
				<path style="fill:#FFFFFF;" d="M290.05,105.458c-0.176,0-0.347-0.095-0.436-0.262c-0.128-0.241-0.037-0.539,0.204-0.667
					c3.026-1.608,6.486-1.897,9.771-2.056l0.272-0.013c1.448-0.069,2.945-0.14,4.325-0.539c1.596-0.462,2.834-1.338,3.488-2.467
					c0.137-0.238,0.441-0.316,0.674-0.18c0.236,0.136,0.317,0.438,0.18,0.674c-0.781,1.35-2.225,2.387-4.068,2.921
					c-1.491,0.431-3.047,0.505-4.552,0.577l-0.271,0.013c-3.174,0.153-6.509,0.429-9.356,1.942
					C290.208,105.439,290.128,105.458,290.05,105.458z"/>
			</g>
		</g>
	</g>
</g>
<g id="Character_1_1_">
	<g id="Character_1">
		<path style="fill:#263238;" d="M116.968,302.333c-3.18,1.272,8.267,20.032,12.083,20.986c3.816,0.954,15.58-28.299,12.401-29.889
			c-3.18-1.59-11.447,22.894-13.037,22.894C126.825,316.323,120.148,301.061,116.968,302.333z"/>
		<g>
			<path style="fill:#C6FF00;" d="M242.474,322.738l-1.93,13.162c0,0,0.764,7.129-12.477,10.193
				c-5.687,1.316-13.989,0.402-21.607-1.071c-10.13-1.953-19.054-4.884-19.054-4.884l2.072-4.38l3.182-6.735l-0.11-0.859
				l-0.276-2.143l-4.206,1.394l-32.855,10.862l-3.387-7.349l27.656-16.967l-0.063-4.553l-5.285-0.22
				c0-2.552,1.717-6.877,1.717-6.877l3.056-0.866c0,0-2.804-29.988-1.78-34.572c1.016-4.584,10.602-10.327,10.602-10.327
				c2.71,6.995,8.413,9.177,8.413,9.177l2.458-6.12l2.363,4.876c6.002-2.655,11.075-12.414,11.075-12.414s13.737,3.6,23.67,18.881
				C245.64,286.228,242.474,322.738,242.474,322.738z"/>
			<path style="opacity:0.2;" d="M216.897,327.165c6.113,6.948-19.362,3.277-20.386,3.127c0.575,0.236,9.643,3.243,10.022,13.932
				c-11.045-1.201-19.127-4.086-19.127-4.086l2.072-4.38l3.072-7.593l-0.276-2.143l-2.548-14.094c0,0,18.729,2.281,34.828,4.744
				l-26.372,1.418C198.181,318.091,210.659,320.076,216.897,327.165z"/>
			<path style="opacity:0.2;" d="M186.907,299.211l23.309-4.071c-0.714-7.462,0.041-15.1,3.393-21.804
				c0.834-1.669,1.957-3.114,3.193-4.41c0.565-0.592,2.765-0.238,2.39,2.746c-0.771,6.126-0.957,5.264-1.914,11.326l-1.949,12.262
				c0,0,12.822-3.227,14.56,7.515c0.1,0.616-0.544,1.089-1.11,0.825c-2.988-1.393-10.426-4.654-13.187-3.957
				c0,0-10.961-0.138-14.696,0.711c-3.735,0.849-13.561,1.044-13.561,1.044L186.907,299.211z"/>
			<polygon style="opacity:0.2;" points="151.823,330.928 155.214,338.276 192.276,326.023 189.789,311.964 179.466,310.578 
				179.413,313.989 			"/>
			<path style="fill:#FFFFFF;" d="M152.98,333.37l-1.783-1.783c0,0-5.751-0.863-8.734,0.396c-2.983,1.259-12.267,4.787-11.255,5.316
				c1.012,0.528,6.346,0.603,6.346,0.603s-11.574,7.057-11.447,7.949c0.127,0.891,11.08,0,12.863-0.382
				c1.783-0.382,15.551-8.175,15.551-8.175L152.98,333.37z"/>
			<path style="fill:#FFFFFF;" d="M174.17,308.029l1.537-4.947c0,0-5.147-5.815-7.888-6.216c-2.741-0.401-6.217,1.003-6.217,1.003
				s-4.88-2.741-5.615-1.404c-0.735,1.337,0.12,4.185,0.12,4.185s-2.193,3.636-0.722,4.973c1.471,1.337,1.537,3.075,1.537,3.075
				S167.619,311.171,174.17,308.029z"/>
			<g>
				<path style="fill:#C6FF00;" d="M155.893,296.962c1.28-1.431,2.269,3.716,3.273,5.352c0.515,0.838,1.044,1.692,1.808,2.311
					c1.384,1.121,3.293,1.287,5.073,1.303c2.736,0.025,5.474-0.192,8.171-0.649l0.618,2.01c0,0-6.189,3.28-17.912,1.408
					c0,0-0.446-1.984-1.532-3.225c-1.086-1.241,0.515-4.233,0.515-4.233S154.74,298.25,155.893,296.962z"/>
				<path style="opacity:0.5;fill:#FFFFFF;" d="M155.893,296.962c1.28-1.431,2.269,3.716,3.273,5.352
					c0.515,0.838,1.044,1.692,1.808,2.311c1.384,1.121,3.293,1.287,5.073,1.303c2.736,0.025,5.474-0.192,8.171-0.649l0.618,2.01
					c0,0-6.189,3.28-17.912,1.408c0,0-0.446-1.984-1.532-3.225c-1.086-1.241,0.515-4.233,0.515-4.233S154.74,298.25,155.893,296.962
					z"/>
			</g>
			<g>
				<path style="fill:#FFFFFF;" d="M152.161,284.958c-2.978,4.232-9.711,4.623-15.037,0.875c-5.327-3.749-6.818-10.211-3.84-14.443
					c2.978-4.232,9.299-4.63,14.625-0.882C153.235,274.257,155.139,280.727,152.161,284.958z"/>
				<g>
					<g>
						<path style="fill:#C6FF00;" d="M135.668,270.267c0,0-0.301,10.227,15.941,13.234c0,0,0.602,4.211-5.113,3.509
							c-5.715-0.702-11.43-5.915-12.633-8.923C132.66,275.08,132.259,271.27,135.668,270.267z"/>
						<path style="opacity:0.4;fill:#FFFFFF;" d="M135.668,270.267c0,0-0.301,10.227,15.941,13.234c0,0,0.602,4.211-5.113,3.509
							c-5.715-0.702-11.43-5.915-12.633-8.923C132.66,275.08,132.259,271.27,135.668,270.267z"/>
					</g>
					<g>
						<g>
							<path style="fill:#263238;" d="M146.582,287.481c-0.216,0-0.436-0.007-0.658-0.02c-2.735-0.166-5.585-1.345-8.025-3.319
								c-2.44-1.974-4.187-4.515-4.92-7.156c-0.749-2.701-0.355-5.185,1.112-6.996c1.467-1.813,3.821-2.715,6.611-2.546
								c2.735,0.166,5.585,1.344,8.024,3.319c2.44,1.974,4.188,4.515,4.92,7.156c0.749,2.699,0.355,5.184-1.112,6.996
								C151.185,286.583,149.089,287.481,146.582,287.481z M140.046,268.41c-2.204,0-4.031,0.77-5.188,2.2l0,0
								c-1.26,1.557-1.59,3.727-0.928,6.111c0.678,2.444,2.308,4.807,4.589,6.653c2.282,1.847,4.933,2.948,7.464,3.101
								c2.476,0.154,4.524-0.625,5.784-2.182c1.26-1.557,1.59-3.728,0.928-6.112c-0.678-2.443-2.308-4.806-4.59-6.652
								c-2.282-1.846-4.932-2.948-7.464-3.101C140.441,268.415,140.242,268.41,140.046,268.41z"/>
						</g>
						<g>
							<path style="fill:#263238;" d="M145.083,289.153c-0.216,0-0.436-0.007-0.658-0.02c-2.735-0.166-5.585-1.344-8.025-3.319
								c-2.44-1.974-4.187-4.515-4.919-7.156c-0.749-2.701-0.355-5.185,1.112-6.997l0,0c2.984-3.688,9.55-3.342,14.635,0.773
								c5.085,4.115,6.794,10.465,3.808,14.153C149.686,288.255,147.589,289.153,145.083,289.153z M133.359,272.281
								c-1.26,1.557-1.59,3.728-0.928,6.112c0.678,2.444,2.308,4.807,4.59,6.653c2.282,1.847,4.933,2.948,7.464,3.102
								c2.477,0.153,4.524-0.625,5.784-2.182c2.643-3.266,1-8.992-3.662-12.765C141.944,269.427,136.001,269.016,133.359,272.281
								L133.359,272.281z"/>
						</g>
						<path style="fill:#263238;" d="M164.163,299.153l-7.516-2.179l-7.948-9.003c0.019-0.058,0.048-0.115,0.077-0.173
							c0.298-0.71,0.682-1.161,1.046-1.449c0.288-0.211,0.557-0.336,0.768-0.403c0.153-0.048,0.278-0.067,0.355-0.067
							c0.048-0.009,0.077-0.009,0.077-0.009L164.163,299.153z"/>
					</g>
				</g>
			</g>
			<g>
				<path style="fill:#263238;" d="M155.214,338.769c-0.188,0-0.365-0.108-0.448-0.286l-3.391-7.348
					c-0.105-0.227-0.023-0.497,0.19-0.627l27.349-16.79l-0.07-3.046c-0.006-0.273,0.21-0.498,0.482-0.505
					c0.306,0.006,0.498,0.211,0.505,0.482l0.076,3.329c0.004,0.175-0.086,0.34-0.235,0.432l-27.217,16.709l3.023,6.55l36.644-12.114
					c0.258-0.089,0.538,0.055,0.623,0.313c0.086,0.259-0.055,0.538-0.314,0.624l-37.062,12.252
					C155.317,338.761,155.265,338.769,155.214,338.769z"/>
			</g>
			<g>
				<path style="fill:#263238;" d="M178.775,302.032c-0.259,0-0.477-0.202-0.492-0.465l-1.947-33.753
					c-0.004-0.076,0.009-0.152,0.039-0.223c2.136-4.985,5.83-9.058,10.98-12.107c0.236-0.137,0.538-0.06,0.676,0.174
					c0.139,0.234,0.061,0.538-0.173,0.677c-4.929,2.917-8.471,6.799-10.53,11.54l1.941,33.637c0.016,0.272-0.192,0.505-0.464,0.52
					C178.794,302.032,178.785,302.032,178.775,302.032z"/>
			</g>
			<g>
				<path style="fill:#263238;" d="M239.367,343.317c-0.025,0-0.051-0.002-0.076-0.006c-0.27-0.041-0.454-0.294-0.412-0.563
					l3.109-20.087c0.006-0.269,1.023-32.817-3.827-45.528c-5.309-13.914-19.939-21.727-25.982-24.44
					c-0.249-0.112-0.359-0.404-0.248-0.652c0.111-0.249,0.404-0.361,0.652-0.248c6.155,2.763,21.059,10.731,26.499,24.988
					c4.921,12.897,3.931,44.628,3.887,45.972l-3.115,20.146C239.816,343.142,239.606,343.317,239.367,343.317z"/>
			</g>
			<g>
				<path style="fill:#263238;" d="M187.336,301.891c-0.234,0-0.441-0.166-0.485-0.404l-3.972-21.557
					c-0.05-0.268,0.128-0.525,0.396-0.575c0.275-0.04,0.526,0.128,0.575,0.396l3.972,21.557c0.05,0.268-0.128,0.525-0.396,0.575
					C187.396,301.888,187.365,301.891,187.336,301.891z"/>
			</g>
			<g>
				<path style="fill:#263238;" d="M202.738,336.784c-0.129,0-0.257-0.05-0.354-0.149c-2.032-2.089-4.731-3.516-7.601-4.02
					c-0.268-0.047-0.448-0.303-0.401-0.572c0.048-0.268,0.303-0.456,0.572-0.4c3.073,0.539,5.962,2.067,8.138,4.303
					c0.19,0.196,0.186,0.508-0.01,0.698C202.986,336.738,202.862,336.784,202.738,336.784z"/>
			</g>
			<g>
				<path style="fill:#263238;" d="M215.593,300.136c-0.271,0-0.492-0.219-0.493-0.491c0-0.071-0.014-7.268,2.62-19.909
					c0.626-3.006,1.411-5.535,2.333-7.517c0.115-0.248,0.41-0.357,0.655-0.239c0.247,0.115,0.355,0.409,0.239,0.655
					c-0.891,1.913-1.651,4.37-2.262,7.302c-2.609,12.526-2.599,19.632-2.599,19.702c0.002,0.273-0.218,0.494-0.491,0.496
					C215.595,300.136,215.594,300.136,215.593,300.136z"/>
			</g>
			<g>
				<path style="fill:#263238;" d="M228.516,317.098c-9.087,0.001-46.358-6.026-54.451-7.354c-0.239-0.039-0.413-0.245-0.413-0.487
					c0-5.218,2.182-7.168,2.275-7.249c0.075-0.065,0.168-0.106,0.266-0.118c4.376-0.514,8.291-0.738,12.078-0.956
					c3.769-0.217,7.667-0.44,12.01-0.95c8.194-0.962,18.39-2.158,26.885,2.013c0.245,0.12,0.345,0.416,0.225,0.661
					c-0.12,0.245-0.414,0.345-0.661,0.225c-8.231-4.046-18.269-2.868-26.335-1.919c-4.372,0.513-8.284,0.737-12.067,0.954
					c-3.723,0.214-7.571,0.436-11.849,0.932c-0.375,0.411-1.741,2.169-1.835,5.988c21.272,3.48,53.229,8.219,55.234,7.199
					c1.607-1.072,5.765-19.578,8.007-30.99c0.052-0.268,0.309-0.446,0.579-0.388c0.267,0.052,0.441,0.311,0.388,0.579
					c-0.981,4.996-6,30.001-8.436,31.625C230.175,317.025,229.516,317.098,228.516,317.098z"/>
			</g>
			<g>
				<path style="fill:#263238;" d="M175.519,303.282c-0.122,0-0.244-0.044-0.339-0.135c-2.379-2.251-6.142-5.481-7.058-5.612
					c-1.157-0.172-4.882,0.316-6.218,0.517c-0.27,0.045-0.52-0.145-0.561-0.414c-0.04-0.27,0.146-0.521,0.415-0.561
					c0.202-0.031,4.963-0.736,6.503-0.519c1.56,0.223,6.602,4.931,7.597,5.872c0.198,0.187,0.206,0.5,0.019,0.698
					C175.78,303.23,175.65,303.282,175.519,303.282z"/>
			</g>
			<g>
				<path style="fill:#263238;" d="M164.011,309.954c-3.685,0.001-6.847-0.309-7.103-0.335c-0.251-0.025-0.442-0.237-0.444-0.489
					c0-0.017-0.026-1.675-1.277-2.568c-1.586-1.133-0.19-4.65,0.352-5.855c-0.331-0.523-0.829-1.757-0.107-3.825
					c0.144-0.411,0.437-0.708,0.849-0.86c1.582-0.587,4.858,1.125,7.854,2.873c0.281,0.165,0.496,0.292,0.621,0.358
					c0.123,0.018,0.24,0.084,0.321,0.191c0.141,0.188,0.136,0.466-0.02,0.642c-0.286,0.322-0.46,0.222-1.42-0.338
					c-1.399-0.816-5.656-3.3-7.015-2.801c-0.135,0.05-0.213,0.128-0.259,0.26c-0.754,2.162,0.062,3.057,0.097,3.095
					c0.14,0.147,0.182,0.374,0.095,0.558c-0.783,1.645-1.576,4.34-0.795,4.898c1.219,0.87,1.559,2.216,1.654,2.915
					c2.159,0.185,12.297,0.922,16.311-1.083c0.243-0.122,0.54-0.022,0.662,0.221c0.122,0.244,0.023,0.541-0.221,0.662
					C171.811,309.652,167.655,309.954,164.011,309.954z"/>
			</g>
			<g>
				<path style="fill:#263238;" d="M216.401,278.122c-0.249,0-0.464-0.189-0.49-0.442c-0.241-2.305-0.247-4.644-0.016-6.955
					c0.027-0.271,0.274-0.469,0.54-0.441c0.271,0.027,0.469,0.269,0.441,0.54c-0.224,2.243-0.219,4.515,0.015,6.754
					c0.029,0.271-0.169,0.514-0.439,0.542C216.436,278.121,216.419,278.122,216.401,278.122z"/>
			</g>
			<g>
				<path style="fill:#263238;" d="M186.99,318.178c-0.062,0-0.124-0.011-0.184-0.036l-7.86-3.162
					c-0.253-0.102-0.375-0.389-0.274-0.642c0.102-0.253,0.391-0.373,0.642-0.274l7.86,3.162c0.253,0.102,0.375,0.389,0.274,0.642
					C187.37,318.061,187.186,318.178,186.99,318.178z"/>
			</g>
			<g>
				<path style="fill:#263238;" d="M219.476,298.585c-0.264,0-0.483-0.209-0.493-0.475c-0.01-0.272,0.202-0.501,0.475-0.512
					c2.008-0.076,3.997-0.429,5.908-1.049c0.257-0.085,0.538,0.059,0.622,0.317c0.084,0.259-0.058,0.538-0.317,0.622
					c-1.998,0.649-4.076,1.018-6.176,1.098C219.488,298.585,219.481,298.585,219.476,298.585z"/>
			</g>
			<g>
				<path style="fill:#263238;" d="M187.824,340.332c-0.062,0-0.125-0.012-0.186-0.037c-0.253-0.102-0.374-0.389-0.272-0.642
					l4.782-11.81l-2.912-15.974c-0.049-0.268,0.129-0.525,0.397-0.574c0.269-0.041,0.525,0.129,0.574,0.397l2.938,16.116
					c0.017,0.094,0.007,0.189-0.029,0.277l-0.11,0.268l-4.725,11.67C188.203,340.216,188.018,340.332,187.824,340.332z"/>
			</g>
			<g>
				<path style="fill:#263238;" d="M206.992,329.499c-0.035,0-0.07-0.004-0.105-0.012c-3.14-0.682-6.36-1.041-9.573-1.065
					c-1.745-0.02-3.258,0.078-4.62,0.281c-0.266,0.045-0.52-0.145-0.561-0.415c-0.04-0.269,0.146-0.521,0.415-0.56
					c1.414-0.211,2.971-0.306,4.774-0.292c3.28,0.024,6.569,0.39,9.775,1.088c0.266,0.058,0.435,0.321,0.377,0.587
					C207.423,329.341,207.219,329.499,206.992,329.499z"/>
			</g>
			<g>
				<path style="fill:#263238;" d="M129.117,347.159c-1.342,0-2.403-0.083-2.901-0.242c-0.112-0.037-0.453-0.145-0.567-0.461
					c-0.144-0.4-0.381-1.055,10.009-7.901c-1.889,0.108-4.169,0.077-4.758-0.62c-0.185-0.219-0.244-0.492-0.166-0.769
					c0.251-0.892,2.093-1.687,6.236-3.285c2.131-0.821,4.335-1.671,5.205-2.299c3.147-2.267,10.14,0.187,10.436,0.292
					c0.257,0.091,0.391,0.373,0.3,0.63c-0.092,0.255-0.375,0.393-0.63,0.299c-0.068-0.023-6.802-2.384-9.528-0.42
					c-0.974,0.702-3.137,1.535-5.427,2.419c-2.038,0.785-5.068,1.954-5.586,2.554c0.589,0.31,3.117,0.339,5.763,0.055
					c0.218-0.025,0.44,0.11,0.518,0.325c0.077,0.215-0.004,0.455-0.196,0.579c-4.684,3.052-9.696,6.541-10.964,7.749
					c2.143,0.363,10.72-0.06,13.183-1.772c4.269-2.964,13.91-7.185,14.318-7.363c0.253-0.109,0.541,0.006,0.65,0.254
					c0.109,0.25-0.005,0.541-0.254,0.65c-0.099,0.043-9.962,4.362-14.151,7.271C138.549,346.532,132.786,347.159,129.117,347.159z"
					/>
			</g>
			<g>
				<path style="fill:#263238;" d="M131.84,347.059c-0.166,0-0.328-0.084-0.421-0.235c-0.143-0.232-0.07-0.536,0.162-0.678
					l7.66-4.701c0.231-0.146,0.535-0.07,0.679,0.162c0.143,0.232,0.07,0.536-0.162,0.678l-7.66,4.701
					C132.018,347.036,131.929,347.059,131.84,347.059z"/>
			</g>
			<path style="opacity:0.2;" d="M176.828,267.785c0,0,5.22,6.38,6.691,13.735c1.471,7.355,3.817,19.878,3.817,19.878l-8.144,0.597
				L176.828,267.785z"/>
		</g>
		<g>
			<g>
				<path style="fill:#FFFFFF;" d="M214.762,413.081c0,0-13.584,13.754-15.282,16.471c-1.698,2.717-3.632,4.343-0.406,5.871
					c3.226,1.528,12.941,0.482,15.357-0.439c3.137-1.195,12.387-13.243,12.387-13.243l-1.189-10.188L214.762,413.081z"/>
				<g>
					<path style="fill:#263238;" d="M204.559,437.08c-4.686,0-7.395-1.24-7.939-3.686c-0.767-3.45,14.843-17.405,16.625-18.984
						l0.201-0.178l0.258,0.072c0.395,0.11,0.788,0.228,1.191,0.35c2.536,0.765,5.41,1.636,11.659,1.188l0.493-0.035l0.034,0.494
						c0.158,2.347,0.444,3.952,0.447,3.968l0.028,0.156l-0.068,0.143c-0.276,0.582-6.848,14.264-15.483,15.764
						C209.142,436.833,206.653,437.08,204.559,437.08z M213.699,415.328c-7.032,6.254-16.567,15.815-16.114,17.853
						c0.633,2.852,5.829,3.645,14.253,2.181c7.691-1.338,13.979-13.631,14.694-15.077c-0.071-0.43-0.263-1.68-0.398-3.424
						c-6.092,0.372-8.972-0.493-11.521-1.262C214.303,415.506,214.001,415.415,213.699,415.328z"/>
				</g>
				<g>
					<path style="fill:#263238;" d="M207.893,434.386c-4.066,0-7.872-1.407-10.131-2.447c-0.087-0.04-0.146-0.068-0.176-0.08
						l0.324-0.932c0.032,0.011,0.122,0.05,0.265,0.116c2.99,1.376,8.8,3.428,14.111,1.69c4.911-1.608,13.625-15.866,13.713-16.009
						l0.842,0.513c-0.364,0.6-8.994,14.714-14.248,16.435C211.037,434.18,209.446,434.386,207.893,434.386z"/>
				</g>
			</g>
			<g>
				<path style="fill:#263238;" d="M209.819,393.952c0,0-34.546,27.986-48.756,27.986c0,0-7.73-2.762-10.572-13.775
					c-2.842-11.013,7.816-27,7.816-27l28.564-38.098l1.873-2.56c0,0,29.411,10.693,48.868-3.989c0,0,2.049,24.042-2.925,33.989
					C229.714,380.452,209.819,393.952,209.819,393.952z"/>
				<g>
					<path style="fill:#263238;" d="M161.734,421.128c-0.352,0-0.66-0.033-0.922-0.102c-5.66-1.487-10.255-10.128-11.058-15.67
						c-0.793-5.469,5.493-22.108,13.008-31.628c7.656-9.698,24.539-31.396,24.708-31.614l0.779,0.605
						c-0.17,0.219-17.054,21.918-24.712,31.619c-7.919,10.032-13.5,26.101-12.807,30.876c0.746,5.146,5.142,13.493,10.332,14.856
						c0.208,0.054,0.456,0.081,0.74,0.081c6.666,0.002,33.584-14.622,43.777-25.024l0.705,0.69
						C196.461,405.844,169.26,421.126,161.734,421.128z"/>
				</g>
				<g>
					<path style="fill:#FFFFFF;" d="M175.927,395.31c-0.136,0-0.273-0.057-0.37-0.167c-0.18-0.204-0.161-0.517,0.044-0.697
						l34.06-30.031c-1.258-4.024-3.476-8.295-6.267-12.063c-0.162-0.219-0.116-0.528,0.103-0.69c0.22-0.162,0.528-0.116,0.691,0.102
						c2.927,3.951,5.24,8.45,6.511,12.668c0.056,0.185-0.001,0.385-0.146,0.513l-34.299,30.241
						C176.159,395.27,176.043,395.31,175.927,395.31z"/>
				</g>
				<path style="fill:#263238;" d="M228.092,406.086c1.844-7.007,14.257-46.432,14.383-53.477
					c0.136-7.616-5.532-24.71-12.539-29.504c-7.007-4.795-16.195,1.12-18.071,5.532c-3.372,7.929,0.738,86.669,0.738,86.669
					s-0.265,0.231-0.728,0.641c2.88,0.801,8.06,1.756,15.396,1.236C227.068,414.19,227.07,409.971,228.092,406.086z"/>
				<g>
					<path style="fill:#FFFFFF;" d="M211.84,383.154c-0.252,0-0.466-0.192-0.491-0.448c-0.175-1.9-4.246-46.651,0.003-55.531
						c0.117-0.246,0.412-0.35,0.658-0.232c0.246,0.117,0.35,0.413,0.232,0.658c-4.133,8.636,0.047,54.551,0.09,55.014
						c0.025,0.272-0.174,0.512-0.446,0.537C211.871,383.152,211.855,383.154,211.84,383.154z"/>
				</g>
				<g>
					<path style="fill:#FFFFFF;" d="M242.833,354.535c-0.007,0-0.014,0-0.02,0c-0.273-0.011-0.484-0.242-0.473-0.514
						c0.133-3.167-0.889-7.358-1.379-9.373l-0.12-0.492c-0.064-0.265,0.1-0.531,0.365-0.595c0.269-0.068,0.532,0.101,0.595,0.365
						l0.118,0.489c0.501,2.058,1.545,6.341,1.407,9.646C243.315,354.328,243.096,354.535,242.833,354.535z"/>
				</g>
				<g>
					<path style="fill:#FFFFFF;" d="M240.259,340.794c-0.207,0-0.4-0.132-0.468-0.339c-2.644-8.036-5.973-13.306-6.006-13.358
						c-0.146-0.229-0.079-0.535,0.151-0.681c0.228-0.145,0.534-0.079,0.681,0.151c0.034,0.053,3.425,5.418,6.11,13.579
						c0.086,0.259-0.055,0.538-0.314,0.623C240.362,340.786,240.31,340.794,240.259,340.794z"/>
				</g>
			</g>
		</g>
		<g>
			<path style="fill:#FFFFFF;" d="M207.608,249.263l4.432,2.807c0,0-5.344,8.978-11.079,12.409l-2.326-4.426l-2.493,5.672
				l-5.563-4.788l-2.914-4.887l0.741-3.409c0,0-4.892-4.744-8.153-14.527s-3.54-15.226-3.54-15.226s15.103-8.492,18.512-6.268
				c3.409,2.224,8.153,8.005,8.153,8.005l5.337-0.889c0,0,3.405,9.899-1.339,11.826L207.608,249.263z"/>
			<g>
				<path style="fill:#C6FF00;" d="M195.231,220.205c-2.645-0.756-5.451,0.661-7.482,2.517c-2.031,1.856-3.62,4.18-5.798,5.86
					c1.882,6.078,4.184,12.027,6.884,17.788c0.721,1.538,1.516,3.12,2.868,4.146c2.232,1.694,5.491,1.413,7.947,0.064
					c2.456-1.349,4.333-2.804,6.106-4.974c0,0-4.161,14.213-7.16,13.996l-5.569-4.187c0,0-3.97-2.336-6.072-4.204
					c-2.102-1.868-6.423-12.962-7.59-15.882l-3.153-12.028l16.232-6.656L195.231,220.205z"/>
				<path style="opacity:0.5;fill:#FFFFFF;" d="M195.231,220.205c-2.645-0.756-5.451,0.661-7.482,2.517
					c-2.031,1.856-3.62,4.18-5.798,5.86c1.882,6.078,4.184,12.027,6.884,17.788c0.721,1.538,1.516,3.12,2.868,4.146
					c2.232,1.694,5.491,1.413,7.947,0.064c2.456-1.349,4.333-2.804,6.106-4.974c0,0-4.161,14.213-7.16,13.996l-5.569-4.187
					c0,0-3.97-2.336-6.072-4.204c-2.102-1.868-6.423-12.962-7.59-15.882l-3.153-12.028l16.232-6.656L195.231,220.205z"/>
			</g>
			<g>
				<g>
					<path style="fill:#263238;" d="M205.773,236.302c-0.502,0-1.029-0.083-1.579-0.251c-0.261-0.08-0.408-0.356-0.329-0.616
						c0.08-0.26,0.356-0.408,0.616-0.329c1.05,0.32,1.974,0.269,2.75-0.151c0.939-0.509,1.668-1.581,2.109-3.1
						c0.634-2.182,0.301-5.234-0.714-6.532c-0.334-0.427-0.71-0.634-1.119-0.61c-1.614,0.063-2.843,3.753-3.146,5.041
						c-0.063,0.265-0.331,0.433-0.593,0.367c-0.266-0.062-0.43-0.328-0.368-0.593c0.137-0.583,1.414-5.697,4.069-5.802
						c0.738-0.024,1.408,0.314,1.936,0.99c1.222,1.561,1.618,4.888,0.885,7.414c-0.516,1.778-1.411,3.054-2.587,3.691
						C207.111,236.143,206.467,236.302,205.773,236.302z"/>
				</g>
				<g>
					<path style="fill:#263238;" d="M191.906,245.665c-0.14,0-0.282-0.003-0.428-0.009c-0.272-0.012-0.483-0.242-0.472-0.515
						c0.012-0.272,0.248-0.473,0.514-0.472c3.785,0.164,4.929-2.124,4.94-2.147c0.117-0.246,0.412-0.351,0.658-0.233
						c0.246,0.117,0.351,0.411,0.234,0.657C197.297,243.061,196.01,245.665,191.906,245.665z"/>
				</g>
				<g>
					<path style="fill:#263238;" d="M189.95,242c-0.96,0-1.919-0.271-2.733-0.787c-0.244-0.153-0.591-0.404-0.786-0.792
						c-0.296-0.587-0.142-1.231-0.029-1.701c0.324-1.348,0.605-2.792,0.47-4.215c-0.14-1.483-0.761-2.771-1.704-3.534
						c-0.212-0.171-0.245-0.482-0.073-0.694c0.171-0.212,0.481-0.246,0.694-0.073c1.148,0.929,1.902,2.462,2.066,4.209
						c0.148,1.566-0.149,3.106-0.493,4.537c-0.081,0.339-0.183,0.762-0.05,1.026c0.086,0.171,0.288,0.311,0.433,0.403
						c0.883,0.56,1.978,0.763,2.998,0.556c0.267-0.054,0.527,0.119,0.581,0.386c0.053,0.267-0.119,0.527-0.387,0.581
						C190.612,241.969,190.281,242,189.95,242z"/>
				</g>
				<g>
					<path style="fill:#263238;" d="M195.881,228.406c-0.095,0-0.191-0.028-0.277-0.085c-1.761-1.194-4.042-1.581-6.102-1.038
						c-0.264,0.073-0.534-0.088-0.603-0.351c-0.07-0.263,0.087-0.534,0.351-0.603c2.33-0.618,4.912-0.178,6.908,1.175
						c0.226,0.153,0.284,0.46,0.132,0.685C196.194,228.33,196.039,228.406,195.881,228.406z"/>
				</g>
				<g>
					<path style="fill:#263238;" d="M178.454,231.753c-0.085,0-0.171-0.022-0.25-0.068c-0.235-0.138-0.313-0.44-0.174-0.676
						c0.578-0.981,1.544-1.693,2.653-1.953c1.109-0.264,2.292-0.052,3.246,0.57c0.228,0.149,0.293,0.455,0.143,0.683
						c-0.148,0.228-0.453,0.292-0.683,0.144c-0.718-0.468-1.645-0.629-2.481-0.437c-0.835,0.197-1.593,0.755-2.028,1.494
						C178.788,231.666,178.623,231.753,178.454,231.753z"/>
				</g>
				<path style="fill:#263238;" d="M191.783,232.805c0.256,0.735,0.802,1.214,1.219,1.068c0.417-0.145,0.548-0.859,0.292-1.595
					c-0.256-0.735-0.802-1.214-1.219-1.068C191.658,231.356,191.527,232.07,191.783,232.805z"/>
				<path style="fill:#263238;" d="M183.118,235.242c0.26,0.746,0.813,1.231,1.237,1.083c0.423-0.147,0.556-0.872,0.296-1.617
					c-0.26-0.746-0.814-1.231-1.237-1.084C182.99,233.772,182.858,234.496,183.118,235.242z"/>
				<g>
					<path style="fill:#263238;" d="M193.162,255.031c-2.658,0-6.078-1.4-10.065-8.984c-4.276-8.134-6.978-21.32-7.005-21.452
						c-0.054-0.267,0.118-0.528,0.386-0.582c0.269-0.054,0.528,0.119,0.582,0.385c0.026,0.131,2.701,13.181,6.911,21.189
						c4.182,7.955,7.54,8.669,9.997,8.411c2.423-0.259,9.6-4.781,11.556-8.736l1.617-9.512c0.046-0.269,0.301-0.45,0.57-0.404
						c0.269,0.046,0.449,0.301,0.404,0.57l-1.629,9.582c-0.008,0.045-0.022,0.09-0.042,0.131c-1.981,4.114-9.469,9.041-12.37,9.351
						C193.78,255.011,193.476,255.031,193.162,255.031z"/>
				</g>
			</g>
			<g>
				<path style="fill:#263238;" d="M207.34,249.851c-0.252,0-0.467-0.192-0.491-0.448c-0.423-4.569-0.272-9.761,0.402-13.889
					c0.044-0.269,0.294-0.457,0.567-0.407c0.269,0.043,0.451,0.298,0.408,0.567c-0.663,4.05-0.81,9.148-0.394,13.638
					c0.025,0.271-0.174,0.512-0.446,0.537C207.37,249.85,207.355,249.851,207.34,249.851z"/>
			</g>
			<g>
				<path style="fill:#263238;" d="M200.741,265.157l-2.767-5.709l0.333-0.243c3.729-2.726,8.843-10.147,8.895-10.222l0.269-0.392
					l5.175,3.277l-0.145,0.378c-3.131,8.203-10.975,12.49-11.307,12.668L200.741,265.157z M199.218,259.752l1.954,4.031
					c1.67-1.015,7.599-4.98,10.259-11.516l-3.688-2.335C206.651,251.482,202.565,257.135,199.218,259.752z"/>
			</g>
			<g>
				<path style="fill:#263238;" d="M196.386,266.44l-0.494-0.289c-0.262-0.153-6.444-3.822-8.622-9.423l-0.04-0.103l0.313-4.545
					l0.985,0.067l-0.299,4.324c1.742,4.35,6.193,7.548,7.674,8.52l2.045-5.097c-1.006-0.425-3.328-1.712-6.056-5.268l0.784-0.601
					c3.343,4.36,6.015,5.092,6.041,5.1l0.543,0.141L196.386,266.44z"/>
			</g>
			<path style="fill:#263238;" d="M204.114,229.182c-0.279,0.891-1.704,0.764-2.555,1.146c-0.005-2.121,0.015-4.102-1.415-5.824
				c-0.833-1.003-3.296-0.408-4.44-1.233c-1.042-0.751-0.693-2.146-1.373-2.793c-0.962-0.916-4.753-0.412-5.874-0.042
				c-1.497,0.493-2.732,1.542-4.064,2.384c-3.153,1.993-8.208,3.55-11.829,1.975c-4.468-1.943-4.252-9.185,0.511-10.542
				c2.939-0.838,6.523-0.334,9.226-1.893c3.321-1.916,16.401-12.529,24.191-3.461c7.791,9.068,3.545,19.019,3.545,19.019
				S207.429,218.6,204.114,229.182z"/>
			<g>
				<path style="fill:#FFFFFF;" d="M172.12,224.438c-0.259,0-0.476-0.201-0.492-0.464c-0.017-0.272,0.19-0.506,0.462-0.522
					c3.533-0.217,6.593-2.401,9.552-4.512c1.001-0.714,2.036-1.452,3.079-2.109c1.887-1.187,3.911-2.162,6.016-2.895
					c1.996-0.696,3.654-1.021,5.214-1.021c0.006,0,0.013,0,0.019,0c4.295,0.009,8.445,2.784,10.093,6.748
					c0.104,0.253-0.015,0.541-0.267,0.646c-0.249,0.103-0.54-0.015-0.645-0.266c-1.499-3.607-5.276-6.132-9.183-6.141
					c-1.446-0.042-3.01,0.304-4.907,0.965c-2.035,0.71-3.991,1.652-5.815,2.799c-1.018,0.641-2.041,1.371-3.031,2.077
					c-3.073,2.193-6.251,4.46-10.065,4.695C172.14,224.438,172.13,224.438,172.12,224.438z"/>
			</g>
			<g>
				<path style="fill:#FFFFFF;" d="M177.13,217.754c-0.565,0-1.132-0.067-1.7-0.217c-0.264-0.069-0.421-0.339-0.351-0.603
					c0.07-0.263,0.343-0.422,0.603-0.351c2.743,0.725,5.641-0.857,8.198-2.252c3.47-1.891,7.516-3.807,11.812-3.997
					c4.706-0.215,8.995,1.892,10.93,5.35c0.133,0.238,0.048,0.539-0.19,0.672c-0.237,0.132-0.539,0.048-0.672-0.19
					c-1.755-3.136-5.68-5.04-10.025-4.847c-4.094,0.182-8.013,2.041-11.305,3.837C182.142,216.403,179.664,217.754,177.13,217.754z"
					/>
			</g>
		</g>
	</g>
</g>
</svg>
