<?xml version="1.0" encoding="utf-8"?>
<!-- Generator: Adobe Illustrator 27.5.0, SVG Export Plug-In . SVG Version: 6.00 Build 0)  -->
<svg version="1.1" xmlns="http://www.w3.org/2000/svg" xmlns:xlink="http://www.w3.org/1999/xlink" x="0px" y="0px"
	 viewBox="0 0 500 500" style="enable-background:new 0 0 500 500;" xml:space="preserve">
<g id="BACKGROUND">
	<rect y="0" style="fill:#FAEEE6;" width="500" height="500"/>
	<path style="fill:#FAE2DB;" d="M315.292,41.525c-36.887-0.232-73.547,7.591-105.286,24.853
		c-26.983,14.674-51.257,38.572-52.876,67.529c-2.476,44.301,44.514,77.307,85.68,89.017c44.599,12.686,94.148,8.5,138.396-3.384
		c22.564-6.06,44.904-14.442,62.782-28.566c17.879-14.124,30.874-34.734,30.668-56.506c-0.187-19.767-11.231-38.552-26.77-52.094
		c-15.538-13.542-35.242-22.332-55.438-28.688C367.733,45.908,341.456,41.69,315.292,41.525z"/>
	<path style="fill:#FAE2DB;" d="M174.589,454.876c32.801,0.228,66.033-4.227,94.258-19.411
		c32.509-17.489,56.616-51.975,51.081-86.59c-4.392-27.469-26.555-50.506-53.14-63.025c-26.585-12.519-57.119-15.793-86.901-15.613
		c-25.8,0.156-51.867,2.814-76.088,11.104c-45.968,15.733-93.437,60.952-72.451,109.839c9.515,22.166,30.25,39.028,53.586,48.853
		c23.336,9.824,49.197,13.251,74.77,14.438C164.643,454.699,169.611,454.842,174.589,454.876z"/>
</g>
<g id="OBJECTS">
	<g>
		<g>
			<g>
				<path style="fill:#B5CADD;" d="M313.615,325.125h-65.416c-1.973,0-3.573-1.6-3.573-3.573v-44.404h72.562v44.404
					C317.188,323.526,315.589,325.125,313.615,325.125z"/>
			</g>
			<path style="fill:#B5CADD;" d="M317.191,277.144l-33.041,33.603c-1.263,1.284-3.334,1.316-4.64,0.054l-34.887-33.656
				l33.041-33.592c1.263-1.284,3.334-1.316,4.64-0.054L317.191,277.144z"/>
			<g>
				<polygon style="fill:#FFFFFF;" points="305.672,254.265 256.143,254.265 256.143,288.128 281.762,313.002 305.672,288.128 				
					"/>
				<g>
					<g>
						<path style="fill:#B5CADD;" d="M299.777,262.586h-39.085c-0.415,0-0.752-0.336-0.752-0.752l0,0
							c0-0.415,0.337-0.752,0.752-0.752h39.085c0.415,0,0.752,0.337,0.752,0.752l0,0
							C300.529,262.25,300.192,262.586,299.777,262.586z"/>
						<path style="fill:#B5CADD;" d="M279.483,266.226h-18.791c-0.415,0-0.752-0.336-0.752-0.752l0,0
							c0-0.415,0.337-0.752,0.752-0.752h18.791c0.415,0,0.751,0.337,0.751,0.752l0,0
							C280.234,265.889,279.898,266.226,279.483,266.226z"/>
					</g>
					<g>
						<path style="fill:#B5CADD;" d="M299.777,274.612h-39.085c-0.415,0-0.752-0.337-0.752-0.752l0,0
							c0-0.415,0.337-0.752,0.752-0.752h39.085c0.415,0,0.752,0.336,0.752,0.752l0,0
							C300.529,274.276,300.192,274.612,299.777,274.612z"/>
						<path style="fill:#B5CADD;" d="M279.483,278.252h-18.791c-0.415,0-0.752-0.337-0.752-0.752l0,0
							c0-0.415,0.337-0.752,0.752-0.752h18.791c0.415,0,0.751,0.337,0.751,0.752l0,0
							C280.234,277.915,279.898,278.252,279.483,278.252z"/>
					</g>
					<g>
						<path style="fill:#B5CADD;" d="M299.777,286.638h-39.085c-0.415,0-0.752-0.336-0.752-0.752l0,0
							c0-0.415,0.337-0.752,0.752-0.752h39.085c0.415,0,0.752,0.337,0.752,0.752l0,0
							C300.529,286.302,300.192,286.638,299.777,286.638z"/>
						<path style="fill:#B5CADD;" d="M279.483,290.278h-18.791c-0.415,0-0.752-0.336-0.752-0.752l0,0
							c0-0.415,0.337-0.752,0.752-0.752h18.791c0.415,0,0.751,0.336,0.751,0.752l0,0
							C280.234,289.941,279.898,290.278,279.483,290.278z"/>
					</g>
				</g>
			</g>
		</g>
		<g>
			<polygon style="fill:none;stroke:#FFFFFF;stroke-linecap:round;stroke-linejoin:round;stroke-miterlimit:10;" points="
				283.762,311.081 281.874,313.002 317.192,277.144 			"/>
			<polygon style="fill:none;stroke:#FFFFFF;stroke-linecap:round;stroke-linejoin:round;stroke-miterlimit:10;" points="
				244.624,277.144 281.874,313.002 280.018,311.211 			"/>
		</g>
	</g>
	<g>
		<g>
			<path style="fill:#B5CADD;" d="M455.16,354.804h-92.783v-68.03c0-1.734,1.406-3.141,3.141-3.141h86.502
				c1.734,0,3.141,1.406,3.141,3.141V354.804z"/>
			<rect x="362.377" y="287.503" style="fill:#F58A86;" width="92.783" height="67.301"/>
		</g>
		<g>
			<rect x="370.864" y="292.685" style="fill:#FFFFFF;" width="48.285" height="22.686"/>
			<g>
				<path style="fill:#3C5262;" d="M405.052,300.021h-28.449c-0.452,0-0.819-0.367-0.819-0.819l0,0c0-0.452,0.367-0.819,0.819-0.819
					h28.449c0.452,0,0.819,0.367,0.819,0.819l0,0C405.871,299.655,405.504,300.021,405.052,300.021z"/>
				<path style="fill:#3C5262;" d="M413.217,300.021h-5.435c-0.452,0-0.819-0.367-0.819-0.819l0,0c0-0.452,0.367-0.819,0.819-0.819
					h5.435c0.452,0,0.819,0.367,0.819,0.819l0,0C414.036,299.655,413.669,300.021,413.217,300.021z"/>
				<path style="fill:#3C5262;" d="M391.624,303.58h-15.021c-0.452,0-0.819-0.367-0.819-0.819l0,0c0-0.452,0.367-0.819,0.819-0.819
					h15.021c0.452,0,0.819,0.367,0.819,0.819l0,0C392.443,303.213,392.076,303.58,391.624,303.58z"/>
			</g>
			<g>
				<path style="fill:#B5CADD;" d="M381.243,308.635c0,1.508-1.222,2.73-2.73,2.73c-1.508,0-2.73-1.222-2.73-2.73
					c0-1.508,1.222-2.73,2.73-2.73C380.021,305.905,381.243,307.127,381.243,308.635z"/>
				<path style="fill:#3C5262;" d="M389.331,308.635c0,1.508-1.222,2.73-2.73,2.73c-1.508,0-2.73-1.222-2.73-2.73
					c0-1.508,1.222-2.73,2.73-2.73C388.109,305.905,389.331,307.127,389.331,308.635z"/>
				<path style="fill:#B5CADD;" d="M397.419,308.635c0,1.508-1.222,2.73-2.73,2.73c-1.508,0-2.73-1.222-2.73-2.73
					c0-1.508,1.222-2.73,2.73-2.73C396.197,305.905,397.419,307.127,397.419,308.635z"/>
				<path style="fill:#3C5262;" d="M405.507,308.635c0,1.508-1.222,2.73-2.73,2.73c-1.508,0-2.73-1.222-2.73-2.73
					c0-1.508,1.222-2.73,2.73-2.73C404.285,305.905,405.507,307.127,405.507,308.635z"/>
				<path style="fill:#B5CADD;" d="M413.594,308.635c0,1.508-1.222,2.73-2.73,2.73c-1.507,0-2.73-1.222-2.73-2.73
					c0-1.508,1.222-2.73,2.73-2.73C412.372,305.905,413.594,307.127,413.594,308.635z"/>
			</g>
		</g>
		<g>
			<rect x="402.354" y="321.625" style="fill:#6DA69C;" width="48.285" height="22.686"/>
			<g>
				<path style="fill:#3C5262;" d="M437.274,336.652h-28.449c-0.452,0-0.819-0.367-0.819-0.819l0,0c0-0.452,0.367-0.819,0.819-0.819
					h28.449c0.452,0,0.819,0.367,0.819,0.819l0,0C438.093,336.285,437.726,336.652,437.274,336.652z"/>
				<path style="fill:#3C5262;" d="M445.439,336.652h-5.435c-0.452,0-0.819-0.367-0.819-0.819l0,0c0-0.452,0.367-0.819,0.819-0.819
					h5.435c0.452,0,0.819,0.367,0.819,0.819l0,0C446.258,336.285,445.891,336.652,445.439,336.652z"/>
				<path style="fill:#3C5262;" d="M423.846,340.211h-15.021c-0.452,0-0.819-0.367-0.819-0.819l0,0c0-0.452,0.367-0.819,0.819-0.819
					h15.021c0.452,0,0.819,0.367,0.819,0.819l0,0C424.664,339.844,424.298,340.211,423.846,340.211z"/>
			</g>
			<g>
				<path style="fill:#B5CADD;" d="M413.465,329.919c0,1.508-1.222,2.73-2.73,2.73c-1.508,0-2.73-1.222-2.73-2.73
					c0-1.508,1.222-2.73,2.73-2.73C412.243,327.189,413.465,328.411,413.465,329.919z"/>
				<path style="fill:#3C5262;" d="M421.553,329.919c0,1.508-1.222,2.73-2.73,2.73c-1.508,0-2.73-1.222-2.73-2.73
					c0-1.508,1.222-2.73,2.73-2.73C420.331,327.189,421.553,328.411,421.553,329.919z"/>
				<path style="fill:#3C5262;" d="M429.641,329.919c0,1.508-1.222,2.73-2.73,2.73s-2.73-1.222-2.73-2.73
					c0-1.508,1.222-2.73,2.73-2.73S429.641,328.411,429.641,329.919z"/>
				<path style="fill:#3C5262;" d="M437.729,329.919c0,1.508-1.222,2.73-2.73,2.73c-1.508,0-2.73-1.222-2.73-2.73
					c0-1.508,1.222-2.73,2.73-2.73C436.506,327.189,437.729,328.411,437.729,329.919z"/>
				<path style="fill:#B5CADD;" d="M445.816,329.919c0,1.508-1.222,2.73-2.73,2.73c-1.508,0-2.73-1.222-2.73-2.73
					c0-1.508,1.222-2.73,2.73-2.73C444.594,327.189,445.816,328.411,445.816,329.919z"/>
			</g>
		</g>
	</g>
	<g>
		<g>
			<path style="fill:#3C5262;" d="M191.523,176.491h-76.03v-55.179c0-1.734,1.406-3.141,3.141-3.141h69.749
				c1.734,0,3.141,1.406,3.141,3.141V176.491z"/>
			<rect x="115.493" y="121.342" style="fill:#B5CADD;" width="76.03" height="55.149"/>
		</g>
		<g>
			<path style="fill:#3C5262;" d="M128.397,132.207c0,2.1-1.702,3.802-3.802,3.802c-2.1,0-3.802-1.702-3.802-3.802
				c0-2.1,1.702-3.802,3.802-3.802C126.695,128.405,128.397,130.107,128.397,132.207z"/>
			<path style="fill:#FFFFFF;" d="M139.962,132.207c0,2.1-1.702,3.802-3.802,3.802c-2.1,0-3.802-1.702-3.802-3.802
				c0-2.1,1.702-3.802,3.802-3.802C138.26,128.405,139.962,130.107,139.962,132.207z"/>
			<path style="fill:#3C5262;" d="M151.527,132.207c0,2.1-1.702,3.802-3.802,3.802c-2.1,0-3.802-1.702-3.802-3.802
				c0-2.1,1.702-3.802,3.802-3.802C149.825,128.405,151.527,130.107,151.527,132.207z"/>
			<circle style="fill:#FFFFFF;" cx="159.29" cy="132.207" r="3.802"/>
			<path style="fill:#3C5262;" d="M174.657,132.207c0,2.1-1.702,3.802-3.802,3.802c-2.1,0-3.802-1.702-3.802-3.802
				c0-2.1,1.702-3.802,3.802-3.802C172.955,128.405,174.657,130.107,174.657,132.207z"/>
			<path style="fill:#FFFFFF;" d="M186.222,132.207c0,2.1-1.702,3.802-3.802,3.802c-2.1,0-3.802-1.702-3.802-3.802
				c0-2.1,1.702-3.802,3.802-3.802C184.52,128.405,186.222,130.107,186.222,132.207z"/>
		</g>
		<g>
			<path style="fill:#FFFFFF;" d="M182.811,169.975h-58.605c-2.027,0-3.67-1.643-3.67-3.67v-22.038c0-2.027,1.643-3.67,3.67-3.67
				h58.605c2.027,0,3.67,1.643,3.67,3.67v22.038C186.48,168.332,184.837,169.975,182.811,169.975z"/>
			<g>
				<g>
					<rect x="124.595" y="145.69" style="fill:#3C5262;" width="55.704" height="0.992"/>
					<rect x="124.595" y="148.917" style="fill:#3C5262;" width="25.456" height="0.992"/>
					<rect x="151.527" y="148.917" style="fill:#3C5262;" width="12.386" height="0.992"/>
				</g>
				<g>
					<rect x="124.595" y="153.582" style="fill:#3C5262;" width="55.704" height="0.992"/>
					<rect x="124.595" y="156.809" style="fill:#3C5262;" width="25.456" height="0.992"/>
					<rect x="151.527" y="156.809" style="fill:#3C5262;" width="12.386" height="0.992"/>
				</g>
				<g>
					<rect x="124.595" y="161.473" style="fill:#3C5262;" width="55.704" height="0.992"/>
					<rect x="124.595" y="164.701" style="fill:#3C5262;" width="25.456" height="0.992"/>
					<rect x="151.527" y="164.701" style="fill:#3C5262;" width="12.386" height="0.992"/>
				</g>
			</g>
		</g>
	</g>
	<g>
		<path style="fill:#F58A86;" d="M94.042,251.245H46.465c-1.35,0-2.444-1.094-2.444-2.444v-67.369c0-1.35,1.094-2.444,2.444-2.444
			h47.577c1.35,0,2.444,1.094,2.444,2.444v67.37C96.486,250.151,95.392,251.245,94.042,251.245z"/>
		<g>
			<rect x="48.649" y="185.268" style="fill:#B5CADD;" width="13.222" height="14.379"/>
			<rect x="48.649" y="204.027" style="fill:#6DA69C;" width="13.222" height="14.379"/>
			<rect x="48.649" y="222.785" style="fill:#3C5262;" width="13.222" height="14.379"/>
		</g>
		<g>
			<path style="fill:#FFFFFF;" d="M88.15,188.904H66.664c-1.004,0-1.818-0.814-1.818-1.818l0,0c0-1.004,0.814-1.818,1.818-1.818
				H88.15c1.004,0,1.818,0.814,1.818,1.818l0,0C89.968,188.09,89.154,188.904,88.15,188.904z"/>
			<path style="fill:#FFFFFF;" d="M79.793,194.275H66.664c-1.004,0-1.818-0.814-1.818-1.818l0,0c0-1.004,0.814-1.818,1.818-1.818
				h13.129c1.004,0,1.818,0.814,1.818,1.818l0,0C81.611,193.462,80.797,194.275,79.793,194.275z"/>
		</g>
		<g>
			<path style="fill:#FFFFFF;" d="M88.15,207.663H66.664c-1.004,0-1.818-0.814-1.818-1.818l0,0c0-1.004,0.814-1.818,1.818-1.818
				H88.15c1.004,0,1.818,0.814,1.818,1.818l0,0C89.968,206.849,89.154,207.663,88.15,207.663z"/>
			<path style="fill:#FFFFFF;" d="M79.793,213.034H66.664c-1.004,0-1.818-0.814-1.818-1.818l0,0c0-1.004,0.814-1.818,1.818-1.818
				h13.129c1.004,0,1.818,0.814,1.818,1.818l0,0C81.611,212.22,80.797,213.034,79.793,213.034z"/>
		</g>
		<g>
			<path style="fill:#FFFFFF;" d="M88.15,226.421H66.664c-1.004,0-1.818-0.814-1.818-1.818l0,0c0-1.004,0.814-1.818,1.818-1.818
				H88.15c1.004,0,1.818,0.814,1.818,1.818l0,0C89.968,225.607,89.154,226.421,88.15,226.421z"/>
			<path style="fill:#FFFFFF;" d="M79.793,231.793H66.664c-1.004,0-1.818-0.814-1.818-1.818l0,0c0-1.004,0.814-1.818,1.818-1.818
				h13.129c1.004,0,1.818,0.814,1.818,1.818l0,0C81.611,230.979,80.797,231.793,79.793,231.793z"/>
		</g>
		<path style="fill:#B5CADD;" d="M81.472,246.75H59.036c-1.677,0-3.037-1.36-3.037-3.037l0,0c0-1.677,1.36-3.037,3.037-3.037h22.436
			c1.677,0,3.037,1.36,3.037,3.037l0,0C84.509,245.391,83.149,246.75,81.472,246.75z"/>
	</g>
	<g>
		<path style="fill:#6DA69C;" d="M198.153,241.557c-22.045,0-39.915,11.39-39.915,25.44c0,8.624,6.739,16.24,17.038,20.841
			l-5.458,12.759l17.627-9.094c3.409,0.604,6.997,0.934,10.708,0.934c22.044,0,39.915-11.39,39.915-25.44
			C238.068,252.947,220.198,241.557,198.153,241.557z"/>
		<g>
			<g>
				<g>
					<rect x="181.28" y="254.2" style="fill:#F58A86;" width="3.187" height="26.192"/>
					<rect x="193.641" y="251.146" style="fill:#3C5262;" width="3.187" height="29.246"/>
					<rect x="187.335" y="262.918" style="fill:#B5CADD;" width="3.187" height="17.474"/>
					<rect x="199.629" y="267.296" style="fill:#F58A86;" width="3.187" height="13.096"/>
					<rect x="205.23" y="270.948" style="fill:#B5CADD;" width="3.187" height="9.443"/>
				</g>
				<path style="fill:#3C5262;" d="M217.125,282.083h-37.899c-0.467,0-0.845-0.378-0.845-0.845l0,0c0-0.467,0.379-0.845,0.846-0.845
					h37.899c0.467,0,0.845,0.378,0.845,0.845v0C217.971,281.704,217.592,282.083,217.125,282.083z"/>
			</g>
			<g>
				<g>
					<circle style="fill:#3C5262;" cx="213.063" cy="256.651" r="7.195"/>
					<g>
						<g>
							<path style="fill:#FFFFFF;" d="M209.603,254.84c-0.069-0.385-0.618-0.325-0.721,0c-0.148,0.469-0.397,0.887-0.737,1.243
								c-0.332,0.348,0.196,0.877,0.528,0.528c0.142-0.149,0.266-0.309,0.382-0.474c0.18,1.279,0.276,2.569,0.286,3.862
								c0.004,0.481,0.751,0.482,0.747,0C210.075,258.268,209.91,256.543,209.603,254.84z"/>
							<path style="fill:#FFFFFF;" d="M214.152,255.46c-0.184-0.51-0.413-1.044-0.749-1.474c-0.373-0.478-1.025-0.785-1.602-0.462
								c-0.335,0.187-0.508,0.497-0.605,0.839c-0.074,0.041-0.137,0.107-0.169,0.209c-0.356,1.136-0.378,2.377-0.035,3.519
								c0.268,0.893,0.914,1.988,2.016,1.756c1.152-0.243,1.499-1.604,1.484-2.618C214.483,256.627,214.357,256.025,214.152,255.46z
								 M212.809,259.126c-0.703,0.097-1.02-0.923-1.152-1.43c-0.194-0.748-0.208-1.522-0.068-2.274
								c0.12-0.051,0.219-0.155,0.233-0.319c0.024-0.298,0.044-0.815,0.384-0.945c0.382-0.146,0.68,0.362,0.827,0.628
								c0.401,0.73,0.688,1.554,0.71,2.392C213.76,257.819,213.63,259.013,212.809,259.126z"/>
						</g>
						<g>
							<path style="fill:#FFFFFF;" d="M217.287,253.983c-0.162-0.095-0.425-0.05-0.511,0.134c-0.52,1.114-1.041,2.227-1.561,3.341
								c-0.085,0.183-0.051,0.403,0.134,0.511c0.162,0.095,0.425,0.05,0.511-0.134c0.52-1.114,1.041-2.228,1.561-3.341
								C217.507,254.311,217.473,254.091,217.287,253.983z"/>
							<path style="fill:#FFFFFF;" d="M215.924,254.388c-0.016-0.038-0.032-0.085-0.055-0.123c-0.024-0.039-0.054-0.075-0.083-0.109
								c-0.041-0.049-0.097-0.09-0.15-0.124c-0.054-0.035-0.116-0.06-0.177-0.078c-0.046-0.013-0.096-0.017-0.143-0.023
								c-0.018-0.002-0.036-0.003-0.054-0.002c-0.113,0.007-0.176,0.027-0.278,0.074c-0.013,0.007-0.02,0.021-0.032,0.029
								c-0.037,0.016-0.072,0.034-0.1,0.064c-0.011,0.009-0.021,0.018-0.03,0.029c-0.029,0.033-0.058,0.069-0.081,0.106
								c-0.007,0.012-0.014,0.024-0.019,0.036c-0.018,0.04-0.038,0.082-0.051,0.125c-0.004,0.013-0.007,0.027-0.009,0.041
								c-0.007,0.045-0.015,0.092-0.016,0.138c-0.001,0.06,0.008,0.121,0.021,0.18c0.013,0.057,0.038,0.113,0.065,0.165
								c0.006,0.012,0.013,0.024,0.021,0.035c0.025,0.036,0.052,0.073,0.082,0.105c0.009,0.01,0.02,0.019,0.03,0.027
								c0.034,0.027,0.069,0.058,0.108,0.079c0.039,0.021,0.082,0.038,0.124,0.053c0.015,0.005,0.031,0.008,0.046,0.011
								c0.045,0.007,0.091,0.016,0.137,0.016c0.047,0,0.095-0.009,0.14-0.017c0.06-0.01,0.117-0.038,0.172-0.063
								c0.055-0.025,0.104-0.067,0.149-0.105c0.046-0.039,0.083-0.09,0.117-0.139c0.008-0.012,0.016-0.025,0.022-0.038
								c0.019-0.04,0.038-0.082,0.051-0.125c0.013-0.044,0.016-0.091,0.022-0.136c0.002-0.017,0.003-0.034,0.001-0.052
								C215.952,254.507,215.947,254.445,215.924,254.388z"/>
							<path style="fill:#FFFFFF;" d="M218.548,257.092c-0.016-0.038-0.032-0.085-0.055-0.123c-0.024-0.039-0.054-0.075-0.083-0.109
								c-0.041-0.049-0.097-0.09-0.15-0.124c-0.054-0.035-0.116-0.06-0.177-0.078c-0.046-0.013-0.096-0.017-0.143-0.023
								c-0.018-0.002-0.036-0.003-0.054-0.002c-0.113,0.007-0.176,0.027-0.278,0.074c-0.013,0.007-0.02,0.021-0.032,0.029
								c-0.037,0.016-0.072,0.034-0.1,0.064c-0.011,0.009-0.021,0.018-0.03,0.029c-0.029,0.033-0.058,0.069-0.081,0.106
								c-0.007,0.012-0.014,0.024-0.019,0.036c-0.018,0.04-0.038,0.082-0.051,0.125c-0.004,0.013-0.006,0.027-0.009,0.04
								c-0.007,0.045-0.015,0.092-0.017,0.138c-0.001,0.06,0.008,0.121,0.021,0.18c0.013,0.057,0.038,0.113,0.064,0.165
								c0.006,0.012,0.013,0.024,0.021,0.035c0.025,0.036,0.052,0.073,0.082,0.105c0.009,0.01,0.02,0.019,0.031,0.027
								c0.034,0.027,0.069,0.058,0.108,0.079c0.039,0.021,0.082,0.038,0.124,0.053c0.015,0.005,0.03,0.008,0.046,0.011
								c0.045,0.007,0.091,0.016,0.137,0.016c0.047,0,0.095-0.009,0.14-0.017c0.06-0.01,0.117-0.038,0.172-0.063
								c0.055-0.025,0.104-0.067,0.149-0.105c0.046-0.039,0.083-0.09,0.117-0.139c0.008-0.012,0.016-0.025,0.022-0.038
								c0.019-0.04,0.038-0.082,0.051-0.125c0.013-0.044,0.016-0.091,0.022-0.137c0.002-0.017,0.003-0.034,0.002-0.052
								C218.577,257.211,218.571,257.148,218.548,257.092z"/>
						</g>
					</g>
				</g>
				<g>
					<path style="fill:#B5CADD;" d="M222.306,270.379c0,2.877-2.332,5.209-5.21,5.209c-2.877,0-5.209-2.332-5.209-5.209
						s2.332-5.21,5.209-5.21C219.973,265.17,222.306,267.502,222.306,270.379z"/>
					<g>
						<g>
							<path style="fill:#FFFFFF;" d="M220.461,268.659c-0.119-0.07-0.314-0.037-0.377,0.099c-0.384,0.823-0.769,1.645-1.153,2.468
								c-0.063,0.135-0.038,0.298,0.099,0.378c0.119,0.07,0.314,0.037,0.377-0.099c0.384-0.823,0.769-1.645,1.153-2.468
								C220.623,268.901,220.598,268.739,220.461,268.659z"/>
							<path style="fill:#FFFFFF;" d="M219.454,268.958c-0.012-0.028-0.024-0.063-0.041-0.091c-0.018-0.029-0.039-0.055-0.061-0.081
								c-0.031-0.036-0.072-0.066-0.111-0.092c-0.04-0.026-0.085-0.044-0.131-0.057c-0.034-0.01-0.071-0.013-0.106-0.017
								c-0.013-0.002-0.026-0.002-0.04-0.001c-0.083,0.005-0.13,0.02-0.205,0.054c-0.01,0.005-0.015,0.015-0.023,0.022
								c-0.027,0.011-0.053,0.025-0.074,0.047c-0.008,0.007-0.016,0.013-0.022,0.021c-0.022,0.025-0.042,0.051-0.06,0.078
								c-0.005,0.009-0.01,0.018-0.014,0.027c-0.014,0.03-0.028,0.061-0.037,0.092c-0.003,0.01-0.005,0.02-0.006,0.03
								c-0.005,0.033-0.011,0.068-0.012,0.102c-0.001,0.044,0.006,0.09,0.016,0.133c0.009,0.042,0.028,0.084,0.048,0.122
								c0.005,0.009,0.01,0.018,0.016,0.026c0.019,0.027,0.038,0.054,0.061,0.078c0.007,0.007,0.014,0.014,0.022,0.02
								c0.025,0.02,0.051,0.043,0.08,0.059c0.029,0.016,0.061,0.028,0.092,0.039c0.011,0.004,0.023,0.006,0.034,0.008
								c0.033,0.005,0.067,0.012,0.101,0.012c0.035,0,0.07-0.007,0.104-0.013c0.044-0.008,0.087-0.028,0.127-0.047
								c0.04-0.019,0.077-0.049,0.11-0.077c0.034-0.029,0.061-0.066,0.086-0.103c0.006-0.009,0.012-0.018,0.016-0.028
								c0.014-0.03,0.028-0.06,0.038-0.092c0.01-0.032,0.012-0.068,0.016-0.101c0.001-0.013,0.002-0.025,0.001-0.038
								C219.475,269.046,219.471,269,219.454,268.958z"/>
							<path style="fill:#FFFFFF;" d="M221.393,270.955c-0.011-0.028-0.024-0.063-0.041-0.091c-0.017-0.029-0.039-0.055-0.061-0.081
								c-0.031-0.036-0.072-0.066-0.111-0.092c-0.04-0.026-0.085-0.044-0.131-0.058c-0.034-0.01-0.071-0.013-0.106-0.017
								c-0.013-0.001-0.026-0.002-0.04-0.001c-0.083,0.005-0.13,0.02-0.205,0.055c-0.01,0.005-0.015,0.015-0.024,0.022
								c-0.027,0.012-0.053,0.025-0.074,0.047c-0.008,0.007-0.016,0.013-0.022,0.021c-0.022,0.024-0.043,0.051-0.06,0.078
								c-0.005,0.008-0.01,0.017-0.014,0.027c-0.014,0.03-0.028,0.061-0.037,0.092c-0.003,0.01-0.005,0.02-0.006,0.03
								c-0.005,0.033-0.011,0.068-0.012,0.102c-0.001,0.044,0.006,0.09,0.016,0.133c0.009,0.042,0.028,0.084,0.048,0.122
								c0.005,0.009,0.01,0.018,0.016,0.026c0.019,0.027,0.039,0.054,0.061,0.078c0.007,0.007,0.015,0.014,0.022,0.02
								c0.025,0.02,0.051,0.043,0.08,0.059c0.029,0.015,0.061,0.028,0.092,0.039c0.011,0.004,0.022,0.006,0.034,0.008
								c0.033,0.005,0.068,0.012,0.101,0.012c0.035,0,0.07-0.007,0.104-0.013c0.044-0.007,0.087-0.028,0.127-0.046
								c0.04-0.019,0.077-0.049,0.11-0.077c0.034-0.029,0.061-0.066,0.086-0.103c0.006-0.009,0.012-0.019,0.016-0.028
								c0.014-0.03,0.028-0.06,0.038-0.092c0.01-0.032,0.012-0.068,0.016-0.101c0.002-0.013,0.002-0.025,0.001-0.038
								C221.414,271.043,221.41,270.997,221.393,270.955z"/>
						</g>
						<g>
							<path style="fill:#FFFFFF;" d="M217.958,269.894c-0.114-0.314-0.255-0.643-0.462-0.908c-0.23-0.295-0.632-0.484-0.987-0.285
								c-0.206,0.115-0.313,0.306-0.373,0.517c-0.046,0.025-0.085,0.066-0.104,0.129c-0.219,0.7-0.233,1.464-0.021,2.168
								c0.165,0.55,0.563,1.225,1.242,1.082c0.71-0.15,0.923-0.989,0.914-1.613C218.162,270.613,218.084,270.242,217.958,269.894z
								 M217.131,272.152c-0.433,0.06-0.629-0.569-0.71-0.881c-0.119-0.461-0.128-0.938-0.042-1.401
								c0.074-0.032,0.135-0.096,0.143-0.197c0.015-0.184,0.027-0.502,0.237-0.582c0.235-0.09,0.419,0.223,0.509,0.387
								c0.247,0.45,0.424,0.957,0.438,1.474C217.717,271.347,217.637,272.083,217.131,272.152z"/>
							<path style="fill:#FFFFFF;" d="M215.102,270.194c-0.32-0.248-0.759-0.332-1.145-0.22c-0.023-0.136-0.054-0.271-0.088-0.405
								c0.481-0.086,0.962-0.172,1.443-0.258c0.326-0.058,0.188-0.556-0.137-0.497c-0.564,0.101-1.129,0.202-1.693,0.303
								c-0.134,0.024-0.219,0.194-0.18,0.317c0.094,0.299,0.163,0.604,0.197,0.915c0.019,0.175,0.211,0.347,0.388,0.223
								c0.275-0.193,0.65-0.176,0.913,0.037c0.279,0.225,0.376,0.636,0.301,0.977c-0.074,0.334-0.322,0.686-0.702,0.654
								c-0.43-0.035-0.73-0.437-0.978-0.745c-0.088-0.109-0.273-0.09-0.365,0c-0.108,0.106-0.087,0.257,0,0.365
								c0.363,0.45,0.822,0.933,1.454,0.896c0.574-0.034,1.001-0.542,1.099-1.083C215.706,271.133,215.548,270.539,215.102,270.194z
								"/>
						</g>
					</g>
				</g>
			</g>
		</g>
	</g>
	<g>
		<g>
			<g>
				<path style="fill:#43201A;" d="M141.49,348.858c-0.419-0.189-0.812-0.484-1.151-0.88c-1.025-1.198-1.51-3.266-1.209-5.161
					c0.619-3.897,4.136-6.661,3.635-10.536c-0.531-4.104-5.211-5.026-5.361-9.213c-0.085-2.379,1.401-4.25,2.274-6.328
					c1.72-4.098,1.031-9.304-0.294-13.545c-2.807-8.988-8.222-16.014-14.591-19.74c-6.369-3.726-13.626-4.241-20.477-2.073
					c-10.287,3.256-21.833,15.195-19.616,32.161c0.368,2.815,1.123,5.479,1.551,8.273c0.428,2.794,0.501,5.869-0.437,8.466
					c-0.938,2.598-2.727,4.32-4.125,6.465c-1.398,2.145-2.442,5.393-1.455,7.855c1.27,3.17,5.013,2.909,6.092,6.228
					c0.692,2.13-0.15,4.834-1.481,6.33c-1.331,1.496-3.027,2.072-4.66,2.607c-0.07,3.596,0.825,7.942,3.282,8.555
					c3.292,0.822,5.681-5.759,9.045-5.942c2.054-0.112,3.663,2.188,5.171,4.109c1.508,1.921,3.626,3.68,5.499,2.378
					c1.61-1.119,2.348-4.12,4.019-5.021c1.391-0.75,2.913,0.236,4.373-0.078c1.855-0.398,3.322-2.812,5.181-3.154
					c2.265-0.416,4.084,2.305,6.199,3.396c1.924,0.992,4.209,0.549,5.944-1.152c1.456-1.428,2.52-3.653,4.097-4.776
					c1.886-1.343,4.114-0.842,6.131-1.659c2.476-1.004,4.509-4.154,5.007-7.76C143.297,349.19,142.339,349.241,141.49,348.858z"/>
			</g>
			<g>
				<g>
					<path style="fill:#FACCBC;" d="M229.165,413.631c0,0,28.106-9.518,34.593,7.381c0,0,2.652,5.672-6.979-3.209
						c0,0-3.799-2.367-5.506-1.321c0,0,9.862,5.785,10.641,8.356c0.395,1.306-2.396,4.992-12.34-5.537c0,0,5.415,5.651,6.138,9.181
						c0.312,1.526-1.64,2.435-2.604,1.212l-6.642-8.425l4.244,9.062c0.31,0.662,0.162,1.49-0.434,1.913
						c-1.006,0.715-3.106,0.202-6.977-8.273l0,0c-0.03,0.026-0.052,0.067-0.091,0.076c-5.328,1.27-9.854,1.611-14.708-1.315
						l-0.878-0.934L229.165,413.631z"/>
					<path style="fill:#FACCBC;" d="M182.528,437.379c0.262-0.069,49.081-15.509,49.081-15.509l-0.862-8.198l-46.042,3.112
						c0,0-2.041-39.407-5.402-44.936c-0.033-0.055-0.067-0.11-0.101-0.164c-5.816-9.433-20.451-8.135-19.475,6.401
						C159.739,378.263,159.252,443.456,182.528,437.379z"/>
				</g>
				<g>
					<path style="fill:#FFFFFF;" d="M161.557,407.036c8.798,0.432,17.671-0.932,25.929-3.97l-0.198-1.315l-1.292-8.771l-0.429-2.994
						c-9.612,0.247-19.291-1.051-28.87-2.543c0.209,1.39,0.472,2.798,0.761,4.243c0.127,0.617,0.253,1.235,0.395,1.855
						C158.819,397.919,160.094,402.481,161.557,407.036z"/>
				</g>
				<g>
					<path style="fill:#F58A86;" d="M157.853,393.542c9.385,1.808,19.245,1.402,28.681-0.937l-0.425-3.177
						c-0.33-2.593-0.868-5.483-1.615-8.407c-3.551-13.933-11.83-28.607-24.462-15.072c-4.622,4.956-4.699,14.627-2.558,25.726
						C157.596,392.296,157.716,392.918,157.853,393.542z"/>
				</g>
			</g>
			<g>
				<path style="fill:#F58A86;" d="M115.353,446.767c0.021,0.285,0.057,0.579,0.091,0.885h55.942
					c-0.045-1.452-0.034-2.916,0.034-4.38c0.238-5.492,1.418-11.086,3.086-16.408c0.284-0.942,0.579-1.872,0.908-2.803
					c4.811-7.501,9.532-12.527,3.597-29.389l-2.428-9.101l-1.316-4.959c-0.919-3.348-2.224-7.41-3.54-11.268
					c-0.352-1.021-0.76-1.997-1.271-2.928c-0.953-1.793-2.167-3.404-3.574-4.811c-3.336-3.302-7.784-5.39-12.55-5.685
					c-0.442-0.034-0.896-0.045-1.339-0.045c-0.057-0.023-0.182-0.023-0.363-0.023c-0.261,0-0.635,0.011-1.112,0.023
					c-4.891,0.159-20.618,1.101-30.32,1.679c-0.431,0.034-0.851,0.057-1.26,0.079c-0.284,0.011-0.606-0.01-0.93,0.045
					c-0.47,0.081-0.934,0.172-1.393,0.275c-15.624,3.492-22.06,18.072-15.624,32.731
					C108.016,404.408,113.968,427.944,115.353,446.767z"/>
				<g>
					<path style="fill:#F58A86;" d="M177.693,390.091c-1.295-3.581-2.549-7.198-3.166-10.967c-0.07-0.427-0.719-0.246-0.649,0.179
						c1.072,6.543,4.043,12.541,5.85,18.879c0.887,3.113,1.474,6.32,1.383,9.568c-0.087,3.071-0.738,6.116-1.873,8.969
						c-1.284,3.228-3.216,6.192-5.66,8.661c-0.305,0.308,0.171,0.785,0.476,0.476c4.372-4.417,7.089-10.362,7.639-16.548
						C182.287,402.612,179.93,396.279,177.693,390.091z"/>
					<path style="fill:#F58A86;" d="M158.996,360.826c-0.104-0.718-0.194-1.437-0.267-2.158c-0.043-0.427-0.717-0.431-0.673,0
						c0.531,5.235,2.115,10.426,1.693,15.727c-0.353,4.438-2.24,8.831-6.366,10.946c-4.069,2.085-8.936,1.652-13.045-0.061
						c-4.6-1.917-8.579-5.241-12.215-8.582c-3.745-3.44-7.166-7.236-10.19-11.325c-0.384-0.519-0.761-1.043-1.133-1.571
						c-0.248-0.352-0.832-0.016-0.581,0.34c3.019,4.287,6.445,8.285,10.233,11.911c1.89,1.809,3.866,3.534,5.932,5.14
						c2.001,1.556,4.104,2.999,6.387,4.111c4.166,2.029,9.042,2.882,13.494,1.252c2.073-0.758,3.906-2.039,5.254-3.795
						c1.382-1.801,2.209-3.975,2.62-6.194C161.117,371.29,159.752,366.035,158.996,360.826z"/>
				</g>
				<g>
					<path style="fill:#FACCBC;" d="M121.197,357.554c2.043,6.695,6.252,12.789,11.37,17.656c2.122,2.008,4.403,3.847,6.774,5.549
						c8.034,5.742,19.359-0.238,19.007-10.111v-0.204c-0.204-5.061-1.362-10.315-4.017-14.524c-0.442-0.034-0.896-0.045-1.339-0.045
						c-0.034-0.011-0.079-0.023-0.147-0.011c-0.057-0.011-0.136-0.011-0.216-0.011c-0.261,0-0.635,0.011-1.112,0.023
						c-4.459,0.148-17.929,0.942-27.619,1.521C122.956,357.452,122.048,357.498,121.197,357.554z"/>
				</g>
				<g>
					<path style="fill:#FACCBC;" d="M123.897,357.396c1.952,4.596,5.072,8.783,8.715,12.255c1.827,1.736,3.79,3.314,5.833,4.789
						c6.933,4.948,16.692-0.204,16.397-8.715v-0.181c-0.136-3.291-0.738-6.661-1.997-9.679c-0.057-0.011-0.136-0.011-0.216-0.011
						c-0.261,0-0.635,0.011-1.112,0.023C147.057,356.023,133.588,356.817,123.897,357.396z"/>
				</g>
				<path style="fill:#FACCBC;" d="M148.336,355.764c0,0-0.013,0.046-0.01,0.107c-0.006,0.198,0,0.641,0.01,1.175
					c0.04,3.417-1.492,6.666-4.293,8.497c-2.182,1.419-4.55,1.815-7.12,1.144c-4.509-1.159-7.661-5.446-7.94-10.053l-0.222-3.707
					l-1.95-19.953l19.069-1.083l0.39,3.722l1.248,12.204L148.336,355.764z"/>
				<path style="opacity:0.49;fill:#FACCBC;" d="M148.336,355.764c0,0-0.013,0.046-0.01,0.107c-19.396,0.29-18.8-22.699-18.8-22.699
					l16.744,2.441l1.248,12.204L148.336,355.764z"/>
				<path style="fill:#FACCBC;" d="M161.678,320.237c-0.446-3.1-0.878-6.187-1.098-9.311c-0.314-4.479-3.012-8.955-5.68-12.693
					c-1.698-2.379-3.744-4.509-6.163-6.146c-6.442-4.358-15.886-5.056-22.955-1.995c-9.896,4.284-10.788,14.349-7.969,23.347
					c-6.42-3.083-6.609,5.076-6.609,5.076c-0.189,8.159,7.777,8.029,7.777,8.029c2.417,7.76,7.781,12.445,7.781,12.445
					c5.017,4.483,9.418,6.957,13.097,8.239c7.328,2.554,15.198-0.439,19.109-6.85c3.218-5.277,3.963-11.244,3.117-17.299
					C161.951,322.129,161.814,321.182,161.678,320.237z"/>
				<path style="opacity:0.49;fill:#FACCBC;" d="M152.572,328.297c-0.305-0.613-0.819-1.103-1.255-1.625
					c-0.495-0.592-0.925-1.234-1.301-1.905c-0.757-1.348-1.237-2.804-1.477-4.309c-0.066-0.413-0.569-0.656-0.935-0.577
					c-0.434,0.094-0.596,0.504-0.531,0.912c0.403,2.525,1.516,4.928,3.182,6.92c0.641,0.766,1.557,1.579,0.773,2.523
					c-0.783,0.944-2.243,0.801-3.371,0.735c-0.981-0.058-0.979,1.466,0,1.524c1.468,0.087,3.037,0.098,4.19-0.877
					C152.8,330.809,153.164,329.489,152.572,328.297z"/>
				<g>
					<path style="fill:#43201A;" d="M152.011,310.892c0.324-0.183,0.665-0.197,0.985-0.174c2.119,0.149,3.782,1.869,4.223,4.24
						c-0.148-0.319-0.322-0.613-0.566-0.832c-0.014-0.013-0.03-0.018-0.045-0.03c-0.135-0.149-0.283-0.282-0.446-0.386
						c-0.599-0.386-1.332-0.5-2.058-0.585c-0.726-0.084-1.468-0.146-2.116-0.44c-0.313-0.142-0.628-0.395-0.613-0.827
						C151.39,311.469,151.687,311.076,152.011,310.892z"/>
				</g>
				<g>
					<path style="fill:#43201A;" d="M138.963,311.164c-0.322-0.216-0.664-0.266-0.983-0.276c-2.119-0.07-3.795,1.477-4.256,3.801
						c0.151-0.303,0.327-0.58,0.572-0.774c0.015-0.012,0.031-0.015,0.046-0.025c0.136-0.135,0.285-0.252,0.448-0.34
						c0.602-0.324,1.336-0.362,2.062-0.371c0.726-0.009,1.468,0.006,2.118-0.221c0.314-0.109,0.631-0.33,0.619-0.763
						C139.579,311.805,139.285,311.38,138.963,311.164z"/>
				</g>
				<path style="fill:#FFFFFF;" d="M140.334,332.941c0,0,4.51,2.638,13.174,0.641c0,0-0.346,5.142-4.383,6.827
					c-2.138,0.892-4.67,0.314-6.225-1.403C141.821,337.813,140.73,335.912,140.334,332.941z"/>
				<g>
					<path style="fill:#43201A;" d="M140.548,321.331c0.013,0.058,0.025,0.117,0.036,0.176c0.106,0.569,0.11,1.174-0.114,1.708
						c-0.224,0.533-0.709,0.98-1.284,1.045c-0.716,0.081-1.381-0.431-1.764-1.042c-0.733-1.17-0.878-4.082,1.17-3.948
						c0.537,0.035,1.033,0.345,1.369,0.766C140.259,320.409,140.441,320.863,140.548,321.331z"/>
					<path style="fill:#43201A;" d="M155.668,320.237c0.013,0.058,0.025,0.117,0.036,0.176c0.106,0.569,0.11,1.174-0.114,1.708
						c-0.224,0.534-0.709,0.98-1.284,1.045c-0.716,0.081-1.381-0.431-1.763-1.042c-0.733-1.17-0.878-4.082,1.17-3.948
						c0.537,0.035,1.033,0.345,1.369,0.766C155.38,319.314,155.562,319.769,155.668,320.237z"/>
				</g>
			</g>
			<g>
				<path style="fill:#3C5262;" d="M292.697,438.373h-83.558c-5.182,0-9.383,4.201-9.383,9.384l0,0h92.942V438.373z"/>
				<path style="fill:#B5CADD;" d="M370.275,384.664H269.287c-0.953,0-1.819,0.556-2.215,1.423l-26.639,58.22
					c-0.738,1.614,0.441,3.45,2.215,3.45h100.989c0.953,0,1.819-0.556,2.215-1.423l26.639-58.22
					C373.229,386.5,372.05,384.664,370.275,384.664z"/>
				<path style="fill:#FFFFFF;" d="M315.402,411.423c-3.141-5.7-9.911-1.804-11.566,2.941c-1.157,3.317-0.472,8.648,3.668,9.391
					c3.992,0.716,7.555-3.786,8.532-7.179C316.533,414.85,316.243,412.949,315.402,411.423z"/>
			</g>
			<g>
				<g>
					<path style="fill:#FACCBC;" d="M269.389,301.158c-0.588,1.185-1.827,1.907-3.146,2.014l-12.083,1.016l11.334,2.308
						c2.37,0.481,2.477,3.832,0.143,4.464c-0.009-0.009-0.009,0-0.018,0c0,0-0.08,0.392-0.285,0.927
						c-0.116,0.249-0.249,0.552-0.428,0.864c-0.535,0.927-1.435,1.889-2.878,2.094c0,0,0,0.027,0,0.071
						c-0.018,0.143-0.08,0.517-0.232,0.944c-0.276,0.82-0.891,1.88-2.21,2.103l-22.321,0.561l-42.513,36.49
						c-6.416,5.516-13.847,9.713-21.867,12.377l-15.344,5.293l-11.575,3.992l-27.614,9.526c-7.298,2.424-15.14-1.773-17.189-9.187
						c-0.57-2.103-0.615-4.233-0.205-6.22c0.989-4.892,4.669-9.044,9.837-10.354l23.4-6.131l12.03-3.154l23.275-6.095l61.796-39.261
						l0.998-4.197c0.811-3.404,3.101-6.282,6.246-7.833l6.344-3.493l-0.41,3.368c-0.374,3.021,1.577,5.961,4.571,6.505
						c0.339,0.062,0.668,0.089,0.98,0.071l16.761-1.889c0.748-0.08,1.533,0.053,2.139,0.517
						C269.745,299.465,269.852,300.24,269.389,301.158z"/>
				</g>
				<path style="opacity:0.5;fill:#FACCBC;" d="M265.331,311.698c0.208-0.533,0.287-0.923,0.287-0.923
					c0.009,0.002,0.012-0.008,0.021-0.006c-4.487-1.002-8.995-1.859-13.54-2.575c-0.615-0.095-0.809,0.857-0.194,0.952
					C256.413,309.855,260.882,310.704,265.331,311.698z"/>
				<path style="opacity:0.5;fill:#FACCBC;" d="M249.907,313.461c3.98,0.621,7.946,1.358,11.889,2.209
					c0.156-0.425,0.212-0.8,0.232-0.945c-3.952-0.853-7.928-1.592-11.927-2.217C249.487,312.404,249.284,313.355,249.907,313.461z"
					/>
			</g>
			<g>
				<path style="fill:#FFFFFF;" d="M159.749,374.395l-12.839,3.947l-29.163,8.824c-7.707,2.56-15.988-1.873-18.153-9.702
					c-0.602-2.221-0.649-4.47-0.216-6.568c1.045-5.166,4.931-9.552,10.389-10.935l24.712-6.474l12.704-3.331L159.749,374.395z"/>
				<path style="fill:#F58A86;" d="M146.91,378.342l-29.805,10.586c-7.877,2.694-16.341-1.971-18.553-10.21
					c-0.616-2.337-0.664-4.704-0.221-6.912c1.067-5.437,5.04-11.051,10.618-12.507l25.256-5.813L146.91,378.342z"/>
			</g>
			<g>
				<path style="fill:#43201A;" d="M167.704,305.815c-4.564-2.766-6.878-7.994-9.93-12.372c-2.126-3.05-4.743-5.811-7.928-7.727
					c-3.186-1.917-6.975-2.947-10.663-2.478c-1.446,0.184-2.858,0.592-4.306,0.762c-2.046,0.24-4.117,0.001-6.174,0.104
					c-5.673,0.283-11.113,3.293-14.516,7.841c-3.404,4.548-4.76,10.529-3.839,16.134c0.589,3.58,2.045,6.96,2.838,10.5
					c0.793,3.54,0.839,7.502-1.18,10.517c2.202-1.881,3.816-4.441,4.562-7.239c0.223,4.509,2.903,8.821,6.847,11.017
					c0.477-4.821,1.077-9.63,1.794-14.422c0.758,0.709,1.576,1.353,2.468,1.888c0.082-3.611,1.751-6.964,3.199-10.272
					c1.447-3.309,2.726-6.935,1.98-10.469c0.335,3.189,3.338,5.319,6.048,7.032c2.71,1.713,5.696,3.892,5.956,7.088
					c2.858-3.183,4.439-7.481,4.323-11.757c1.03,4.04,4.442,6.935,7.435,9.838c2.992,2.903,5.319,8.068,5.611,12.47
					c1.775-5.328,1.971-12.847,0.812-18.343C164.427,306.825,166.362,306.779,167.704,305.815z"/>
			</g>
			<g style="opacity:0.5;">
				<path style="fill:#43201A;" d="M125.472,284.217c-4.267,0.15-7.831,2.919-10.341,6.182c-2.824,3.671-4.591,8.042-7.521,11.636
					c-1.543,1.892-3.377,3.526-5.626,4.523c-0.383,0.17-0.289,0.842,0.119,0.914c2.108,0.37,4.262,0.061,6.155-0.875
					c-0.163,1.042,0.168,2.176,0.733,3.091c1.022,1.656,3.193,3.348,2.557,5.531c-0.18,0.619,0.784,0.884,0.964,0.266
					c0.54-1.854-0.538-3.501-1.634-4.9c-0.984-1.255-2.588-3.387-1.115-4.9c0.38-0.391-0.131-1.13-0.606-0.785
					c-1.51,1.097-3.308,1.703-5.149,1.732c7.07-4.247,8.647-13.76,15.009-18.828c1.849-1.473,4.068-2.502,6.454-2.586
					C126.114,285.195,126.117,284.195,125.472,284.217z"/>
				<path style="fill:#43201A;" d="M127.9,294.309c-0.213-0.603-1.179-0.343-0.964,0.266c1.786,5.064,0.775,10.934-2.677,15.065
					c-0.41,0.491,0.294,1.202,0.707,0.707C128.64,305.951,129.811,299.724,127.9,294.309z"/>
				<path style="fill:#43201A;" d="M122.735,298.371c-3.855,7.355-4.823,16.062-2.659,24.082c0.167,0.621,1.132,0.357,0.964-0.266
					c-2.093-7.757-1.172-16.194,2.558-23.311C123.897,298.306,123.034,297.8,122.735,298.371z"/>
				<path style="fill:#43201A;" d="M121.356,290.806c-3.166,2.623-5.357,6.373-6.119,10.413c-0.412,2.184-0.325,4.338-0.053,6.534
					c0.306,2.468,0.718,4.993-0.01,7.428c-0.185,0.618,0.78,0.882,0.964,0.266c0.686-2.294,0.43-4.66,0.134-6.994
					c-0.279-2.197-0.503-4.379-0.14-6.581c0.666-4.039,2.777-7.746,5.93-10.358C122.56,291.102,121.849,290.398,121.356,290.806z"/>
				<path style="fill:#43201A;" d="M140.665,303.299c-4.66-2.636-7.511-7.917-7.181-13.257c0.04-0.643-0.961-0.64-1,0
					c-0.351,5.677,2.728,11.322,7.676,14.12C140.721,304.48,141.226,303.617,140.665,303.299z"/>
				<path style="fill:#43201A;" d="M140.635,288.701c-0.481-0.424-1.191,0.28-0.707,0.707c4.689,4.137,6.477,11.04,4.389,16.933
					c-0.215,0.608,0.751,0.869,0.964,0.266C147.479,300.404,145.57,293.054,140.635,288.701z"/>
				<path style="fill:#43201A;" d="M141.322,296.546c-0.295-0.737-0.59-1.475-0.885-2.212c-0.05-0.125-0.109-0.228-0.23-0.299
					c-0.107-0.063-0.265-0.089-0.385-0.05c-0.234,0.076-0.453,0.355-0.349,0.615c0.295,0.737,0.59,1.475,0.885,2.212
					c0.05,0.125,0.109,0.228,0.23,0.299c0.107,0.063,0.265,0.089,0.385,0.05C141.208,297.086,141.426,296.806,141.322,296.546z"/>
				<path style="fill:#43201A;" d="M157.572,304.94c-4.724-3.76-7.889-9.333-8.611-15.338c-0.076-0.631-1.077-0.639-1,0
					c0.753,6.264,3.96,12.109,8.904,16.045C157.364,306.044,158.076,305.341,157.572,304.94z"/>
				<path style="fill:#43201A;" d="M157.831,299.669c-1-3.06-2.592-5.883-4.686-8.326c-0.419-0.489-1.124,0.221-0.707,0.707
					c1.978,2.308,3.485,4.996,4.429,7.885C157.066,300.544,158.032,300.284,157.831,299.669z"/>
				<path style="fill:#43201A;" d="M157.558,301.528c-0.435-0.476-1.14,0.232-0.707,0.707c2.234,2.447,3.372,5.741,3.169,9.043
					c-0.04,0.643,0.961,0.64,1,0C161.24,307.713,159.963,304.162,157.558,301.528z"/>
				<path style="fill:#43201A;" d="M115.744,284.739c-4.09-0.348-8.168,0.815-11.688,2.871c-3.318,1.939-6.381,4.656-8.68,7.739
					c-1.135,1.521-2.012,3.25-2.271,5.146c-0.302,2.207,0.172,4.409,0.535,6.578c0.751,4.489,1.019,9.072,0.776,13.618
					c-0.237,4.43-1.3,9.411-5.297,11.985c-0.539,0.347-0.038,1.213,0.505,0.863c3.205-2.064,4.833-5.683,5.431-9.338
					c0.697-4.259,0.558-8.733,0.134-13.013c-0.217-2.194-0.611-4.351-0.946-6.527c-0.336-2.182-0.385-4.379,0.553-6.426
					c0.809-1.764,2.08-3.266,3.416-4.654c1.367-1.419,2.843-2.741,4.451-3.881c3.808-2.7,8.371-4.361,13.081-3.96
					C116.385,285.794,116.382,284.793,115.744,284.739z"/>
				<path style="fill:#43201A;" d="M100.06,316.791c-0.191-0.612-1.157-0.351-0.964,0.266c1.557,4.98,0.12,10.566-3.369,14.394
					c-1.62,1.778-3.627,3.348-4.617,5.601c-1.169,2.66-0.299,5.422,0.78,7.951c1.168,2.738,2.9,6.141,1.206,9.033
					c-0.326,0.556,0.538,1.06,0.863,0.505c1.423-2.429,0.762-5.333-0.234-7.791c-1.087-2.682-2.855-5.63-1.955-8.62
					c0.763-2.534,3.098-4.217,4.791-6.113c1.69-1.892,2.925-4.168,3.597-6.615C100.93,322.59,100.932,319.581,100.06,316.791z"/>
				<path style="fill:#43201A;" d="M106.999,323.562c-0.398-2.311-1.035-4.574-1.896-6.755c-0.233-0.592-1.201-0.334-0.964,0.266
					c2.924,7.414,3.147,15.762,0.71,23.345c-0.694,2.16-1.608,4.237-2.721,6.213c-0.316,0.561,0.547,1.066,0.863,0.505
					C106.996,340.029,108.381,331.591,106.999,323.562z"/>
				<path style="fill:#43201A;" d="M114.626,353.786c-2.801-2.606-2.634-6.74-2.049-10.204c0.64-3.783,1.688-7.79,0.16-11.504
					c-0.242-0.587-1.209-0.33-0.964,0.266c1.639,3.984,0.186,8.231-0.359,12.279c-0.464,3.444-0.2,7.353,2.505,9.87
					C114.39,354.931,115.098,354.225,114.626,353.786z"/>
				<path style="fill:#43201A;" d="M118.507,334.904c-0.334-0.549-1.199-0.047-0.863,0.505c2.578,4.238,2.746,9.717,0.405,14.095
					c-0.303,0.567,0.56,1.073,0.863,0.505C121.419,345.32,121.272,339.451,118.507,334.904z"/>
				<path style="fill:#43201A;" d="M98.443,347.504c-0.566-3.293-0.446-6.921,1.597-9.709c0.381-0.52-0.487-1.019-0.864-0.505
					c-2.04,2.784-2.278,6.38-1.819,9.695c0.557,4.024,2.176,7.832,2.5,11.898c0.051,0.637,1.051,0.643,1,0
					C100.547,354.987,99.102,351.333,98.443,347.504z"/>
				<path style="fill:#43201A;" d="M90.437,352.39c-0.388-2.017-1.316-3.824-2.603-5.409c-1.175-1.448-2.784-2.952-2.7-4.966
					c0.027-0.643-0.973-0.642-1,0c-0.073,1.77,0.949,3.207,2.025,4.512c1.309,1.589,2.492,3.108,3.073,5.124
					c1.135,3.94-0.115,8.177-3.119,10.944c-0.474,0.437,0.234,1.143,0.707,0.707C89.814,360.542,91.208,356.392,90.437,352.39z"/>
				<path style="fill:#43201A;" d="M107.956,291.706c-3.134,2.378-5.478,5.648-6.697,9.392c-0.2,0.613,0.765,0.876,0.964,0.266
					c1.132-3.475,3.324-6.583,6.238-8.794C108.967,292.185,108.469,291.316,107.956,291.706z"/>
				<path style="fill:#43201A;" d="M99.897,285.801c-3.094,1.366-5.485,3.927-7.07,6.875c-1.84,3.422-2.554,7.284-2.779,11.13
					c-0.143,2.456-0.094,4.917-0.043,7.375c0.013,0.643,1.014,0.645,1,0c-0.152-7.288-0.236-15.517,4.967-21.281
					c1.244-1.379,2.729-2.486,4.43-3.237C100.989,286.405,100.481,285.543,99.897,285.801z"/>
			</g>
			<path style="fill:#F58A86;" d="M143.07,379.142c-5.969,2.359-12.039,4.461-18.191,6.292c-1.762,0.524-3.53,1.026-5.303,1.506
				c-0.436,0.118-0.251,0.797,0.187,0.678c6.195-1.678,12.317-3.623,18.343-5.834c1.725-0.633,3.442-1.288,5.152-1.964
				C143.673,379.656,143.491,378.975,143.07,379.142z"/>
		</g>
		<g>
			<g>
				<path style="fill:#FAE2DB;" d="M92.364,392.593c-1.639-1.162-3.61-1.848-5.616-1.923c2.023-1.385,3.827-3.163,4.779-5.451
					c0.991-2.381,0.921-5.361-0.679-7.468c-1.659-2.184-4.492-2.845-7.1-2.939c-2.976-0.107-6.196,0.239-8.852,1.672
					c-2.445,1.319-4.429,3.868-4.467,6.702c-2.879-2.586-7.599-2.476-10.64-0.173c-3.804,2.881-4.949,8.042-3.997,12.535
					c0.579,2.734,1.853,5.278,3.427,7.574c-2.777,0.367-5.018,2.76-5.549,5.481c-0.676,3.467,0.977,6.905,3.387,9.318
					c0.479,0.48,0.996,0.918,1.526,1.339c-0.085,1.051,0.06,2.119,0.426,3.13c1.396,3.853,5.135,6.035,8.954,6.915
					c2.27,0.523,4.611,0.657,6.933,0.694c2.16,0.034,4.344,0.079,6.498-0.118c1.974-0.18,3.961-0.598,5.7-1.584
					c1.607-0.911,2.919-2.298,3.754-3.945c1.882-3.711,1.036-8.293-1.975-11.121c3.774-1.607,6.85-4.891,7.749-8.953
					C97.59,399.915,96.058,395.211,92.364,392.593z"/>
				<path style="fill:#FAE2DB;" d="M76.927,404.598c2.441-2.441,4.883-4.883,7.324-7.324c0.754-0.754-0.416-1.925-1.171-1.171
					c-2.153,2.153-4.307,4.307-6.46,6.46v-8.622c0-1.065-1.656-1.067-1.656,0v25.101l-2.798-2.798c-0.307-0.307-0.868-0.329-1.171,0
					c-0.303,0.33-0.327,0.844,0,1.171l3.662,3.662c0.086,0.086,0.192,0.147,0.307,0.187v17.905c0,1.065,1.656,1.067,1.656,0v-25.409
					c0.111-0.038,0.216-0.099,0.307-0.19l3.296-3.296c0.307-0.307,0.329-0.868,0-1.171c-0.331-0.303-0.844-0.327-1.171,0
					c-0.811,0.811-1.621,1.621-2.432,2.432v-6.738C76.726,404.759,76.83,404.695,76.927,404.598z"/>
			</g>
			<g>
				<path style="fill:#FAEEE6;" d="M85.835,429.564H65.094l2.449,15.072c0.388,2.388,2.379,4.159,4.48,4.159h6.884
					c2.101,0,4.092-1.771,4.48-4.159L85.835,429.564z"/>
				<path style="fill:#FAEEE6;" d="M85.779,433.651H65.352c-1.4,0-2.535-1.135-2.535-2.535l0,0c0-1.4,1.135-2.535,2.535-2.535
					h20.427c1.4,0,2.535,1.135,2.535,2.535l0,0C88.314,432.516,87.179,433.651,85.779,433.651z"/>
			</g>
			<g>
				<path style="fill:#FAEEE6;" d="M85.835,429.564H65.094l2.449,15.072c0.388,2.388,2.379,4.159,4.48,4.159h6.884
					c2.101,0,4.092-1.771,4.48-4.159L85.835,429.564z"/>
				<path style="fill:#FAEEE6;" d="M85.779,433.651H65.352c-1.4,0-2.535-1.135-2.535-2.535l0,0c0-1.4,1.135-2.535,2.535-2.535
					h20.427c1.4,0,2.535,1.135,2.535,2.535l0,0C88.314,432.516,87.179,433.651,85.779,433.651z"/>
			</g>
		</g>
		<path style="fill:#3D324A;" d="M356.762,447.756H63.661c-2.961,0-5.362,2.401-5.362,5.362l0,0c0,2.961,2.401,5.362,5.362,5.362
			h293.101c2.961,0,5.362-2.401,5.362-5.362l0,0C362.124,450.157,359.723,447.756,356.762,447.756z"/>
	</g>
	<g>
		<g>
			<g>
				<g>
					<g>
						<g>
							<path style="fill:#FAE2DB;" d="M481.452,164.776c-0.365-0.855-1.444-1.117-2.373-1.144c-4.49-0.134-8.606,2.548-11.775,5.732
								c-4.747,4.769-8.07,10.827-10.231,17.2c-2.161,6.373-3.203,13.075-3.812,19.776l4.843,1.89
								c1.059-6.415,2.64-12.849,5.872-18.49c4.723-8.242,12.687-14.313,17.081-22.735
								C481.417,166.312,481.758,165.494,481.452,164.776z"/>
						</g>
						<path style="fill:#FAE2DB;" d="M468.465,174.478c2.681-0.12,5.291-0.908,7.572-2.327c0.332-0.207,0.07-0.764-0.267-0.554
							c-2.107,1.31-4.514,2.091-6.991,2.247c0.056-0.059,0.108-0.121,0.165-0.18c2.153-2.204,4.594-4.121,7.288-5.622
							c0.344-0.192,0.081-0.748-0.266-0.554c-4.183,2.331-7.74,5.629-10.61,9.443c-0.108-1.312,0.195-2.642,0.886-3.772
							c0.206-0.337-0.297-0.69-0.504-0.352c-0.884,1.447-1.212,3.177-0.907,4.846c-0.289,0.403-0.58,0.805-0.854,1.217
							c-1.73,2.608-3.146,5.397-4.304,8.294c-0.232-1.525-0.211-3.073,0.089-4.591c0.077-0.388-0.537-0.434-0.613-0.05
							c-0.353,1.784-0.344,3.625,0.018,5.406c0.02,0.098,0.073,0.163,0.141,0.201c-0.951,2.523-1.725,5.115-2.33,7.74
							c-0.005,0.021-0.009,0.043-0.014,0.064c-0.16-1.156-0.164-2.325,0.007-3.484c0.057-0.392-0.556-0.44-0.613-0.05
							c-0.208,1.418-0.174,2.866,0.094,4.274c0.033,0.172,0.17,0.241,0.306,0.236c-0.703,3.266-1.199,6.573-1.544,9.895
							c-0.041,0.394,0.572,0.443,0.613,0.05c0.207-1.99,0.467-3.979,0.792-5.956c0.036-0.011,0.072-0.026,0.107-0.054
							c1.306-1.021,2.47-2.219,3.457-3.55c0.236-0.319-0.269-0.67-0.504-0.352c-0.843,1.137-1.824,2.159-2.91,3.064
							c0.443-2.526,0.999-5.03,1.714-7.49c0.034-0.004,0.07-0.011,0.107-0.031c2.119-1.103,3.999-2.607,5.547-4.426
							c0.257-0.302-0.25-0.651-0.504-0.352c-1.372,1.613-3.042,2.953-4.892,3.981c0.374-1.222,0.776-2.435,1.235-3.631
							c0.708-1.846,1.53-3.653,2.465-5.398c0.061,0.062,0.146,0.103,0.255,0.092c1.961-0.197,3.876-0.749,5.644-1.621
							c0.355-0.175,0.09-0.73-0.266-0.554c-1.675,0.827-3.476,1.343-5.332,1.548c1.539-2.776,3.369-5.387,5.525-7.723
							C468.311,174.451,468.375,174.482,468.465,174.478z"/>
					</g>
					<g>
						<g>
							<path style="fill:#FAE2DB;" d="M409.681,162.619c0.419-0.883,1.565-1.112,2.542-1.101c4.723,0.05,8.934,3.044,12.127,6.524
								c4.785,5.213,8.018,11.719,10.017,18.507c1.999,6.788,2.809,13.873,3.163,20.941l-5.169,1.779
								c-0.84-6.785-2.226-13.612-5.383-19.677c-4.611-8.86-12.72-15.578-16.978-24.614
								C409.651,164.234,409.328,163.361,409.681,162.619z"/>
						</g>
						<path style="fill:#FAE2DB;" d="M422.911,173.366c-2.811-0.24-5.52-1.179-7.856-2.767c-0.34-0.231-0.041-0.805,0.304-0.571
							c2.158,1.467,4.653,2.39,7.249,2.659c-0.057-0.064-0.109-0.132-0.166-0.196c-2.168-2.407-4.652-4.526-7.417-6.218
							c-0.353-0.216-0.053-0.789,0.303-0.571c4.296,2.627,7.893,6.244,10.746,10.373c0.169-1.374-0.093-2.784-0.77-4
							c-0.202-0.363,0.342-0.713,0.545-0.349c0.867,1.558,1.138,3.39,0.747,5.13c0.287,0.436,0.575,0.87,0.845,1.316
							c1.707,2.813,3.075,5.805,4.169,8.898c0.308-1.592,0.353-3.219,0.102-4.828c-0.064-0.41,0.583-0.433,0.646-0.026
							c0.295,1.889,0.207,3.823-0.249,5.68c-0.025,0.102-0.084,0.168-0.157,0.205c0.892,2.691,1.594,5.448,2.119,8.232
							c0.004,0.023,0.007,0.045,0.012,0.068c0.217-1.208,0.271-2.436,0.142-3.661c-0.044-0.414,0.602-0.438,0.646-0.026
							c0.158,1.499,0.061,3.019-0.281,4.487c-0.042,0.179-0.189,0.246-0.332,0.234c0.6,3.461,0.98,6.956,1.201,10.462
							c0.026,0.416-0.62,0.441-0.646,0.026c-0.132-2.1-0.321-4.2-0.579-6.292c-0.037-0.013-0.075-0.031-0.11-0.061
							c-1.329-1.128-2.501-2.436-3.481-3.877c-0.235-0.345,0.311-0.692,0.545-0.349c0.837,1.23,1.825,2.346,2.927,3.343
							c-0.358-2.673-0.836-5.328-1.481-7.943c-0.036-0.006-0.073-0.015-0.111-0.037c-2.179-1.249-4.091-2.91-5.639-4.886
							c-0.257-0.328,0.29-0.674,0.545-0.349c1.373,1.753,3.071,3.232,4.971,4.391c-0.341-1.299-0.712-2.592-1.143-3.867
							c-0.665-1.97-1.451-3.904-2.36-5.777c-0.067,0.063-0.158,0.102-0.271,0.086c-2.052-0.29-4.041-0.952-5.861-1.943
							c-0.365-0.199-0.063-0.771,0.304-0.571c1.725,0.94,3.595,1.559,5.536,1.853c-1.499-2.982-3.31-5.804-5.475-8.349
							C423.075,173.343,423.006,173.374,422.911,173.366z"/>
					</g>
					<g>
						<g>
							<path style="fill:#FAE2DB;" d="M421.618,145.292c0.773-1.003,2.286-0.979,3.521-0.698
								c5.967,1.358,10.478,6.303,13.568,11.585c4.63,7.913,6.941,17.037,7.611,26.18c0.671,9.143-0.247,18.337-1.736,27.383
								l-7.033,0.837c0.797-8.822,0.912-17.847-1.422-26.392c-3.41-12.483-11.836-23.213-14.751-35.821
								C421.138,147.329,420.968,146.135,421.618,145.292z"/>
						</g>
						<path style="fill:#FAE2DB;" d="M435.425,162.527c-3.494-1.074-6.667-3.007-9.19-5.657c-0.367-0.386,0.169-1.031,0.541-0.64
							c2.331,2.449,5.237,4.301,8.45,5.354c-0.054-0.097-0.101-0.197-0.156-0.293c-2.085-3.643-4.649-7.006-7.688-9.906
							c-0.388-0.37,0.149-1.013,0.541-0.64c4.719,4.504,8.283,10.069,10.763,16.081c0.591-1.693,0.646-3.55,0.121-5.277
							c-0.156-0.515,0.628-0.809,0.785-0.292c0.671,2.21,0.512,4.604-0.461,6.701c0.244,0.63,0.49,1.259,0.71,1.898
							c1.39,4.03,2.303,8.193,2.839,12.409c0.827-1.932,1.329-3.98,1.452-6.085c0.032-0.537,0.857-0.389,0.825,0.144
							c-0.144,2.473-0.786,4.898-1.872,7.123c-0.06,0.122-0.152,0.19-0.254,0.217c0.392,3.652,0.525,7.335,0.426,11.004
							c-0.001,0.03-0.003,0.06-0.004,0.089c0.606-1.47,1.011-3.01,1.183-4.597c0.058-0.536,0.883-0.39,0.825,0.144
							c-0.21,1.942-0.75,3.839-1.586,5.604c-0.102,0.216-0.307,0.26-0.484,0.206c-0.189,4.547-0.666,9.077-1.348,13.576
							c-0.081,0.533-0.906,0.389-0.825-0.144c0.408-2.695,0.744-5.406,0.992-8.125c-0.044-0.027-0.086-0.059-0.123-0.107
							c-1.374-1.793-2.499-3.77-3.345-5.864c-0.203-0.501,0.583-0.792,0.785-0.292c0.723,1.788,1.667,3.471,2.789,5.036
							c0.28-3.482,0.402-6.975,0.301-10.464c-0.044-0.017-0.088-0.039-0.13-0.077c-2.417-2.178-4.382-4.806-5.801-7.733
							c-0.235-0.486,0.552-0.773,0.785-0.292c1.259,2.596,3.002,4.935,5.09,6.922c-0.076-1.739-0.191-3.477-0.387-5.21
							c-0.302-2.677-0.768-5.341-1.405-7.962c-0.102,0.061-0.228,0.086-0.367,0.034c-2.519-0.93-4.856-2.313-6.888-4.067
							c-0.408-0.352,0.131-0.993,0.541-0.64c1.927,1.663,4.125,2.96,6.502,3.864c-1.08-4.187-2.601-8.257-4.645-12.073
							C435.639,162.543,435.543,162.563,435.425,162.527z"/>
					</g>
					<g>
						<g>
							<path style="fill:#FAE2DB;" d="M473.419,145.172c-0.694-1.059-2.205-1.15-3.458-0.965
								c-6.053,0.898-10.929,5.484-14.414,10.514c-5.221,7.536-8.222,16.457-9.589,25.522c-1.367,9.065-1.155,18.302-0.361,27.435
								l6.948,1.371c-0.12-8.857,0.453-17.864,3.434-26.206c4.353-12.186,13.575-22.241,17.444-34.589
								C473.742,147.24,474.002,146.062,473.419,145.172z"/>
						</g>
						<path style="fill:#FAE2DB;" d="M458.335,161.301c3.566-0.804,6.877-2.488,9.595-4.939c0.396-0.357-0.089-1.041-0.491-0.679
							c-2.511,2.263-5.551,3.889-8.835,4.693c0.062-0.092,0.116-0.189,0.178-0.281c2.358-3.473,5.171-6.63,8.422-9.29
							c0.415-0.34-0.072-1.022-0.49-0.679c-5.049,4.131-9.027,9.407-11.96,15.211c-0.46-1.733-0.372-3.589,0.282-5.271
							c0.195-0.501-0.565-0.854-0.761-0.351c-0.838,2.152-0.862,4.552-0.053,6.717c-0.291,0.61-0.584,1.218-0.852,1.838
							c-1.694,3.912-2.922,7.993-3.779,12.156c-0.677-1.989-1.021-4.07-0.983-6.178c0.01-0.538-0.824-0.453-0.834,0.081
							c-0.045,2.477,0.409,4.943,1.323,7.245c0.05,0.126,0.138,0.201,0.237,0.235c-0.67,3.611-1.084,7.274-1.266,10.939
							c-0.002,0.03-0.001,0.06-0.003,0.089c-0.492-1.512-0.778-3.079-0.828-4.674c-0.017-0.539-0.851-0.456-0.834,0.081
							c0.061,1.952,0.454,3.885,1.153,5.709c0.085,0.223,0.286,0.282,0.467,0.242c-0.159,4.548-0.029,9.102,0.306,13.64
							c0.04,0.538,0.874,0.457,0.834-0.081c-0.201-2.718-0.329-5.447-0.368-8.177c0.046-0.023,0.09-0.053,0.131-0.098
							c1.506-1.683,2.779-3.568,3.784-5.591c0.24-0.484-0.521-0.834-0.761-0.351c-0.857,1.727-1.928,3.333-3.166,4.808
							c-0.013-3.493,0.132-6.985,0.499-10.456c0.045-0.014,0.091-0.032,0.136-0.066c2.576-1.988,4.736-4.457,6.375-7.267
							c0.272-0.466-0.491-0.813-0.761-0.351c-1.453,2.492-3.37,4.691-5.604,6.513c0.208-1.728,0.456-3.452,0.784-5.165
							c0.506-2.646,1.174-5.267,2.009-7.831c0.097,0.069,0.221,0.103,0.364,0.062c2.583-0.735,5.018-1.935,7.179-3.529
							c0.434-0.32-0.055-1.001-0.49-0.679c-2.048,1.511-4.339,2.636-6.779,3.356c1.397-4.092,3.224-8.034,5.553-11.683
							C458.121,161.302,458.215,161.329,458.335,161.301z"/>
					</g>
				</g>
				<g>
					<path style="fill:#FAE2DB;" d="M460.101,200.085h-29.102v16.792c0,5.628,4.562,10.19,10.19,10.19h8.722
						c5.628,0,10.19-4.562,10.19-10.19V200.085z"/>
					<path style="fill:#FAE2DB;" d="M459.645,204.023h-29.434c-1.282,0-2.322-1.039-2.322-2.322l0,0
						c0-1.282,1.039-2.322,2.322-2.322h29.434c1.282,0,2.322,1.039,2.322,2.322l0,0
						C461.966,202.984,460.927,204.023,459.645,204.023z"/>
				</g>
			</g>
			<g>
				<g>
					<g>
						<g>
							<path style="fill:#FAE2DB;" d="M481.452,164.776c-0.365-0.855-1.444-1.117-2.373-1.144c-4.49-0.134-8.606,2.548-11.775,5.732
								c-4.747,4.769-8.07,10.827-10.231,17.2c-2.161,6.373-3.203,13.075-3.812,19.776l4.843,1.89
								c1.059-6.415,2.64-12.849,5.872-18.49c4.723-8.242,12.687-14.313,17.081-22.735
								C481.417,166.312,481.758,165.494,481.452,164.776z"/>
						</g>
						<path style="fill:#FAE2DB;" d="M468.465,174.478c2.681-0.12,5.291-0.908,7.572-2.327c0.332-0.207,0.07-0.764-0.267-0.554
							c-2.107,1.31-4.514,2.091-6.991,2.247c0.056-0.059,0.108-0.121,0.165-0.18c2.153-2.204,4.594-4.121,7.288-5.622
							c0.344-0.192,0.081-0.748-0.266-0.554c-4.183,2.331-7.74,5.629-10.61,9.443c-0.108-1.312,0.195-2.642,0.886-3.772
							c0.206-0.337-0.297-0.69-0.504-0.352c-0.884,1.447-1.212,3.177-0.907,4.846c-0.289,0.403-0.58,0.805-0.854,1.217
							c-1.73,2.608-3.146,5.397-4.304,8.294c-0.232-1.525-0.211-3.073,0.089-4.591c0.077-0.388-0.537-0.434-0.613-0.05
							c-0.353,1.784-0.344,3.625,0.018,5.406c0.02,0.098,0.073,0.163,0.141,0.201c-0.951,2.523-1.725,5.115-2.33,7.74
							c-0.005,0.021-0.009,0.043-0.014,0.064c-0.16-1.156-0.164-2.325,0.007-3.484c0.057-0.392-0.556-0.44-0.613-0.05
							c-0.208,1.418-0.174,2.866,0.094,4.274c0.033,0.172,0.17,0.241,0.306,0.236c-0.703,3.266-1.199,6.573-1.544,9.895
							c-0.041,0.394,0.572,0.443,0.613,0.05c0.207-1.99,0.467-3.979,0.792-5.956c0.036-0.011,0.072-0.026,0.107-0.054
							c1.306-1.021,2.47-2.219,3.457-3.55c0.236-0.319-0.269-0.67-0.504-0.352c-0.843,1.137-1.824,2.159-2.91,3.064
							c0.443-2.526,0.999-5.03,1.714-7.49c0.034-0.004,0.07-0.011,0.107-0.031c2.119-1.103,3.999-2.607,5.547-4.426
							c0.257-0.302-0.25-0.651-0.504-0.352c-1.372,1.613-3.042,2.953-4.892,3.981c0.374-1.222,0.776-2.435,1.235-3.631
							c0.708-1.846,1.53-3.653,2.465-5.398c0.061,0.062,0.146,0.103,0.255,0.092c1.961-0.197,3.876-0.749,5.644-1.621
							c0.355-0.175,0.09-0.73-0.266-0.554c-1.675,0.827-3.476,1.343-5.332,1.548c1.539-2.776,3.369-5.387,5.525-7.723
							C468.311,174.451,468.375,174.482,468.465,174.478z"/>
					</g>
					<g>
						<g>
							<path style="fill:#FAE2DB;" d="M409.681,162.619c0.419-0.883,1.565-1.112,2.542-1.101c4.723,0.05,8.934,3.044,12.127,6.524
								c4.785,5.213,8.018,11.719,10.017,18.507c1.999,6.788,2.809,13.873,3.163,20.941l-5.169,1.779
								c-0.84-6.785-2.226-13.612-5.383-19.677c-4.611-8.86-12.72-15.578-16.978-24.614
								C409.651,164.234,409.328,163.361,409.681,162.619z"/>
						</g>
						<path style="fill:#FAE2DB;" d="M422.911,173.366c-2.811-0.24-5.52-1.179-7.856-2.767c-0.34-0.231-0.041-0.805,0.304-0.571
							c2.158,1.467,4.653,2.39,7.249,2.659c-0.057-0.064-0.109-0.132-0.166-0.196c-2.168-2.407-4.652-4.526-7.417-6.218
							c-0.353-0.216-0.053-0.789,0.303-0.571c4.296,2.627,7.893,6.244,10.746,10.373c0.169-1.374-0.093-2.784-0.77-4
							c-0.202-0.363,0.342-0.713,0.545-0.349c0.867,1.558,1.138,3.39,0.747,5.13c0.287,0.436,0.575,0.87,0.845,1.316
							c1.707,2.813,3.075,5.805,4.169,8.898c0.308-1.592,0.353-3.219,0.102-4.828c-0.064-0.41,0.583-0.433,0.646-0.026
							c0.295,1.889,0.207,3.823-0.249,5.68c-0.025,0.102-0.084,0.168-0.157,0.205c0.892,2.691,1.594,5.448,2.119,8.232
							c0.004,0.023,0.007,0.045,0.012,0.068c0.217-1.208,0.271-2.436,0.142-3.661c-0.044-0.414,0.602-0.438,0.646-0.026
							c0.158,1.499,0.061,3.019-0.281,4.487c-0.042,0.179-0.189,0.246-0.332,0.234c0.6,3.461,0.98,6.956,1.201,10.462
							c0.026,0.416-0.62,0.441-0.646,0.026c-0.132-2.1-0.321-4.2-0.579-6.292c-0.037-0.013-0.075-0.031-0.11-0.061
							c-1.329-1.128-2.501-2.436-3.481-3.877c-0.235-0.345,0.311-0.692,0.545-0.349c0.837,1.23,1.825,2.346,2.927,3.343
							c-0.358-2.673-0.836-5.328-1.481-7.943c-0.036-0.006-0.073-0.015-0.111-0.037c-2.179-1.249-4.091-2.91-5.639-4.886
							c-0.257-0.328,0.29-0.674,0.545-0.349c1.373,1.753,3.071,3.232,4.971,4.391c-0.341-1.299-0.712-2.592-1.143-3.867
							c-0.665-1.97-1.451-3.904-2.36-5.777c-0.067,0.063-0.158,0.102-0.271,0.086c-2.052-0.29-4.041-0.952-5.861-1.943
							c-0.365-0.199-0.063-0.771,0.304-0.571c1.725,0.94,3.595,1.559,5.536,1.853c-1.499-2.982-3.31-5.804-5.475-8.349
							C423.075,173.343,423.006,173.374,422.911,173.366z"/>
					</g>
					<g>
						<g>
							<path style="fill:#FAE2DB;" d="M421.618,145.292c0.773-1.003,2.286-0.979,3.521-0.698
								c5.967,1.358,10.478,6.303,13.568,11.585c4.63,7.913,6.941,17.037,7.611,26.18c0.671,9.143-0.247,18.337-1.736,27.383
								l-7.033,0.837c0.797-8.822,0.912-17.847-1.422-26.392c-3.41-12.483-11.836-23.213-14.751-35.821
								C421.138,147.329,420.968,146.135,421.618,145.292z"/>
						</g>
						<path style="fill:#FAE2DB;" d="M435.425,162.527c-3.494-1.074-6.667-3.007-9.19-5.657c-0.367-0.386,0.169-1.031,0.541-0.64
							c2.331,2.449,5.237,4.301,8.45,5.354c-0.054-0.097-0.101-0.197-0.156-0.293c-2.085-3.643-4.649-7.006-7.688-9.906
							c-0.388-0.37,0.149-1.013,0.541-0.64c4.719,4.504,8.283,10.069,10.763,16.081c0.591-1.693,0.646-3.55,0.121-5.277
							c-0.156-0.515,0.628-0.809,0.785-0.292c0.671,2.21,0.512,4.604-0.461,6.701c0.244,0.63,0.49,1.259,0.71,1.898
							c1.39,4.03,2.303,8.193,2.839,12.409c0.827-1.932,1.329-3.98,1.452-6.085c0.032-0.537,0.857-0.389,0.825,0.144
							c-0.144,2.473-0.786,4.898-1.872,7.123c-0.06,0.122-0.152,0.19-0.254,0.217c0.392,3.652,0.525,7.335,0.426,11.004
							c-0.001,0.03-0.003,0.06-0.004,0.089c0.606-1.47,1.011-3.01,1.183-4.597c0.058-0.536,0.883-0.39,0.825,0.144
							c-0.21,1.942-0.75,3.839-1.586,5.604c-0.102,0.216-0.307,0.26-0.484,0.206c-0.189,4.547-0.666,9.077-1.348,13.576
							c-0.081,0.533-0.906,0.389-0.825-0.144c0.408-2.695,0.744-5.406,0.992-8.125c-0.044-0.027-0.086-0.059-0.123-0.107
							c-1.374-1.793-2.499-3.77-3.345-5.864c-0.203-0.501,0.583-0.792,0.785-0.292c0.723,1.788,1.667,3.471,2.789,5.036
							c0.28-3.482,0.402-6.975,0.301-10.464c-0.044-0.017-0.088-0.039-0.13-0.077c-2.417-2.178-4.382-4.806-5.801-7.733
							c-0.235-0.486,0.552-0.773,0.785-0.292c1.259,2.596,3.002,4.935,5.09,6.922c-0.076-1.739-0.191-3.477-0.387-5.21
							c-0.302-2.677-0.768-5.341-1.405-7.962c-0.102,0.061-0.228,0.086-0.367,0.034c-2.519-0.93-4.856-2.313-6.888-4.067
							c-0.408-0.352,0.131-0.993,0.541-0.64c1.927,1.663,4.125,2.96,6.502,3.864c-1.08-4.187-2.601-8.257-4.645-12.073
							C435.639,162.543,435.543,162.563,435.425,162.527z"/>
					</g>
					<g>
						<g>
							<path style="fill:#FAE2DB;" d="M473.419,145.172c-0.694-1.059-2.205-1.15-3.458-0.965
								c-6.053,0.898-10.929,5.484-14.414,10.514c-5.221,7.536-8.222,16.457-9.589,25.522c-1.367,9.065-1.155,18.302-0.361,27.435
								l6.948,1.371c-0.12-8.857,0.453-17.864,3.434-26.206c4.353-12.186,13.575-22.241,17.444-34.589
								C473.742,147.24,474.002,146.062,473.419,145.172z"/>
						</g>
						<path style="fill:#FAE2DB;" d="M458.335,161.301c3.566-0.804,6.877-2.488,9.595-4.939c0.396-0.357-0.089-1.041-0.491-0.679
							c-2.511,2.263-5.551,3.889-8.835,4.693c0.062-0.092,0.116-0.189,0.178-0.281c2.358-3.473,5.171-6.63,8.422-9.29
							c0.415-0.34-0.072-1.022-0.49-0.679c-5.049,4.131-9.027,9.407-11.96,15.211c-0.46-1.733-0.372-3.589,0.282-5.271
							c0.195-0.501-0.565-0.854-0.761-0.351c-0.838,2.152-0.862,4.552-0.053,6.717c-0.291,0.61-0.584,1.218-0.852,1.838
							c-1.694,3.912-2.922,7.993-3.779,12.156c-0.677-1.989-1.021-4.07-0.983-6.178c0.01-0.538-0.824-0.453-0.834,0.081
							c-0.045,2.477,0.409,4.943,1.323,7.245c0.05,0.126,0.138,0.201,0.237,0.235c-0.67,3.611-1.084,7.274-1.266,10.939
							c-0.002,0.03-0.001,0.06-0.003,0.089c-0.492-1.512-0.778-3.079-0.828-4.674c-0.017-0.539-0.851-0.456-0.834,0.081
							c0.061,1.952,0.454,3.885,1.153,5.709c0.085,0.223,0.286,0.282,0.467,0.242c-0.159,4.548-0.029,9.102,0.306,13.64
							c0.04,0.538,0.874,0.457,0.834-0.081c-0.201-2.718-0.329-5.447-0.368-8.177c0.046-0.023,0.09-0.053,0.131-0.098
							c1.506-1.683,2.779-3.568,3.784-5.591c0.24-0.484-0.521-0.834-0.761-0.351c-0.857,1.727-1.928,3.333-3.166,4.808
							c-0.013-3.493,0.132-6.985,0.499-10.456c0.045-0.014,0.091-0.032,0.136-0.066c2.576-1.988,4.736-4.457,6.375-7.267
							c0.272-0.466-0.491-0.813-0.761-0.351c-1.453,2.492-3.37,4.691-5.604,6.513c0.208-1.728,0.456-3.452,0.784-5.165
							c0.506-2.646,1.174-5.267,2.009-7.831c0.097,0.069,0.221,0.103,0.364,0.062c2.583-0.735,5.018-1.935,7.179-3.529
							c0.434-0.32-0.055-1.001-0.49-0.679c-2.048,1.511-4.339,2.636-6.779,3.356c1.397-4.092,3.224-8.034,5.553-11.683
							C458.121,161.302,458.215,161.329,458.335,161.301z"/>
					</g>
				</g>
				<g>
					<path style="fill:#FAE2DB;" d="M460.101,200.085h-29.102v16.792c0,5.628,4.562,10.19,10.19,10.19h8.722
						c5.628,0,10.19-4.562,10.19-10.19V200.085z"/>
					<path style="fill:#FAE2DB;" d="M459.645,204.023h-29.434c-1.282,0-2.322-1.039-2.322-2.322l0,0
						c0-1.282,1.039-2.322,2.322-2.322h29.434c1.282,0,2.322,1.039,2.322,2.322l0,0
						C461.966,202.984,460.927,204.023,459.645,204.023z"/>
				</g>
			</g>
			<g>
				<g>
					<g>
						<g>
							<path style="fill:#FAE2DB;" d="M481.452,164.776c-0.365-0.855-1.444-1.117-2.373-1.144c-4.49-0.134-8.606,2.548-11.775,5.732
								c-4.747,4.769-8.07,10.827-10.231,17.2c-2.161,6.373-3.203,13.075-3.812,19.776l4.843,1.89
								c1.059-6.415,2.64-12.849,5.872-18.49c4.723-8.242,12.687-14.313,17.081-22.735
								C481.417,166.312,481.758,165.494,481.452,164.776z"/>
						</g>
						<path style="fill:#FAE2DB;" d="M468.465,174.478c2.681-0.12,5.291-0.908,7.572-2.327c0.332-0.207,0.07-0.764-0.267-0.554
							c-2.107,1.31-4.514,2.091-6.991,2.247c0.056-0.059,0.108-0.121,0.165-0.18c2.153-2.204,4.594-4.121,7.288-5.622
							c0.344-0.192,0.081-0.748-0.266-0.554c-4.183,2.331-7.74,5.629-10.61,9.443c-0.108-1.312,0.195-2.642,0.886-3.772
							c0.206-0.337-0.297-0.69-0.504-0.352c-0.884,1.447-1.212,3.177-0.907,4.846c-0.289,0.403-0.58,0.805-0.854,1.217
							c-1.73,2.608-3.146,5.397-4.304,8.294c-0.232-1.525-0.211-3.073,0.089-4.591c0.077-0.388-0.537-0.434-0.613-0.05
							c-0.353,1.784-0.344,3.625,0.018,5.406c0.02,0.098,0.073,0.163,0.141,0.201c-0.951,2.523-1.725,5.115-2.33,7.74
							c-0.005,0.021-0.009,0.043-0.014,0.064c-0.16-1.156-0.164-2.325,0.007-3.484c0.057-0.392-0.556-0.44-0.613-0.05
							c-0.208,1.418-0.174,2.866,0.094,4.274c0.033,0.172,0.17,0.241,0.306,0.236c-0.703,3.266-1.199,6.573-1.544,9.895
							c-0.041,0.394,0.572,0.443,0.613,0.05c0.207-1.99,0.467-3.979,0.792-5.956c0.036-0.011,0.072-0.026,0.107-0.054
							c1.306-1.021,2.47-2.219,3.457-3.55c0.236-0.319-0.269-0.67-0.504-0.352c-0.843,1.137-1.824,2.159-2.91,3.064
							c0.443-2.526,0.999-5.03,1.714-7.49c0.034-0.004,0.07-0.011,0.107-0.031c2.119-1.103,3.999-2.607,5.547-4.426
							c0.257-0.302-0.25-0.651-0.504-0.352c-1.372,1.613-3.042,2.953-4.892,3.981c0.374-1.222,0.776-2.435,1.235-3.631
							c0.708-1.846,1.53-3.653,2.465-5.398c0.061,0.062,0.146,0.103,0.255,0.092c1.961-0.197,3.876-0.749,5.644-1.621
							c0.355-0.175,0.09-0.73-0.266-0.554c-1.675,0.827-3.476,1.343-5.332,1.548c1.539-2.776,3.369-5.387,5.525-7.723
							C468.311,174.451,468.375,174.482,468.465,174.478z"/>
					</g>
					<g>
						<g>
							<path style="fill:#FAE2DB;" d="M409.681,162.619c0.419-0.883,1.565-1.112,2.542-1.101c4.723,0.05,8.934,3.044,12.127,6.524
								c4.785,5.213,8.018,11.719,10.017,18.507c1.999,6.788,2.809,13.873,3.163,20.941l-5.169,1.779
								c-0.84-6.785-2.226-13.612-5.383-19.677c-4.611-8.86-12.72-15.578-16.978-24.614
								C409.651,164.234,409.328,163.361,409.681,162.619z"/>
						</g>
						<path style="fill:#FAE2DB;" d="M422.911,173.366c-2.811-0.24-5.52-1.179-7.856-2.767c-0.34-0.231-0.041-0.805,0.304-0.571
							c2.158,1.467,4.653,2.39,7.249,2.659c-0.057-0.064-0.109-0.132-0.166-0.196c-2.168-2.407-4.652-4.526-7.417-6.218
							c-0.353-0.216-0.053-0.789,0.303-0.571c4.296,2.627,7.893,6.244,10.746,10.373c0.169-1.374-0.093-2.784-0.77-4
							c-0.202-0.363,0.342-0.713,0.545-0.349c0.867,1.558,1.138,3.39,0.747,5.13c0.287,0.436,0.575,0.87,0.845,1.316
							c1.707,2.813,3.075,5.805,4.169,8.898c0.308-1.592,0.353-3.219,0.102-4.828c-0.064-0.41,0.583-0.433,0.646-0.026
							c0.295,1.889,0.207,3.823-0.249,5.68c-0.025,0.102-0.084,0.168-0.157,0.205c0.892,2.691,1.594,5.448,2.119,8.232
							c0.004,0.023,0.007,0.045,0.012,0.068c0.217-1.208,0.271-2.436,0.142-3.661c-0.044-0.414,0.602-0.438,0.646-0.026
							c0.158,1.499,0.061,3.019-0.281,4.487c-0.042,0.179-0.189,0.246-0.332,0.234c0.6,3.461,0.98,6.956,1.201,10.462
							c0.026,0.416-0.62,0.441-0.646,0.026c-0.132-2.1-0.321-4.2-0.579-6.292c-0.037-0.013-0.075-0.031-0.11-0.061
							c-1.329-1.128-2.501-2.436-3.481-3.877c-0.235-0.345,0.311-0.692,0.545-0.349c0.837,1.23,1.825,2.346,2.927,3.343
							c-0.358-2.673-0.836-5.328-1.481-7.943c-0.036-0.006-0.073-0.015-0.111-0.037c-2.179-1.249-4.091-2.91-5.639-4.886
							c-0.257-0.328,0.29-0.674,0.545-0.349c1.373,1.753,3.071,3.232,4.971,4.391c-0.341-1.299-0.712-2.592-1.143-3.867
							c-0.665-1.97-1.451-3.904-2.36-5.777c-0.067,0.063-0.158,0.102-0.271,0.086c-2.052-0.29-4.041-0.952-5.861-1.943
							c-0.365-0.199-0.063-0.771,0.304-0.571c1.725,0.94,3.595,1.559,5.536,1.853c-1.499-2.982-3.31-5.804-5.475-8.349
							C423.075,173.343,423.006,173.374,422.911,173.366z"/>
					</g>
					<g>
						<g>
							<path style="fill:#FAE2DB;" d="M421.618,145.292c0.773-1.003,2.286-0.979,3.521-0.698
								c5.967,1.358,10.478,6.303,13.568,11.585c4.63,7.913,6.941,17.037,7.611,26.18c0.671,9.143-0.247,18.337-1.736,27.383
								l-7.033,0.837c0.797-8.822,0.912-17.847-1.422-26.392c-3.41-12.483-11.836-23.213-14.751-35.821
								C421.138,147.329,420.968,146.135,421.618,145.292z"/>
						</g>
						<path style="fill:#FAE2DB;" d="M435.425,162.527c-3.494-1.074-6.667-3.007-9.19-5.657c-0.367-0.386,0.169-1.031,0.541-0.64
							c2.331,2.449,5.237,4.301,8.45,5.354c-0.054-0.097-0.101-0.197-0.156-0.293c-2.085-3.643-4.649-7.006-7.688-9.906
							c-0.388-0.37,0.149-1.013,0.541-0.64c4.719,4.504,8.283,10.069,10.763,16.081c0.591-1.693,0.646-3.55,0.121-5.277
							c-0.156-0.515,0.628-0.809,0.785-0.292c0.671,2.21,0.512,4.604-0.461,6.701c0.244,0.63,0.49,1.259,0.71,1.898
							c1.39,4.03,2.303,8.193,2.839,12.409c0.827-1.932,1.329-3.98,1.452-6.085c0.032-0.537,0.857-0.389,0.825,0.144
							c-0.144,2.473-0.786,4.898-1.872,7.123c-0.06,0.122-0.152,0.19-0.254,0.217c0.392,3.652,0.525,7.335,0.426,11.004
							c-0.001,0.03-0.003,0.06-0.004,0.089c0.606-1.47,1.011-3.01,1.183-4.597c0.058-0.536,0.883-0.39,0.825,0.144
							c-0.21,1.942-0.75,3.839-1.586,5.604c-0.102,0.216-0.307,0.26-0.484,0.206c-0.189,4.547-0.666,9.077-1.348,13.576
							c-0.081,0.533-0.906,0.389-0.825-0.144c0.408-2.695,0.744-5.406,0.992-8.125c-0.044-0.027-0.086-0.059-0.123-0.107
							c-1.374-1.793-2.499-3.77-3.345-5.864c-0.203-0.501,0.583-0.792,0.785-0.292c0.723,1.788,1.667,3.471,2.789,5.036
							c0.28-3.482,0.402-6.975,0.301-10.464c-0.044-0.017-0.088-0.039-0.13-0.077c-2.417-2.178-4.382-4.806-5.801-7.733
							c-0.235-0.486,0.552-0.773,0.785-0.292c1.259,2.596,3.002,4.935,5.09,6.922c-0.076-1.739-0.191-3.477-0.387-5.21
							c-0.302-2.677-0.768-5.341-1.405-7.962c-0.102,0.061-0.228,0.086-0.367,0.034c-2.519-0.93-4.856-2.313-6.888-4.067
							c-0.408-0.352,0.131-0.993,0.541-0.64c1.927,1.663,4.125,2.96,6.502,3.864c-1.08-4.187-2.601-8.257-4.645-12.073
							C435.639,162.543,435.543,162.563,435.425,162.527z"/>
					</g>
					<g>
						<g>
							<path style="fill:#FAE2DB;" d="M473.419,145.172c-0.694-1.059-2.205-1.15-3.458-0.965
								c-6.053,0.898-10.929,5.484-14.414,10.514c-5.221,7.536-8.222,16.457-9.589,25.522c-1.367,9.065-1.155,18.302-0.361,27.435
								l6.948,1.371c-0.12-8.857,0.453-17.864,3.434-26.206c4.353-12.186,13.575-22.241,17.444-34.589
								C473.742,147.24,474.002,146.062,473.419,145.172z"/>
						</g>
						<path style="fill:#FAE2DB;" d="M458.335,161.301c3.566-0.804,6.877-2.488,9.595-4.939c0.396-0.357-0.089-1.041-0.491-0.679
							c-2.511,2.263-5.551,3.889-8.835,4.693c0.062-0.092,0.116-0.189,0.178-0.281c2.358-3.473,5.171-6.63,8.422-9.29
							c0.415-0.34-0.072-1.022-0.49-0.679c-5.049,4.131-9.027,9.407-11.96,15.211c-0.46-1.733-0.372-3.589,0.282-5.271
							c0.195-0.501-0.565-0.854-0.761-0.351c-0.838,2.152-0.862,4.552-0.053,6.717c-0.291,0.61-0.584,1.218-0.852,1.838
							c-1.694,3.912-2.922,7.993-3.779,12.156c-0.677-1.989-1.021-4.07-0.983-6.178c0.01-0.538-0.824-0.453-0.834,0.081
							c-0.045,2.477,0.409,4.943,1.323,7.245c0.05,0.126,0.138,0.201,0.237,0.235c-0.67,3.611-1.084,7.274-1.266,10.939
							c-0.002,0.03-0.001,0.06-0.003,0.089c-0.492-1.512-0.778-3.079-0.828-4.674c-0.017-0.539-0.851-0.456-0.834,0.081
							c0.061,1.952,0.454,3.885,1.153,5.709c0.085,0.223,0.286,0.282,0.467,0.242c-0.159,4.548-0.029,9.102,0.306,13.64
							c0.04,0.538,0.874,0.457,0.834-0.081c-0.201-2.718-0.329-5.447-0.368-8.177c0.046-0.023,0.09-0.053,0.131-0.098
							c1.506-1.683,2.779-3.568,3.784-5.591c0.24-0.484-0.521-0.834-0.761-0.351c-0.857,1.727-1.928,3.333-3.166,4.808
							c-0.013-3.493,0.132-6.985,0.499-10.456c0.045-0.014,0.091-0.032,0.136-0.066c2.576-1.988,4.736-4.457,6.375-7.267
							c0.272-0.466-0.491-0.813-0.761-0.351c-1.453,2.492-3.37,4.691-5.604,6.513c0.208-1.728,0.456-3.452,0.784-5.165
							c0.506-2.646,1.174-5.267,2.009-7.831c0.097,0.069,0.221,0.103,0.364,0.062c2.583-0.735,5.018-1.935,7.179-3.529
							c0.434-0.32-0.055-1.001-0.49-0.679c-2.048,1.511-4.339,2.636-6.779,3.356c1.397-4.092,3.224-8.034,5.553-11.683
							C458.121,161.302,458.215,161.329,458.335,161.301z"/>
					</g>
				</g>
				<g>
					<path style="fill:#FAE2DB;" d="M460.101,200.085h-29.102v16.792c0,5.628,4.562,10.19,10.19,10.19h8.722
						c5.628,0,10.19-4.562,10.19-10.19V200.085z"/>
					<path style="fill:#FAE2DB;" d="M459.645,204.023h-29.434c-1.282,0-2.322-1.039-2.322-2.322l0,0
						c0-1.282,1.039-2.322,2.322-2.322h29.434c1.282,0,2.322,1.039,2.322,2.322l0,0
						C461.966,202.984,460.927,204.023,459.645,204.023z"/>
				</g>
			</g>
		</g>
		<g>
			<g>
				<g>
					<path style="fill:#3C5262;" d="M418.364,70.764c-0.383-2.719-2.171-5.161-4.543-6.205c-2.288-1.007-5.241-0.95-6.662-3.121
						c-1.505-2.297-0.233-5.41-0.132-8.216c0.176-4.894-3.471-9.096-7.562-11.271c-7.966-4.234-17.309-2.81-26.113-0.795
						c-6.953-1.516-14.417-0.277-20.58,3.506c-1.403,0.861-2.785,1.897-3.601,3.394c-0.816,1.497-0.923,3.557,0.128,4.875
						c0.547,0.687,1.348,1.116,1.831,1.857c0.903,1.387,0.34,3.405-0.79,4.587c-1.13,1.181-2.675,1.755-4.134,2.399
						c-3.272,1.446-6.343,3.412-9.082,5.815c-1.463,1.284-2.883,2.774-3.476,4.7c-0.593,1.925-0.099,4.369,1.554,5.354
						c2.165,1.291,5.612-0.1,6.889,2.177c0.787,1.403,0.006,3.269-1.141,4.349c-1.147,1.08-2.615,1.708-3.759,2.791
						c-2.089,1.975-2.785,5.46-1.635,8.18c1.151,2.72,4.055,4.452,6.815,4.065c2.291-0.321,4.228-1.889,6.206-3.17
						c1.977-1.281,4.366-2.339,6.55-1.531c2.355,0.87,3.596,3.535,4.992,5.748c1.702,2.697,4.018,5.043,6.857,6.198
						c2.839,1.154,6.236,0.974,8.701-0.927c1.767-1.363,3.047-3.543,5.118-4.264c3.001-1.045,5.952,1.399,8.768,2.925
						c5.443,2.95,12.362,2.471,17.407-1.205c2.828-2.061,5.198-5.68,4.283-9.215c-0.784-3.031-3.814-5.379-3.445-8.5
						c0.225-1.905,1.707-3.359,3.261-4.311c1.554-0.952,3.288-1.598,4.668-2.82C417.714,76.383,418.748,73.483,418.364,70.764z"/>
				</g>
				<g>
					<g>
						<path style="fill:#F69F95;" d="M269.624,184.318c0,0-32.645-8.508-37.928,14.283c0,0-2.305,7.714,7.449-5.111
							c0,0,3.982-3.587,6.019-2.463c0,0-10.379,8.843-10.949,12.282c-0.289,1.747,3.276,6.145,13.187-8.86
							c0,0-5.407,8.063-5.801,12.739c-0.171,2.02,2.127,2.933,3.064,1.217l6.456-11.827l-3.691,12.326
							c-0.27,0.9-0.006,1.953,0.712,2.421c1.213,0.789,3.507-0.162,6.849-11.675l0,0c0.037,0.029,0.067,0.08,0.111,0.087
							c6.125,0.92,11.242,0.745,16.342-3.709l0.874-1.33L269.624,184.318z"/>
						<path style="fill:#F69F95;" d="M321.767,207.01l-53.912-11.679v-10.744l52.006-2.242l14.588-54.44
							c1.703-6.354,7.301-10.175,12.938-8.83h0c6.707,1.601,10.603,9.734,8.216,17.154l-18.605,57.834
							C336.121,202.662,329.129,208.605,321.767,207.01z"/>
						<path style="fill:#6DA69C;" d="M347.287,119.076c-5.636-1.345-11.235,2.476-12.938,8.83l-12.399,46.272
							c6.751,6.189,11.132,14.97,14.176,23.459c0.371-1.127,0.643-2.318,0.771-3.574l18.605-57.834
							C357.889,128.81,353.994,120.677,347.287,119.076z"/>
					</g>
				</g>
				<path style="fill:#6DA69C;" d="M421.092,180.77c-1.464,10.729-0.992,29.921,0.212,50.045h-86.033
					c1.751-21.807,0.893-42.647-2.385-64.286c-2.245-14.815,1.4-29.67,7.774-43.032c1.263-2.647,3.813-4.441,6.734-4.707
					c14.42-1.314,29.459-2.807,44.149-1.792c13.273,0.918,27.163,2.811,31.651,17.372
					C426.803,146.086,421.871,174.998,421.092,180.77z"/>
				<path style="fill:#6DA69C;" d="M336.347,184.639c-0.575-4.507-1.305-8.99-1.933-13.489c-0.614-4.392-1.089-8.819-1.04-13.26
					c0.053-4.812,0.732-9.636,2.457-14.147c0.147-0.384-0.47-0.551-0.616-0.17c-3.144,8.221-2.787,17.216-1.679,25.796
					c0.584,4.524,1.347,9.022,1.948,13.544c0.605,4.551,1.111,9.114,1.563,13.682c0.509,5.147,0.951,10.3,1.393,15.454
					c0.035,0.406,0.674,0.41,0.639,0C338.293,202.9,337.508,193.748,336.347,184.639z"/>
				<g>
					<path style="fill:#6DA69C;" d="M392.82,117.022c-0.029,3.403-0.718,6.797-2.134,9.865c-2.493,5.388-7.354,9.643-12.98,10.777
						c-5.636,1.124-11.884-1.134-15.279-5.966c-2.755-3.93-3.434-8.923-3.395-13.876l0.194-0.02l2.532-0.243l0.281-0.041
						l2.212-0.294l4.016-0.527l3.919-0.507l2.454-0.132l0.378-0.01c1.378-0.061,2.765-0.091,4.133-0.091
						c1.222,0,2.454,0.031,3.677,0.081c1.397,0.051,2.794,0.142,4.181,0.273c1.213,0.101,2.416,0.233,3.628,0.385
						c0.019,0,0.029,0,0.039,0.01c0.194,0.03,0.407,0.061,0.601,0.081h0.01C391.355,116.799,391.918,116.88,392.82,117.022z"/>
				</g>
				<path style="fill:#F69F95;" d="M387.005,116.312v0.171c0,8.884-5.098,16.092-11.391,16.092c-6.12,0-11.099-6.808-11.364-15.35
					l4.013-0.524l3.922-0.514l2.453-0.124l0.383-0.019c1.377-0.057,2.763-0.086,4.132-0.086c1.222,0,2.453,0.029,3.675,0.076
					C384.223,116.093,385.619,116.178,387.005,116.312z"/>
				<path style="fill:#F69F95;" d="M383.82,119.96c0.045,3.678-2.012,7.131-5.284,8.857c-0.871,0.435-1.772,0.765-2.657,0.916
					c-5.239,0.931-10.358-3.138-10.103-8.917v-0.15l0.03-0.21l0.015-0.405l0.195-2.627l0.436-6.62
					c0.06-0.706,0.465-1.351,1.111-1.681l5.885-3.032l3.978-2.537l5.99-3.828l0.27-0.15l-0.105,1.621l0.135,12.43l0.075,2.972
					L383.82,119.96z"/>
				<path style="opacity:0.5;fill:#F69F95;" d="M379.556,102.44c0.24,8.242-5.479,15.823-13.781,18.375v-0.15l0.03-0.21l0.015-0.405
					l0.195-2.627l0.436-6.62c0.06-0.706,0.465-1.351,1.111-1.681l5.885-3.032l3.978-2.537L379.556,102.44z"/>
				<path style="fill:#F69F95;" d="M402.365,81.195c0,0-0.525-8.275-6.927-5.181c0,0,4.471-16.303-4.982-21.07
					c0,0-13.119-10.524-27.329-0.74c-2.392,1.647-4.386,3.797-6.015,6.202c-2.313,3.412-5.353,8.84-5.257,13.68
					c0,0,0.455,3.923-0.709,8.602c-0.848,3.411-1.006,6.964-0.356,10.418c0.575,3.055,1.71,6.64,3.907,10.021
					c4.237,6.522,12.36,9.596,19.707,7.043c3.688-1.282,8.061-3.768,12.979-8.29c0,0,5.262-4.724,7.403-12.582
					C394.786,89.299,402.89,89.47,402.365,81.195z"/>
				<path style="opacity:0.5;fill:#F69F95;" d="M372.564,92.926c-1.393,3.384-4.945,5.33-8.549,4.72
					c-0.848-0.144-1.017,1.182-0.17,1.325c4.177,0.708,8.341-1.617,9.951-5.528C374.125,92.647,372.892,92.131,372.564,92.926z"/>
				<path style="fill:#3C5262;" d="M375.197,83.442c-0.217,1.371-1.157,2.377-2.1,2.247c-0.942-0.129-1.531-1.345-1.313-2.716
					c0.217-1.37,1.157-2.377,2.1-2.248C374.826,80.855,375.414,82.071,375.197,83.442z"/>
				<path style="fill:#3C5262;" d="M359.766,81.867c-0.217,1.371-1.157,2.377-2.1,2.247c-0.942-0.129-1.531-1.345-1.313-2.716
					c0.217-1.37,1.157-2.377,2.1-2.248C359.395,79.28,359.983,80.496,359.766,81.867z"/>
				<g>
					<path style="fill:#3C5262;" d="M379.338,79.42c0.004-0.001,0.008-0.005,0.012-0.006c0.064-0.021,0.138-0.016,0.211-0.014
						c-0.676-2.545-2.715-4.72-5.252-5.466c-0.4-0.118-0.828-0.202-1.233-0.099c-0.404,0.104-0.773,0.444-0.788,0.861
						c-0.016,0.463,0.381,0.83,0.774,1.075c0.814,0.508,1.743,0.792,2.654,1.095c0.91,0.303,1.829,0.642,2.583,1.235
						C378.742,78.451,379.104,78.911,379.338,79.42z"/>
				</g>
				<g>
					<path style="fill:#3C5262;" d="M363.69,72.939c-0.264-0.323-0.659-0.508-1.051-0.651c-2.602-0.944-5.683-0.293-7.742,1.543
						c0.381-0.202,0.778-0.369,1.208-0.437c0.026-0.004,0.048,0,0.073-0.003c0.256-0.062,0.517-0.102,0.777-0.11
						c0.959-0.032,1.9,0.24,2.813,0.535c0.913,0.295,1.83,0.617,2.787,0.69c0.462,0.035,0.999-0.025,1.26-0.408
						C364.05,73.755,363.954,73.262,363.69,72.939z"/>
				</g>
				<path style="opacity:0.5;fill:#F69F95;" d="M363.993,91.243c-0.851,0.072-1.705-0.034-2.492-0.38
					c-0.376-0.165-0.767-0.379-1.076-0.652c-0.053-0.047-0.176-0.152-0.193-0.229c0.014,0.067,0.02,0,0.026-0.033
					c0.042-0.213,0.237-0.455,0.342-0.642c0.952-1.695,2.045-3.312,3.272-4.82c0.255-0.314,0.307-0.754,0-1.062
					c-0.264-0.264-0.805-0.316-1.062,0c-0.773,0.951-1.506,1.934-2.183,2.956c-0.321,0.484-0.629,0.977-0.925,1.476
					c-0.306,0.517-0.675,1.057-0.868,1.628c-0.427,1.258,0.8,2.141,1.787,2.617c1.048,0.505,2.209,0.74,3.371,0.641
					c0.404-0.034,0.75-0.32,0.75-0.751C364.743,91.614,364.399,91.208,363.993,91.243z"/>
				<g>
					<path style="fill:#3C5262;" d="M402.692,57.748c-2.535-5.053-7.62-8.551-13.101-9.938c-5.48-1.388-11.313-0.832-16.747,0.726
						c-4.423,1.269-8.689,3.212-12.319,6.04c-3.63,2.828-6.606,6.571-8.186,10.892l-1.169,10.086
						c0.547-3.104,2.307-5.978,4.825-7.876s5.765-2.798,8.9-2.469c0.955,0.1,2.12,0.553,2.154,1.513
						c0.02,0.562-0.379,1.037-0.629,1.541c-0.829,1.668,0.269,3.976,2.087,4.385c1.818,0.408,3.798-1.208,3.762-3.071
						c-0.022-1.112-0.638-2.149-0.647-3.261c-0.012-1.454,1.059-2.757,2.372-3.38c1.314-0.623,2.826-0.674,4.274-0.554
						c1.287,0.106,2.593,0.349,3.709,0.998c1.116,0.649,2.022,1.762,2.154,3.047c0.186,1.812-1.117,3.389-2.214,4.843
						c-1.097,1.454-2.089,3.392-1.266,5.016c0.854,1.685,3.352,2.277,3.724,4.128c0.21,1.043-0.385,2.089-1.127,2.853
						c-0.741,0.764-1.648,1.365-2.312,2.196c-1.58,1.977-1.392,5.076,0.255,6.998c1.648,1.922,4.509,2.608,6.928,1.864
						c2.419-0.744,4.34-2.786,5.174-5.176c1.05-3.012,0.512-6.483,1.973-9.32c1.302-2.529,3.932-4.054,5.815-6.186
						C404.823,69.408,405.227,62.801,402.692,57.748z"/>
				</g>
			</g>
			<g>
				<path style="fill:#3C5262;" d="M275.649,215.116h79.291c4.918,0,8.904,3.987,8.904,8.904l0,0h-88.195V215.116z"/>
				<path style="fill:#B5CADD;" d="M202.033,164.15h95.831c0.904,0,1.726,0.527,2.102,1.35l25.279,55.247
					c0.701,1.531-0.418,3.274-2.102,3.274h-95.831c-0.904,0-1.726-0.527-2.102-1.35l-25.279-55.247
					C199.23,165.892,200.349,164.15,202.033,164.15z"/>
				<path style="fill:#FFFFFF;" d="M253.502,194.432c0.927,3.219,4.308,7.492,8.096,6.812c3.928-0.705,4.579-5.764,3.48-8.912
					c-1.571-4.502-7.994-8.199-10.975-2.79C253.306,190.991,253.03,192.794,253.502,194.432z"/>
			</g>
		</g>
		<path style="fill:#3D324A;" d="M466.824,224.02H188.691c-2.81,0-5.088,2.278-5.088,5.088l0,0c0,2.81,2.278,5.088,5.088,5.088
			h278.132c2.81,0,5.088-2.278,5.088-5.088l0,0C471.912,226.298,469.634,224.02,466.824,224.02z"/>
		<g>
			<g>
				<path style="fill:#F69F95;" d="M421.79,142.155l-31.67,55.14c-1.61,2.8-3.41,5.47-5.4,7.99c-3.36,4.29-7.25,8.17-11.58,11.54
					l-45.56,35.42l-5.15,22.42c-0.5,1.28-1.69,1.68-2.58,1.79c-0.46,0.07-0.85,0.05-1,0.04c-0.04-0.01-0.07-0.01-0.07-0.01
					c-0.5,1.42-1.66,2.13-2.7,2.48c-0.35,0.12-0.68,0.19-0.97,0.25c-0.58,0.1-0.99,0.1-0.99,0.1c0,0.01-0.01,0.01-0.01,0.02
					c-1.11,2.22-4.47,1.43-4.47-1.06v-11.92l-3.51,11.99c-0.38,1.31-1.36,2.41-2.68,2.76c-1.02,0.28-1.78,0.01-2.23-0.94
					c-0.34-0.7-0.32-1.52-0.08-2.26l5.35-16.53c0.67-2.5-1-7.14-1-7.14h-7.63l4.47-5.79c2.21-2.85,5.59-4.57,9.19-4.69l4.44-0.15
					l52.31-54.31l0.51-1.05l28.56-59.01c2.39-4.94,7.33-7.81,12.47-7.81c2.09,0,4.23,0.48,6.24,1.5
					C423.11,126.505,425.74,135.285,421.79,142.155z"/>
			</g>
			<path style="opacity:0.5;fill:#F69F95;" d="M315.115,279.212c-0.581,0.1-0.991,0.1-0.991,0.1c0,0.01-0.01,0.01-0.01,0.02
				c-0.09-4.735-0.03-9.46,0.18-14.196c0.03-0.641,1.031-0.641,1.001,0C315.085,269.832,315.025,274.517,315.115,279.212z"/>
			<path style="opacity:0.5;fill:#F69F95;" d="M320.06,264.006c-0.19,4.145-0.26,8.299-0.21,12.454
				c-0.461,0.07-0.851,0.05-1.001,0.04c-0.05-4.165,0.02-8.329,0.21-12.494C319.079,263.365,320.08,263.355,320.06,264.006z"/>
			<path style="fill:#6DA69C;" d="M416.05,122.925c-2.01-1.02-4.15-1.5-6.24-1.5c-5.14,0-10.08,2.87-12.47,7.81l-28.56,59.01
				c2.73,0.93,5.29,2.33,7.54,4.13c4.11,3.29,7.03,7.85,8.4,12.91c1.99-2.52,3.79-5.19,5.4-7.99l31.67-55.14
				C425.74,135.285,423.11,126.505,416.05,122.925z"/>
			<path style="fill:#6DA69C;" d="M390.448,143.199c-6.376,11.338-12.352,22.901-17.906,34.664c-1.577,3.34-3.12,6.696-4.629,10.067
				c-0.261,0.583,0.601,1.092,0.863,0.505c5.317-11.872,11.053-23.556,17.2-35.02c1.746-3.255,3.525-6.492,5.336-9.712
				C391.628,143.142,390.764,142.638,390.448,143.199z"/>
			<path style="fill:#6DA69C;" d="M417.38,148.871c-4.484,7.224-8.861,14.515-13.125,21.872
				c-4.244,7.322-8.377,14.708-12.397,22.154c-2.278,4.22-4.52,8.459-6.726,12.717c-0.296,0.571,0.567,1.077,0.864,0.505
				c3.912-7.55,7.936-15.041,12.074-22.469c4.119-7.393,8.349-14.723,12.689-21.988c2.46-4.117,4.955-8.212,7.484-12.286
				C418.584,148.827,417.719,148.325,417.38,148.871z"/>
		</g>
	</g>
</g>
</svg>
