<?xml version="1.0" encoding="utf-8"?>
<!-- Generator: Adobe Illustrator 27.5.0, SVG Export Plug-In . SVG Version: 6.00 Build 0)  -->
<svg version="1.1" xmlns="http://www.w3.org/2000/svg" xmlns:xlink="http://www.w3.org/1999/xlink" x="0px" y="0px"
	 viewBox="0 0 700 500" style="enable-background:new 0 0 700 500;" xml:space="preserve">
<g id="Background_Simple">
	<g>
		<path style="fill:#92E3A9;" d="M592.927,126.537c-27.447-72.22-89.358-105.565-163.11-86.842
			c-60.324,15.315-89.01,66.268-121.053,84.615c-46.497,26.624-116.461,16.465-177.144,70.438
			c-38.48,34.225-34.031,112.657,2.187,168.953c28.607,44.466,101.445,88.407,167.955,47.683
			c90.699-55.534,58.096-136.095,98.874-163.754c45.01-30.529,96.546,8.68,163.729-24.451
			C591.131,209.981,608.385,167.211,592.927,126.537z"/>
		<path style="opacity:0.7;fill:#FFFFFF;" d="M592.927,126.537c-27.447-72.22-89.358-105.565-163.11-86.842
			c-60.324,15.315-89.01,66.268-121.053,84.615c-46.497,26.624-116.461,16.465-177.144,70.438
			c-38.48,34.225-34.031,112.657,2.187,168.953c28.607,44.466,101.445,88.407,167.955,47.683
			c90.699-55.534,58.096-136.095,98.874-163.754c45.01-30.529,96.546,8.68,163.729-24.451
			C591.131,209.981,608.385,167.211,592.927,126.537z"/>
	</g>
</g>
<g id="Shadow">
	<ellipse style="fill:#92E3A9;" cx="228.686" cy="464.553" rx="91.802" ry="6.715"/>
</g>
<g id="Floor">
	
		<line style="fill:none;stroke:#263238;stroke-width:1.259;stroke-linecap:round;stroke-linejoin:round;stroke-miterlimit:10;" x1="87.128" y1="451.097" x2="607.81" y2="451.097"/>
</g>
<g id="Desk">
	<g>
		<g>
			<defs>
				<path id="XMLID_40_" d="M561.486,331.77h-17.131v-1.523c0-2.988,2.508-5.364,5.491-5.203l6.71,0.362
					c2.764,0.149,4.929,2.435,4.929,5.203V331.77z"/>
			</defs>
			<use xlink:href="#XMLID_40_"  style="overflow:visible;fill:#92E3A9;"/>
			<clipPath id="XMLID_00000052068304539325652900000005380155467422581907_">
				<use xlink:href="#XMLID_40_"  style="overflow:visible;"/>
			</clipPath>
			<path style="opacity:0.8;clip-path:url(#XMLID_00000052068304539325652900000005380155467422581907_);fill:#FFFFFF;" d="
				M561.486,331.77h-17.131v-1.523c0-2.988,2.508-5.364,5.491-5.203l6.71,0.362c2.764,0.149,4.929,2.435,4.929,5.203V331.77z"/>
			
				<use xlink:href="#XMLID_40_"  style="overflow:visible;fill:none;stroke:#263238;stroke-width:1.259;stroke-linecap:round;stroke-linejoin:round;stroke-miterlimit:10;"/>
		</g>
		<g>
			
				<path style="fill:#92E3A9;stroke:#263238;stroke-width:1.259;stroke-linecap:round;stroke-linejoin:round;stroke-miterlimit:10;" d="
				M515.24,296.361c-0.065-1.349-1.178-2.41-2.528-2.41h-17.311c-1.351,0-2.463,1.06-2.528,2.41l4.109,36.075h25.838L515.24,296.361
				z"/>
			
				<path style="fill:#92E3A9;stroke:#263238;stroke-width:1.259;stroke-linecap:round;stroke-linejoin:round;stroke-miterlimit:10;" d="
				M562.254,240.896h-6.449l-7.25,68.133h6.45c1.069,0,2.028-0.866,2.141-1.935l6.838-64.263
				C564.097,241.763,563.323,240.896,562.254,240.896z"/>
			<g>
				<defs>
					<path id="XMLID_39_" d="M552.277,309.03h-96.67c-1.069,0-1.843-0.867-1.729-1.935l6.838-64.263
						c0.114-1.069,1.072-1.935,2.141-1.935h96.67c1.069,0,1.843,0.867,1.729,1.935l-6.837,64.263
						C554.305,308.163,553.346,309.03,552.277,309.03z"/>
				</defs>
				<use xlink:href="#XMLID_39_"  style="overflow:visible;fill:#92E3A9;"/>
				<clipPath id="XMLID_00000078008710692314810020000018119098593283974538_">
					<use xlink:href="#XMLID_39_"  style="overflow:visible;"/>
				</clipPath>
				<path style="opacity:0.4;clip-path:url(#XMLID_00000078008710692314810020000018119098593283974538_);fill:#FFFFFF;" d="
					M552.277,309.03h-96.67c-1.069,0-1.843-0.867-1.729-1.935l6.838-64.263c0.114-1.069,1.072-1.935,2.141-1.935h96.67
					c1.069,0,1.843,0.867,1.729,1.935l-6.837,64.263C554.305,308.163,553.346,309.03,552.277,309.03z"/>
				
					<use xlink:href="#XMLID_39_"  style="overflow:visible;fill:none;stroke:#263238;stroke-width:1.259;stroke-linecap:round;stroke-linejoin:round;stroke-miterlimit:10;"/>
			</g>
			
				<path style="fill:#92E3A9;stroke:#263238;stroke-width:1.259;stroke-linecap:round;stroke-linejoin:round;stroke-miterlimit:10;" d="
				M523.788,329.634H492.01c-0.774,0-1.401,0.627-1.401,1.401v0c0,0.773,0.627,1.401,1.401,1.401h31.778
				c0.774,0,1.401-0.627,1.401-1.401l0,0C525.189,330.261,524.562,329.634,523.788,329.634z"/>
			<g>
				<defs>
					<path id="XMLID_38_" d="M550.471,302.737h-91.16c-0.932,0-1.608-0.756-1.509-1.689l5.966-56.067
						c0.099-0.933,0.936-1.689,1.868-1.689h91.16c0.933,0,1.608,0.756,1.509,1.689l-5.966,56.067
						C552.241,301.981,551.404,302.737,550.471,302.737z"/>
				</defs>
				<use xlink:href="#XMLID_38_"  style="overflow:visible;fill:#92E3A9;"/>
				<clipPath id="XMLID_00000140694751665177379870000015724687299133151642_">
					<use xlink:href="#XMLID_38_"  style="overflow:visible;"/>
				</clipPath>
				<path style="opacity:0.8;clip-path:url(#XMLID_00000140694751665177379870000015724687299133151642_);fill:#FFFFFF;" d="
					M550.471,302.737h-91.16c-0.932,0-1.608-0.756-1.509-1.689l5.966-56.067c0.099-0.933,0.936-1.689,1.868-1.689h91.16
					c0.933,0,1.608,0.756,1.509,1.689l-5.966,56.067C552.241,301.981,551.404,302.737,550.471,302.737z"/>
				
					<use xlink:href="#XMLID_38_"  style="overflow:visible;fill:none;stroke:#263238;stroke-width:1.259;stroke-linecap:round;stroke-linejoin:round;stroke-miterlimit:10;"/>
			</g>
		</g>
		<g>
			
				<path style="fill:#92E3A9;stroke:#263238;stroke-width:1.259;stroke-linecap:round;stroke-linejoin:round;stroke-miterlimit:10;" d="
				M350.779,451.097h-4.465c-0.825,0-1.493-0.668-1.493-1.493V341.513h7.451v108.091
				C352.272,450.429,351.603,451.097,350.779,451.097z"/>
		</g>
		<g>
			<defs>
				<rect id="XMLID_37_" x="510.893" y="331.77" width="64.583" height="9.743"/>
			</defs>
			<use xlink:href="#XMLID_37_"  style="overflow:visible;fill:#92E3A9;"/>
			<clipPath id="XMLID_00000158029889443961628410000017020461761059493308_">
				<use xlink:href="#XMLID_37_"  style="overflow:visible;"/>
			</clipPath>
			
				<rect x="510.893" y="331.77" style="opacity:0.4;clip-path:url(#XMLID_00000158029889443961628410000017020461761059493308_);fill:#FFFFFF;" width="64.583" height="9.743"/>
			
				<use xlink:href="#XMLID_37_"  style="overflow:visible;fill:none;stroke:#263238;stroke-width:1.259;stroke-linecap:round;stroke-linejoin:round;stroke-miterlimit:10;"/>
		</g>
		<g>
			
				<path style="fill:#92E3A9;stroke:#263238;stroke-width:1.259;stroke-linecap:round;stroke-linejoin:round;stroke-miterlimit:10;" d="
				M396.941,451.097h-4.465c-0.825,0-1.493-0.668-1.493-1.493V341.513h7.451v108.091
				C398.434,450.429,397.765,451.097,396.941,451.097z"/>
		</g>
		
			<path style="fill:#92E3A9;stroke:#263238;stroke-width:1.259;stroke-linecap:round;stroke-linejoin:round;stroke-miterlimit:10;" d="
			M569.675,451.097h-4.464c-0.825,0-1.493-0.668-1.493-1.493V341.513h7.45v108.091C571.168,450.429,570.5,451.097,569.675,451.097z"
			/>
		<g>
			<defs>
				<rect id="XMLID_36_" x="340.514" y="331.77" width="188.8" height="9.743"/>
			</defs>
			<use xlink:href="#XMLID_36_"  style="overflow:visible;fill:#92E3A9;"/>
			<clipPath id="XMLID_00000142855421222036634180000014038037356789482387_">
				<use xlink:href="#XMLID_36_"  style="overflow:visible;"/>
			</clipPath>
			
				<rect x="340.514" y="331.77" style="opacity:0.7;clip-path:url(#XMLID_00000142855421222036634180000014038037356789482387_);fill:#FFFFFF;" width="188.8" height="9.743"/>
			
				<use xlink:href="#XMLID_36_"  style="overflow:visible;fill:none;stroke:#263238;stroke-width:1.259;stroke-linecap:round;stroke-linejoin:round;stroke-miterlimit:10;"/>
		</g>
		
			<path style="fill:#92E3A9;stroke:#263238;stroke-width:1.259;stroke-linecap:round;stroke-linejoin:round;stroke-miterlimit:10;" d="
			M523.514,451.097h-4.465c-0.825,0-1.493-0.668-1.493-1.493V341.513h7.451v108.091
			C525.007,450.429,524.338,451.097,523.514,451.097z"/>
		<g>
			<defs>
				<rect id="XMLID_35_" x="460.295" y="327.756" width="53.903" height="4.014"/>
			</defs>
			<use xlink:href="#XMLID_35_"  style="overflow:visible;fill:#92E3A9;"/>
			<clipPath id="XMLID_00000028298028655216138680000000780544067801452181_">
				<use xlink:href="#XMLID_35_"  style="overflow:visible;"/>
			</clipPath>
			
				<rect x="460.295" y="327.756" style="opacity:0.4;clip-path:url(#XMLID_00000028298028655216138680000000780544067801452181_);fill:#FFFFFF;" width="53.903" height="4.014"/>
			
				<use xlink:href="#XMLID_35_"  style="overflow:visible;fill:none;stroke:#263238;stroke-width:1.259;stroke-linecap:round;stroke-linejoin:round;stroke-miterlimit:10;"/>
		</g>
	</g>
</g>
<g id="Shelf">
	<g>
		<g>
			<defs>
				
					<rect id="XMLID_19_" x="113.065" y="331.575" transform="matrix(-1 -1.224647e-16 1.224647e-16 -1 315.9552 782.6719)" width="89.824" height="119.522"/>
			</defs>
			<use xlink:href="#XMLID_19_"  style="overflow:visible;fill:#92E3A9;"/>
			<clipPath id="XMLID_00000165942566892997933780000010966964498876410790_">
				<use xlink:href="#XMLID_19_"  style="overflow:visible;"/>
			</clipPath>
			
				<rect x="113.065" y="331.575" transform="matrix(-1 -1.224647e-16 1.224647e-16 -1 315.9552 782.6719)" style="opacity:0.7;clip-path:url(#XMLID_00000165942566892997933780000010966964498876410790_);fill:#FFFFFF;" width="89.824" height="119.522"/>
			
				<use xlink:href="#XMLID_19_"  style="overflow:visible;fill:none;stroke:#263238;stroke-width:1.259;stroke-linecap:round;stroke-linejoin:round;stroke-miterlimit:10;"/>
		</g>
		<g>
			<defs>
				
					<rect id="XMLID_20_" x="95.93" y="331.575" transform="matrix(-1 -1.224647e-16 1.224647e-16 -1 208.9955 782.6719)" width="17.135" height="119.522"/>
			</defs>
			<use xlink:href="#XMLID_20_"  style="overflow:visible;fill:#92E3A9;"/>
			<clipPath id="XMLID_00000137100379614882651720000005154740581920703119_">
				<use xlink:href="#XMLID_20_"  style="overflow:visible;"/>
			</clipPath>
			
				<rect x="95.93" y="331.575" transform="matrix(-1 -1.224647e-16 1.224647e-16 -1 208.9955 782.6719)" style="opacity:0.3;clip-path:url(#XMLID_00000137100379614882651720000005154740581920703119_);fill:#FFFFFF;" width="17.135" height="119.522"/>
			
				<use xlink:href="#XMLID_20_"  style="overflow:visible;fill:none;stroke:#263238;stroke-width:1.259;stroke-linecap:round;stroke-linejoin:round;stroke-miterlimit:10;"/>
		</g>
		
			<rect x="118.895" y="340.443" transform="matrix(-1 -1.224647e-16 1.224647e-16 -1 315.4931 709.9123)" style="fill:#FFFFFF;stroke:#263238;stroke-width:1.259;stroke-linecap:round;stroke-linejoin:round;stroke-miterlimit:10;" width="77.703" height="29.025"/>
		
			<rect x="118.895" y="372.639" transform="matrix(-1 -1.224647e-16 1.224647e-16 -1 315.4931 774.3043)" style="fill:#FFFFFF;stroke:#263238;stroke-width:1.259;stroke-linecap:round;stroke-linejoin:round;stroke-miterlimit:10;" width="77.703" height="29.025"/>
		
			<rect x="118.895" y="404.835" transform="matrix(-1 -1.224647e-16 1.224647e-16 -1 315.4931 838.6965)" style="fill:#FFFFFF;stroke:#263238;stroke-width:1.259;stroke-linecap:round;stroke-linejoin:round;stroke-miterlimit:10;" width="77.703" height="29.026"/>
		<g>
			
				<path style="fill:#92E3A9;stroke:#263238;stroke-width:1.259;stroke-linecap:round;stroke-linejoin:round;stroke-miterlimit:10;" d="
				M154.51,354.956c0,1.788,1.449,3.237,3.237,3.237c1.788,0,3.237-1.449,3.237-3.237c0-1.788-1.449-3.237-3.237-3.237
				C155.959,351.719,154.51,353.168,154.51,354.956z"/>
			
				<path style="fill:#92E3A9;stroke:#263238;stroke-width:1.259;stroke-linecap:round;stroke-linejoin:round;stroke-miterlimit:10;" d="
				M154.51,387.152c0,1.788,1.449,3.237,3.237,3.237c1.788,0,3.237-1.449,3.237-3.237c0-1.788-1.449-3.237-3.237-3.237
				C155.959,383.915,154.51,385.364,154.51,387.152z"/>
			
				<path style="fill:#92E3A9;stroke:#263238;stroke-width:1.259;stroke-linecap:round;stroke-linejoin:round;stroke-miterlimit:10;" d="
				M154.51,419.348c0,1.788,1.449,3.237,3.237,3.237c1.788,0,3.237-1.449,3.237-3.237c0-1.788-1.449-3.237-3.237-3.237
				C155.959,416.111,154.51,417.56,154.51,419.348z"/>
		</g>
	</g>
</g>
<g id="Interface">
	<g>
		<g>
			
				<path style="fill:#263238;stroke:#263238;stroke-width:1.259;stroke-linecap:round;stroke-linejoin:round;stroke-miterlimit:10;" d="
				M502.184,108.695h-30.182v185.067h30.182c9.191,0,16.642-7.451,16.642-16.642V125.338
				C518.826,116.146,511.375,108.695,502.184,108.695z"/>
			
				<path style="fill:#92E3A9;stroke:#263238;stroke-width:1.259;stroke-linecap:round;stroke-linejoin:round;stroke-miterlimit:10;" d="
				M495.889,293.763H242.465c-9.191,0-16.642-7.451-16.642-16.642V125.338c0-9.191,7.451-16.642,16.642-16.642h253.424
				c9.191,0,16.642,7.451,16.642,16.642v151.783C512.531,286.312,505.08,293.763,495.889,293.763z"/>
			
				<path style="fill:#999999;stroke:#263238;stroke-width:1.259;stroke-linecap:round;stroke-linejoin:round;stroke-miterlimit:10;" d="
				M490.056,126.342h-2.574c-2.429,0-4.398-1.969-4.398-4.398v-2.574c0-2.429,1.969-4.398,4.398-4.398h2.574
				c2.429,0,4.398,1.969,4.398,4.398v2.574C494.455,124.372,492.485,126.342,490.056,126.342z"/>
			<g>
				<defs>
					<path id="XMLID_31_" d="M252.301,120.656c0,3.14-2.546,5.685-5.685,5.685c-3.14,0-5.685-2.546-5.685-5.685
						s2.545-5.685,5.685-5.685C249.756,114.971,252.301,117.516,252.301,120.656z"/>
				</defs>
				<clipPath id="XMLID_00000147916253622831699030000007641476104609809598_">
					<use xlink:href="#XMLID_31_"  style="overflow:visible;"/>
				</clipPath>
				<path id="XMLID_32_" style="opacity:0.5;clip-path:url(#XMLID_00000147916253622831699030000007641476104609809598_);" d="
					M252.301,120.656c0,3.14-2.546,5.685-5.685,5.685c-3.14,0-5.685-2.546-5.685-5.685s2.545-5.685,5.685-5.685
					C249.756,114.971,252.301,117.516,252.301,120.656z"/>
				
					<use xlink:href="#XMLID_31_"  style="overflow:visible;fill:none;stroke:#263238;stroke-width:1.259;stroke-linecap:round;stroke-linejoin:round;stroke-miterlimit:10;"/>
			</g>
			<g>
				<defs>
					<circle id="XMLID_30_" cx="281.948" cy="120.656" r="5.685"/>
				</defs>
				<clipPath id="XMLID_00000147922775963301997640000001986453356223880375_">
					<use xlink:href="#XMLID_30_"  style="overflow:visible;"/>
				</clipPath>
				
					<circle style="opacity:0.5;clip-path:url(#XMLID_00000147922775963301997640000001986453356223880375_);fill:#FFFFFF;stroke:#263238;stroke-width:1.259;stroke-linecap:round;stroke-linejoin:round;stroke-miterlimit:10;" cx="281.948" cy="120.656" r="5.685"/>
				
					<use xlink:href="#XMLID_30_"  style="overflow:visible;fill:none;stroke:#263238;stroke-width:1.259;stroke-linecap:round;stroke-linejoin:round;stroke-miterlimit:10;"/>
			</g>
			
				<circle style="fill:none;stroke:#263238;stroke-width:1.259;stroke-linecap:round;stroke-linejoin:round;stroke-miterlimit:10;" cx="264.282" cy="120.656" r="5.685"/>
		</g>
		<g>
			<defs>
				<path id="XMLID_29_" d="M242.465,132.617c-5.011,0-9.088,4.077-9.088,9.088V277.12c0,5.012,4.077,9.089,9.088,9.089h253.424
					c5.01,0,9.087-4.077,9.087-9.089V141.705c0-5.011-4.077-9.088-9.087-9.088H242.465z"/>
			</defs>
			<use xlink:href="#XMLID_29_"  style="overflow:visible;fill:#92E3A9;"/>
			<clipPath id="XMLID_00000091729789764751209610000006367000502297369228_">
				<use xlink:href="#XMLID_29_"  style="overflow:visible;"/>
			</clipPath>
			<path style="opacity:0.3;clip-path:url(#XMLID_00000091729789764751209610000006367000502297369228_);" d="M242.465,132.617
				c-5.011,0-9.088,4.077-9.088,9.088V277.12c0,5.012,4.077,9.089,9.088,9.089h253.424c5.01,0,9.087-4.077,9.087-9.089V141.705
				c0-5.011-4.077-9.088-9.087-9.088H242.465z"/>
			
				<use xlink:href="#XMLID_29_"  style="overflow:visible;fill:none;stroke:#263238;stroke-width:1.259;stroke-linecap:round;stroke-linejoin:round;stroke-miterlimit:10;"/>
		</g>
		
			<path style="fill:#999999;stroke:#263238;stroke-width:1.259;stroke-linecap:round;stroke-linejoin:round;stroke-miterlimit:10;" d="
			M242.465,279.914h68.737c1.539,0,2.792-1.253,2.792-2.794V141.705c0-1.54-1.253-2.793-2.792-2.793h-68.737
			c-1.54,0-2.793,1.253-2.793,2.793V277.12C239.672,278.661,240.925,279.914,242.465,279.914z"/>
		<g>
			<defs>
				<path id="XMLID_28_" d="M329.967,279.914h77.551c1.539,0,2.792-1.253,2.792-2.794V141.705c0-1.54-1.253-2.793-2.792-2.793
					h-77.551c-1.54,0-2.793,1.253-2.793,2.793V277.12C327.174,278.661,328.427,279.914,329.967,279.914z"/>
			</defs>
			<use xlink:href="#XMLID_28_"  style="overflow:visible;fill:#92E3A9;"/>
			<clipPath id="XMLID_00000054959297603864700680000011262639271218516631_">
				<use xlink:href="#XMLID_28_"  style="overflow:visible;"/>
			</clipPath>
			<path style="opacity:0.8;clip-path:url(#XMLID_00000054959297603864700680000011262639271218516631_);fill:#FFFFFF;" d="
				M329.967,279.914h77.551c1.539,0,2.792-1.253,2.792-2.794V141.705c0-1.54-1.253-2.793-2.792-2.793h-77.551
				c-1.54,0-2.793,1.253-2.793,2.793V277.12C327.174,278.661,328.427,279.914,329.967,279.914z"/>
			
				<use xlink:href="#XMLID_28_"  style="overflow:visible;fill:none;stroke:#263238;stroke-width:1.259;stroke-linecap:round;stroke-linejoin:round;stroke-miterlimit:10;"/>
		</g>
		<g>
			
				<path style="fill:#92E3A9;stroke:#263238;stroke-width:1.259;stroke-linecap:round;stroke-linejoin:round;stroke-miterlimit:10;" d="
				M491.908,138.912h-62.684c-1.405,0-2.547,1.143-2.547,2.547v7.677h67.778v-7.677
				C494.455,140.055,493.312,138.912,491.908,138.912z"/>
			<g>
				
					<line style="fill:none;stroke:#263238;stroke-width:1.259;stroke-linecap:round;stroke-linejoin:round;stroke-miterlimit:10;" x1="485.897" y1="142.005" x2="491.936" y2="142.005"/>
				
					<line style="fill:none;stroke:#263238;stroke-width:1.259;stroke-linecap:round;stroke-linejoin:round;stroke-miterlimit:10;" x1="485.897" y1="144.017" x2="491.936" y2="144.017"/>
				
					<line style="fill:none;stroke:#263238;stroke-width:1.259;stroke-linecap:round;stroke-linejoin:round;stroke-miterlimit:10;" x1="491.936" y1="146.029" x2="485.897" y2="146.029"/>
			</g>
			
				<path style="fill:#999999;stroke:#263238;stroke-width:1.259;stroke-linecap:round;stroke-linejoin:round;stroke-miterlimit:10;" d="
				M460.566,149.136l-1.567-6.363c-0.559-2.267-2.592-3.861-4.927-3.861h-24.848c-1.404,0-2.547,1.143-2.547,2.547v7.677v30.689
				c0,1.405,1.143,2.548,2.547,2.548h62.684c1.404,0,2.546-1.142,2.546-2.548v-30.689H460.566z"/>
		</g>
		<g>
			<defs>
				<path id="XMLID_27_" d="M238.612,271.603h26.12c0.585,0,1.061-0.251,1.061-0.559v-27.102c0-0.308-0.476-0.559-1.061-0.559
					h-26.12c-0.585,0-1.061,0.251-1.061,0.559v27.102C237.55,271.352,238.027,271.603,238.612,271.603z"/>
			</defs>
			<use xlink:href="#XMLID_27_"  style="overflow:visible;fill:#92E3A9;"/>
			<clipPath id="XMLID_00000001637443723982166000000000842362916588763780_">
				<use xlink:href="#XMLID_27_"  style="overflow:visible;"/>
			</clipPath>
			<path style="opacity:0.3;clip-path:url(#XMLID_00000001637443723982166000000000842362916588763780_);" d="M238.612,271.603
				h26.12c0.585,0,1.061-0.251,1.061-0.559v-27.102c0-0.308-0.476-0.559-1.061-0.559h-26.12c-0.585,0-1.061,0.251-1.061,0.559
				v27.102C237.55,271.352,238.027,271.603,238.612,271.603z"/>
			
				<use xlink:href="#XMLID_27_"  style="overflow:visible;fill:none;stroke:#263238;stroke-width:1.259;stroke-linecap:round;stroke-linejoin:round;stroke-miterlimit:10;"/>
		</g>
		
			<path style="fill:#92E3A9;stroke:#263238;stroke-width:1.259;stroke-linecap:round;stroke-linejoin:round;stroke-miterlimit:10;" d="
			M271.308,271.603h26.12c0.585,0,1.061-0.251,1.061-0.559v-27.102c0-0.308-0.476-0.559-1.061-0.559h-26.12
			c-0.585,0-1.061,0.251-1.061,0.559v27.102C270.246,271.352,270.723,271.603,271.308,271.603z"/>
		
			<path style="fill:#92E3A9;stroke:#263238;stroke-width:1.259;stroke-linecap:round;stroke-linejoin:round;stroke-miterlimit:10;" d="
			M251.202,238.721h26.12c0.585,0,1.061-0.251,1.061-0.559V211.06c0-0.308-0.476-0.559-1.061-0.559h-26.12
			c-0.585,0-1.061,0.251-1.061,0.559v27.102C250.141,238.47,250.617,238.721,251.202,238.721z"/>
		
			<path style="fill:#92E3A9;stroke:#263238;stroke-width:1.259;stroke-linecap:round;stroke-linejoin:round;stroke-miterlimit:10;" d="
			M283.898,238.721h26.12c0.585,0,1.061-0.251,1.061-0.559V211.06c0-0.308-0.476-0.559-1.061-0.559h-26.12
			c-0.585,0-1.061,0.251-1.061,0.559v27.102C282.837,238.47,283.313,238.721,283.898,238.721z"/>
		<g>
			<defs>
				<path id="XMLID_26_" d="M248.684,205.838h26.12c0.585,0,1.061-0.251,1.061-0.559v-27.102c0-0.308-0.476-0.559-1.061-0.559
					h-26.12c-0.585,0-1.061,0.251-1.061,0.559v27.102C247.623,205.587,248.099,205.838,248.684,205.838z"/>
			</defs>
			<use xlink:href="#XMLID_26_"  style="overflow:visible;fill:#92E3A9;"/>
			<clipPath id="XMLID_00000039853097393761025380000009870202116207798695_">
				<use xlink:href="#XMLID_26_"  style="overflow:visible;"/>
			</clipPath>
			<path style="opacity:0.5;clip-path:url(#XMLID_00000039853097393761025380000009870202116207798695_);fill:#FFFFFF;" d="
				M248.684,205.838h26.12c0.585,0,1.061-0.251,1.061-0.559v-27.102c0-0.308-0.476-0.559-1.061-0.559h-26.12
				c-0.585,0-1.061,0.251-1.061,0.559v27.102C247.623,205.587,248.099,205.838,248.684,205.838z"/>
			
				<use xlink:href="#XMLID_26_"  style="overflow:visible;fill:none;stroke:#263238;stroke-width:1.259;stroke-linecap:round;stroke-linejoin:round;stroke-miterlimit:10;"/>
		</g>
		
			<path style="fill:#92E3A9;stroke:#263238;stroke-width:1.259;stroke-linecap:round;stroke-linejoin:round;stroke-miterlimit:10;" d="
			M281.38,205.838h26.12c0.585,0,1.061-0.251,1.061-0.559v-27.102c0-0.308-0.476-0.559-1.061-0.559h-26.12
			c-0.585,0-1.061,0.251-1.061,0.559v27.102C280.319,205.587,280.795,205.838,281.38,205.838z"/>
		
			<path style="fill:#92E3A9;stroke:#263238;stroke-width:1.259;stroke-linecap:round;stroke-linejoin:round;stroke-miterlimit:10;" d="
			M248.684,172.956h26.12c0.585,0,1.061-0.251,1.061-0.559v-27.102c0-0.308-0.476-0.559-1.061-0.559h-26.12
			c-0.585,0-1.061,0.251-1.061,0.559v27.102C247.623,172.705,248.099,172.956,248.684,172.956z"/>
		<g>
			<defs>
				<path id="XMLID_25_" d="M281.38,172.956h26.12c0.585,0,1.061-0.251,1.061-0.559v-27.102c0-0.308-0.476-0.559-1.061-0.559h-26.12
					c-0.585,0-1.061,0.251-1.061,0.559v27.102C280.319,172.705,280.795,172.956,281.38,172.956z"/>
			</defs>
			<use xlink:href="#XMLID_25_"  style="overflow:visible;fill:#92E3A9;"/>
			<clipPath id="XMLID_00000054967570323779554740000011066979734418379151_">
				<use xlink:href="#XMLID_25_"  style="overflow:visible;"/>
			</clipPath>
			<path style="opacity:0.7;clip-path:url(#XMLID_00000054967570323779554740000011066979734418379151_);fill:#FFFFFF;" d="
				M281.38,172.956h26.12c0.585,0,1.061-0.251,1.061-0.559v-27.102c0-0.308-0.476-0.559-1.061-0.559h-26.12
				c-0.585,0-1.061,0.251-1.061,0.559v27.102C280.319,172.705,280.795,172.956,281.38,172.956z"/>
			
				<use xlink:href="#XMLID_25_"  style="overflow:visible;fill:none;stroke:#263238;stroke-width:1.259;stroke-linecap:round;stroke-linejoin:round;stroke-miterlimit:10;"/>
		</g>
		<g>
			
				<path style="fill:#263238;stroke:#263238;stroke-width:1.259;stroke-linecap:round;stroke-linejoin:round;stroke-miterlimit:10;" d="
				M486.371,247.035h-62.684h0c-0.878,0-1.653,0.446-2.111,1.124c-0.275,0.407-0.436,0.896-0.436,1.423v38.366
				c0,1.405,1.143,2.548,2.547,2.548h62.684c1.404,0,2.546-1.143,2.546-2.548v-38.366
				C488.917,248.178,487.774,247.035,486.371,247.035z"/>
			<g>
				
					<path style="fill:#92E3A9;stroke:#263238;stroke-width:1.259;stroke-linecap:round;stroke-linejoin:round;stroke-miterlimit:10;" d="
					M482.154,245.776H419.47c-1.405,0-2.547,1.143-2.547,2.547V256h67.778v-7.677C484.701,246.919,483.558,245.776,482.154,245.776z
					"/>
				<g>
					
						<line style="fill:none;stroke:#263238;stroke-width:1.259;stroke-linecap:round;stroke-linejoin:round;stroke-miterlimit:10;" x1="476.144" y1="248.876" x2="482.183" y2="248.876"/>
					
						<line style="fill:none;stroke:#263238;stroke-width:1.259;stroke-linecap:round;stroke-linejoin:round;stroke-miterlimit:10;" x1="476.144" y1="250.888" x2="482.183" y2="250.888"/>
					
						<line style="fill:none;stroke:#263238;stroke-width:1.259;stroke-linecap:round;stroke-linejoin:round;stroke-miterlimit:10;" x1="482.183" y1="252.9" x2="476.144" y2="252.9"/>
				</g>
				
					<path style="fill:#999999;stroke:#263238;stroke-width:1.259;stroke-linecap:round;stroke-linejoin:round;stroke-miterlimit:10;" d="
					M450.812,256l-1.567-6.363c-0.559-2.267-2.592-3.861-4.927-3.861H419.47c-1.404,0-2.547,1.143-2.547,2.547V256v30.689
					c0,1.405,1.143,2.548,2.547,2.548h62.684c1.404,0,2.546-1.143,2.546-2.548V256H450.812z"/>
			</g>
		</g>
		<g>
			
				<path style="fill:#263238;stroke:#263238;stroke-width:1.259;stroke-linecap:round;stroke-linejoin:round;stroke-miterlimit:10;" d="
				M483.837,188.918h-62.684h0c-0.878,0-1.653,0.446-2.111,1.124c-0.275,0.406-0.436,0.896-0.436,1.423v38.366
				c0,1.405,1.143,2.547,2.547,2.547h62.684c1.404,0,2.546-1.142,2.546-2.547v-38.366
				C486.384,190.061,485.241,188.918,483.837,188.918z"/>
			<g>
				
					<path style="fill:#92E3A9;stroke:#263238;stroke-width:1.259;stroke-linecap:round;stroke-linejoin:round;stroke-miterlimit:10;" d="
					M482.154,187.077H419.47c-1.405,0-2.547,1.143-2.547,2.547v7.677h67.778v-7.677C484.701,188.22,483.558,187.077,482.154,187.077
					z"/>
				<g>
					
						<line style="fill:none;stroke:#263238;stroke-width:1.259;stroke-linecap:round;stroke-linejoin:round;stroke-miterlimit:10;" x1="476.144" y1="190.177" x2="482.183" y2="190.177"/>
					
						<line style="fill:none;stroke:#263238;stroke-width:1.259;stroke-linecap:round;stroke-linejoin:round;stroke-miterlimit:10;" x1="476.144" y1="192.189" x2="482.183" y2="192.189"/>
					
						<line style="fill:none;stroke:#263238;stroke-width:1.259;stroke-linecap:round;stroke-linejoin:round;stroke-miterlimit:10;" x1="482.183" y1="194.202" x2="476.144" y2="194.202"/>
				</g>
				
					<path style="fill:#999999;stroke:#263238;stroke-width:1.259;stroke-linecap:round;stroke-linejoin:round;stroke-miterlimit:10;" d="
					M450.812,197.301l-1.567-6.363c-0.559-2.267-2.592-3.861-4.927-3.861H419.47c-1.404,0-2.547,1.143-2.547,2.547v7.677v30.689
					c0,1.405,1.143,2.547,2.547,2.547h62.684c1.404,0,2.546-1.142,2.546-2.547v-30.689H450.812z"/>
			</g>
		</g>
		
			<path style="fill:#92E3A9;stroke:#263238;stroke-width:1.259;stroke-linecap:round;stroke-linejoin:round;stroke-miterlimit:10;" d="
			M247.153,305.296h26.12c0.585,0,1.061-0.251,1.061-0.559v-27.102c0-0.308-0.476-0.559-1.061-0.559h-26.12
			c-0.585,0-1.061,0.251-1.061,0.559v27.102C246.092,305.045,246.568,305.296,247.153,305.296z"/>
		<g>
			
				<path style="fill:#92E3A9;stroke:#263238;stroke-width:1.259;stroke-linecap:round;stroke-linejoin:round;stroke-miterlimit:10;" d="
				M448.266,279.579h-62.684c-1.404,0-2.547,1.142-2.547,2.547v7.677h67.777v-7.677
				C450.812,280.722,449.669,279.579,448.266,279.579z"/>
			<g>
				
					<line style="fill:none;stroke:#263238;stroke-width:1.259;stroke-linecap:round;stroke-linejoin:round;stroke-miterlimit:10;" x1="442.255" y1="282.679" x2="448.294" y2="282.679"/>
				
					<line style="fill:none;stroke:#263238;stroke-width:1.259;stroke-linecap:round;stroke-linejoin:round;stroke-miterlimit:10;" x1="442.255" y1="284.691" x2="448.294" y2="284.691"/>
				
					<line style="fill:none;stroke:#263238;stroke-width:1.259;stroke-linecap:round;stroke-linejoin:round;stroke-miterlimit:10;" x1="448.294" y1="286.704" x2="442.255" y2="286.704"/>
			</g>
			
				<path style="fill:#999999;stroke:#263238;stroke-width:1.259;stroke-linecap:round;stroke-linejoin:round;stroke-miterlimit:10;" d="
				M416.923,289.803l-1.567-6.363c-0.558-2.267-2.592-3.861-4.927-3.861h-24.848c-1.404,0-2.547,1.142-2.547,2.547v7.677v30.689
				c0,1.405,1.143,2.548,2.547,2.548h62.684c1.404,0,2.546-1.143,2.546-2.548v-30.689H416.923z"/>
		</g>
	</g>
	<g>
		
			<line style="fill:none;stroke:#263238;stroke-width:1.259;stroke-linecap:round;stroke-linejoin:round;stroke-miterlimit:10;" x1="494.455" y1="101.532" x2="499.168" y2="101.532"/>
		
			<line style="fill:none;stroke:#263238;stroke-width:1.259;stroke-linecap:round;stroke-linejoin:round;stroke-miterlimit:10;" x1="476.144" y1="101.532" x2="488.916" y2="101.532"/>
		
			<line style="fill:none;stroke:#263238;stroke-width:1.259;stroke-linecap:round;stroke-linejoin:round;stroke-miterlimit:10;" x1="338.656" y1="101.532" x2="464.977" y2="101.532"/>
		
			<line style="fill:none;stroke:#263238;stroke-width:1.259;stroke-linecap:round;stroke-linejoin:round;stroke-miterlimit:10;" x1="324.387" y1="101.532" x2="331.941" y2="101.532"/>
	</g>
</g>
<g id="Gear">
	<g>
		<g>
			
				<path style="fill:#263238;stroke:#263238;stroke-width:1.259;stroke-linecap:round;stroke-linejoin:round;stroke-miterlimit:10;" d="
				M395.703,254.8c0.076-1.004,0.127-2.015,0.127-3.038c0-1.023-0.051-2.034-0.127-3.038l-9.301-1.206
				c-0.502-3.605-1.629-7.008-3.275-10.095l6.82-6.447c-1.067-1.73-2.266-3.368-3.578-4.908l-8.239,4.494
				c-2.462-2.549-5.36-4.674-8.579-6.246l1.728-9.225c-1.859-0.767-3.789-1.393-5.777-1.872l-4.026,8.482
				c-1.724-0.302-3.495-0.469-5.305-0.469c-1.81,0-3.581,0.167-5.305,0.469l-4.026-8.482c-1.988,0.48-3.918,1.106-5.777,1.872
				l1.728,9.225c-3.219,1.572-6.117,3.697-8.579,6.246l-8.239-4.494c-1.312,1.54-2.511,3.178-3.578,4.908l6.82,6.447
				c-1.646,3.087-2.774,6.49-3.275,10.095l-9.301,1.206c-0.076,1.004-0.128,2.015-0.128,3.038c0,1.023,0.051,2.034,0.128,3.038
				l9.301,1.206c0.502,3.605,1.63,7.008,3.275,10.095l-6.82,6.447c1.067,1.73,2.266,3.368,3.578,4.909l8.239-4.494
				c2.462,2.549,5.36,4.674,8.579,6.246l-1.728,9.225c1.859,0.766,3.789,1.392,5.777,1.872l4.026-8.482
				c1.724,0.302,3.495,0.469,5.305,0.469c1.811,0,3.581-0.167,5.305-0.469l4.026,8.482c1.988-0.48,3.918-1.105,5.777-1.872
				l-1.728-9.225c3.219-1.572,6.117-3.697,8.579-6.246l8.239,4.494c1.312-1.54,2.511-3.178,3.578-4.909l-6.82-6.447
				c1.646-3.087,2.773-6.49,3.275-10.095L395.703,254.8z M356.171,229.099c7.311,0,13.795,3.477,17.939,8.851l-14.579,6.734
				c-1.02-0.485-2.156-0.764-3.36-0.764c-1.204,0-2.34,0.279-3.359,0.764l-14.579-6.734
				C342.377,232.576,348.861,229.099,356.171,229.099z M333.509,251.762c0-3.021,0.603-5.898,1.676-8.533l13.184,9.303
				c0.227,2.328,1.473,4.352,3.285,5.633l1.461,16.03C342.048,272.698,333.509,263.238,333.509,251.762z M359.229,274.194
				l1.461-16.03c1.811-1.281,3.058-3.305,3.285-5.633l13.184-9.303c1.073,2.635,1.676,5.512,1.676,8.533
				C378.834,263.238,370.295,272.698,359.229,274.194z"/>
			
				<path style="fill:#FFFFFF;stroke:#263238;stroke-width:1.259;stroke-linecap:round;stroke-linejoin:round;stroke-miterlimit:10;" d="
				M359.466,251.762c0,1.819-1.475,3.294-3.294,3.294c-1.819,0-3.294-1.475-3.294-3.294c0-1.819,1.475-3.294,3.294-3.294
				C357.991,248.468,359.466,249.942,359.466,251.762z"/>
		</g>
		<g>
			
				<path style="fill:#757575;stroke:#263238;stroke-width:1.259;stroke-linecap:round;stroke-linejoin:round;stroke-miterlimit:10;" d="
				M395.571,186.426c0.054-0.718,0.091-1.44,0.091-2.172s-0.037-1.454-0.091-2.172l-6.65-0.863c-0.359-2.577-1.165-5.01-2.342-7.218
				l4.876-4.609c-0.763-1.237-1.62-2.408-2.558-3.509l-5.891,3.213c-1.76-1.823-3.832-3.342-6.134-4.466l1.236-6.596
				c-1.329-0.548-2.709-0.996-4.13-1.338l-2.879,6.064c-1.233-0.216-2.499-0.335-3.793-0.335c-1.294,0-2.56,0.119-3.793,0.335
				l-2.879-6.064c-1.421,0.343-2.801,0.79-4.13,1.338l1.235,6.596c-2.302,1.124-4.373,2.643-6.134,4.466l-5.891-3.213
				c-0.938,1.101-1.795,2.272-2.558,3.509l4.876,4.609c-1.177,2.207-1.983,4.64-2.342,7.218l-6.65,0.863
				c-0.055,0.718-0.091,1.44-0.091,2.172s0.037,1.454,0.091,2.172l6.65,0.863c0.359,2.577,1.165,5.01,2.342,7.218l-4.876,4.61
				c0.763,1.237,1.62,2.408,2.558,3.509l5.891-3.213c1.76,1.823,3.832,3.342,6.134,4.466l-1.235,6.596
				c1.329,0.548,2.709,0.995,4.13,1.338l2.879-6.064c1.233,0.216,2.499,0.335,3.793,0.335c1.294,0,2.56-0.119,3.793-0.335
				l2.879,6.064c1.421-0.343,2.801-0.79,4.13-1.338l-1.236-6.596c2.302-1.124,4.374-2.643,6.134-4.466l5.891,3.213
				c0.938-1.101,1.795-2.273,2.558-3.509l-4.876-4.61c1.177-2.207,1.983-4.64,2.342-7.218L395.571,186.426z M367.307,168.05
				c5.227,0,9.863,2.486,12.826,6.328l-10.424,4.814c-0.729-0.347-1.541-0.546-2.402-0.546c-0.861,0-1.673,0.2-2.402,0.546
				l-10.424-4.815C357.444,170.536,362.08,168.05,367.307,168.05z M351.104,184.254c0-2.16,0.431-4.217,1.198-6.101l9.426,6.652
				c0.162,1.664,1.053,3.112,2.349,4.027l1.045,11.461C357.209,199.223,351.104,192.459,351.104,184.254z M369.492,200.292
				l1.045-11.461c1.295-0.916,2.186-2.363,2.348-4.027l9.426-6.652c0.767,1.884,1.198,3.941,1.198,6.101
				C383.51,192.459,377.405,199.223,369.492,200.292z"/>
			
				<circle style="fill:#FFFFFF;stroke:#263238;stroke-width:1.259;stroke-linecap:round;stroke-linejoin:round;stroke-miterlimit:10;" cx="367.307" cy="184.254" r="2.355"/>
		</g>
		<g>
			
				<path style="fill:#FFFFFF;stroke:#263238;stroke-width:1.259;stroke-linecap:round;stroke-linejoin:round;stroke-miterlimit:10;" d="
				M323.075,281.233c0.036-0.478,0.061-0.96,0.061-1.448c0-0.488-0.024-0.969-0.061-1.448l-4.433-0.575
				c-0.239-1.718-0.776-3.34-1.561-4.811l3.25-3.073c-0.509-0.824-1.08-1.605-1.705-2.339l-3.927,2.142
				c-1.173-1.215-2.555-2.228-4.089-2.977l0.824-4.397c-0.886-0.365-1.806-0.664-2.753-0.892l-1.919,4.043
				c-0.822-0.144-1.666-0.223-2.529-0.223c-0.863,0-1.707,0.079-2.529,0.223l-1.919-4.043c-0.947,0.229-1.867,0.527-2.753,0.892
				l0.824,4.397c-1.534,0.749-2.916,1.762-4.089,2.977l-3.927-2.142c-0.625,0.734-1.197,1.515-1.705,2.339l3.25,3.073
				c-0.784,1.471-1.322,3.093-1.561,4.811l-4.433,0.575c-0.036,0.478-0.061,0.96-0.061,1.448c0,0.488,0.024,0.969,0.061,1.448
				l4.433,0.575c0.239,1.718,0.777,3.34,1.561,4.812l-3.251,3.073c0.509,0.824,1.08,1.605,1.705,2.339l3.927-2.142
				c1.173,1.215,2.555,2.228,4.089,2.977l-0.824,4.397c0.886,0.365,1.806,0.664,2.753,0.892l1.919-4.043
				c0.822,0.144,1.665,0.224,2.529,0.224c0.863,0,1.707-0.079,2.529-0.224l1.919,4.043c0.948-0.228,1.868-0.527,2.753-0.892
				l-0.824-4.397c1.534-0.749,2.916-1.762,4.089-2.977l3.927,2.142c0.625-0.734,1.197-1.515,1.705-2.339l-3.25-3.073
				c0.784-1.472,1.322-3.093,1.561-4.812L323.075,281.233z M304.233,268.984c3.485,0,6.575,1.657,8.55,4.218l-6.949,3.209
				c-0.486-0.231-1.027-0.364-1.601-0.364s-1.115,0.133-1.601,0.364l-6.949-3.21C297.658,270.641,300.749,268.984,304.233,268.984z
				 M293.432,279.785c0-1.44,0.287-2.811,0.799-4.067l6.284,4.434c0.108,1.109,0.702,2.074,1.566,2.685l0.696,7.64
				C297.501,289.764,293.432,285.255,293.432,279.785z M305.69,290.477l0.697-7.64c0.863-0.61,1.457-1.576,1.565-2.685l6.284-4.434
				c0.511,1.256,0.799,2.627,0.799,4.067C315.034,285.255,310.965,289.764,305.69,290.477z"/>
			
				<path style="fill:none;stroke:#263238;stroke-width:1.259;stroke-linecap:round;stroke-linejoin:round;stroke-miterlimit:10;" d="
				M305.803,279.785c0,0.867-0.703,1.57-1.57,1.57c-0.867,0-1.57-0.703-1.57-1.57c0-0.867,0.703-1.57,1.57-1.57
				C305.1,278.215,305.803,278.918,305.803,279.785z"/>
		</g>
	</g>
</g>
<g id="Character">
	<g>
		<g>
			<g>
				<g>
					<defs>
						<path id="XMLID_24_" d="M185.844,288.758l46.447-3.841l-24.222,96.301l-36.653,57.5l-14.781-7.714
							c0,0,17.229-42.368,29.82-57.896c0,0,2.67-30.752,5.112-46.852C191.567,326.256,187.003,303.768,185.844,288.758z"/>
					</defs>
					<use xlink:href="#XMLID_24_"  style="overflow:visible;fill:#858585;"/>
					<clipPath id="XMLID_00000006699134234307873870000000501036082858801811_">
						<use xlink:href="#XMLID_24_"  style="overflow:visible;"/>
					</clipPath>
					
						<path style="clip-path:url(#XMLID_00000006699134234307873870000000501036082858801811_);fill:#263238;stroke:#263238;stroke-width:1.259;stroke-linecap:round;stroke-linejoin:round;stroke-miterlimit:10;" d="
						M218.111,286.09l-20.133,1.665c0,0-1.604,20.828,13.819,36.67l7.208,13.311l7.153-28.44L218.111,286.09z"/>
					
						<use xlink:href="#XMLID_24_"  style="overflow:visible;fill:none;stroke:#263238;stroke-width:1.259;stroke-linecap:round;stroke-linejoin:round;stroke-miterlimit:10;"/>
				</g>
				
					<path style="fill:none;stroke:#263238;stroke-width:1.259;stroke-linecap:round;stroke-linejoin:round;stroke-miterlimit:10;" d="
					M186.042,380.047c-0.817,0.441-1.613,1.019-2.369,1.769"/>
				
					<path style="fill:none;stroke:#263238;stroke-width:1.259;stroke-linecap:round;stroke-linejoin:round;stroke-miterlimit:10;" d="
					M189.597,372.688c0,0,9.064-1.574,10.934,4.721c1.466,4.934-5.136,0.294-11.655,1.621"/>
			</g>
			<g>
				
					<path style="fill:#999999;stroke:#263238;stroke-width:1.259;stroke-linecap:round;stroke-linejoin:round;stroke-miterlimit:10;" d="
					M200.537,288.694l37.118-5.397l24.222,76.139l20.264,68.531l-16.662,6.502c0,0-19.617-42.417-24.14-65.529
					c0,0-18.112-30.838-24.537-45.651C216.802,323.29,200.771,311.718,200.537,288.694z"/>
				<g>
					
						<path style="fill:none;stroke:#263238;stroke-width:1.259;stroke-linecap:round;stroke-linejoin:round;stroke-miterlimit:10;" d="
						M234.826,322.714c1.603,0.212,3.144,0.711,4.507,1.711"/>
					
						<path style="fill:none;stroke:#263238;stroke-width:1.259;stroke-linecap:round;stroke-linejoin:round;stroke-miterlimit:10;" d="
						M231.36,313.933c-2.675,2.267-13.43,3.168-10.912,7.554c1.5,2.613,5.682,1.517,10.148,1.18"/>
				</g>
				
					<path style="fill:none;stroke:#263238;stroke-width:1.259;stroke-linecap:round;stroke-linejoin:round;stroke-miterlimit:10;" d="
					M243.816,367.337c0,0,5.485-3.462,9.891,0"/>
			</g>
			<g>
				
					<path style="fill:#92E3A9;stroke:#263238;stroke-width:1.259;stroke-linecap:round;stroke-linejoin:round;stroke-miterlimit:10;" d="
					M176.171,461.415l-31.937-18.098l0.877-2.087l1.267,0.38c0,0,2.072-2.957,7.213-9.282c0,0,2.077-6.945,6.33-12.454
					c0,0,20.267,6.439,17.042,14.076l-4.334,7.548c0,0,2.929,5.051,6.5,9.695c0,0,4.764,3.055,5.992,3.318
					c4.407,0.941,3.243,5.076,3.243,5.076l1.232,0.265l-0.777,2.181L176.171,461.415z"/>
				<g>
					<defs>
						<path id="XMLID_23_" d="M167.021,422.713l0-0.001c-3.756-1.774-7.1-2.836-7.1-2.836c-4.253,5.509-6.33,12.454-6.33,12.454
							C162.123,437.631,167.021,422.713,167.021,422.713z"/>
					</defs>
					<use xlink:href="#XMLID_23_"  style="overflow:visible;fill:#92E3A9;"/>
					<clipPath id="XMLID_00000081623065580884978240000003924326156139647140_">
						<use xlink:href="#XMLID_23_"  style="overflow:visible;"/>
					</clipPath>
					<path style="opacity:0.5;clip-path:url(#XMLID_00000081623065580884978240000003924326156139647140_);" d="M167.021,422.713
						l0-0.001c-3.756-1.774-7.1-2.836-7.1-2.836c-4.253,5.509-6.33,12.454-6.33,12.454
						C162.123,437.631,167.021,422.713,167.021,422.713z"/>
					
						<use xlink:href="#XMLID_23_"  style="overflow:visible;fill:none;stroke:#263238;stroke-width:1.259;stroke-linecap:round;stroke-linejoin:round;stroke-miterlimit:10;"/>
				</g>
				
					<path style="fill:none;stroke:#263238;stroke-width:1.259;stroke-linecap:round;stroke-linejoin:round;stroke-miterlimit:10;" d="
					M173.711,443.214c0,0-1.575,2.525-4.712,2.195"/>
				
					<path style="fill:none;stroke:#263238;stroke-width:1.259;stroke-linecap:round;stroke-linejoin:round;stroke-miterlimit:10;" d="
					M175.52,445.93c0,0-0.471,2.187-3.897,3.155"/>
				
					<path style="fill:none;stroke:#263238;stroke-width:1.259;stroke-linecap:round;stroke-linejoin:round;stroke-miterlimit:10;" d="
					M177.353,448.673c0,0,0.603,2.136-3.082,4.114"/>
				<g>
					
						<line style="fill:none;stroke:#263238;stroke-width:1.259;stroke-linecap:round;stroke-linejoin:round;stroke-miterlimit:10;" x1="179.84" y1="458.798" x2="186.035" y2="459.246"/>
					
						<polyline style="fill:none;stroke:#263238;stroke-width:1.259;stroke-linecap:round;stroke-linejoin:round;stroke-miterlimit:10;" points="
						152.254,444.954 176.309,458.543 178.481,455.783 					"/>
					
						<line style="fill:none;stroke:#263238;stroke-width:1.259;stroke-linecap:round;stroke-linejoin:round;stroke-miterlimit:10;" x1="148.579" y1="442.878" x2="150.241" y2="443.817"/>
				</g>
			</g>
			<g>
				
					<path style="fill:#92E3A9;stroke:#263238;stroke-width:1.259;stroke-linecap:round;stroke-linejoin:round;stroke-miterlimit:10;" d="
					M262.836,432.113c0,0,18.027-11.278,21.761-3.876l2.947,8.189c0,0,14.479,2.203,18.885,1.259
					c4.407-0.944,5.036,3.305,5.036,3.305l1.233-0.262l0.184,2.308l-42.335,16.21l-1.023-2.02l1.11-0.719
					c0,0-0.913-3.493-2.404-11.506C268.23,445.001,264.281,438.921,262.836,432.113z"/>
				<g>
					<defs>
						<path id="XMLID_22_" d="M269.595,428.539L269.595,428.539c-3.784,1.713-6.759,3.574-6.759,3.574
							c1.445,6.808,5.394,12.888,5.394,12.888C277.794,441.93,269.595,428.539,269.595,428.539z"/>
					</defs>
					<use xlink:href="#XMLID_22_"  style="overflow:visible;fill:#92E3A9;"/>
					<clipPath id="XMLID_00000170268263534034937920000006843516825539350462_">
						<use xlink:href="#XMLID_22_"  style="overflow:visible;"/>
					</clipPath>
					<path style="opacity:0.5;clip-path:url(#XMLID_00000170268263534034937920000006843516825539350462_);" d="M269.595,428.539
						L269.595,428.539c-3.784,1.713-6.759,3.574-6.759,3.574c1.445,6.808,5.394,12.888,5.394,12.888
						C277.794,441.93,269.595,428.539,269.595,428.539z"/>
					
						<use xlink:href="#XMLID_22_"  style="overflow:visible;fill:none;stroke:#263238;stroke-width:1.259;stroke-linecap:round;stroke-linejoin:round;stroke-miterlimit:10;"/>
				</g>
				<g>
					
						<line style="fill:none;stroke:#263238;stroke-width:1.259;stroke-linecap:round;stroke-linejoin:round;stroke-miterlimit:10;" x1="307.761" y1="442.483" x2="309.745" y2="441.724"/>
					
						<line style="fill:none;stroke:#263238;stroke-width:1.259;stroke-linecap:round;stroke-linejoin:round;stroke-miterlimit:10;" x1="280.685" y1="452.835" x2="305.253" y2="443.441"/>
					
						<line style="fill:none;stroke:#263238;stroke-width:1.259;stroke-linecap:round;stroke-linejoin:round;stroke-miterlimit:10;" x1="272.357" y1="456.02" x2="275.867" y2="454.677"/>
				</g>
				
					<path style="fill:none;stroke:#263238;stroke-width:1.259;stroke-linecap:round;stroke-linejoin:round;stroke-miterlimit:10;" d="
					M289.551,436.711c0,0,0.904,2.835-1.378,5.013"/>
				
					<path style="fill:none;stroke:#263238;stroke-width:1.259;stroke-linecap:round;stroke-linejoin:round;stroke-miterlimit:10;" d="
					M292.792,437.091c0,0,1.362,1.774-0.118,5.013"/>
				
					<path style="fill:none;stroke:#263238;stroke-width:1.259;stroke-linecap:round;stroke-linejoin:round;stroke-miterlimit:10;" d="
					M296.07,437.47c0,0,2.019,0.923,1.14,5.013"/>
			</g>
		</g>
		<g>
			<g>
				<defs>
					<path id="XMLID_21_" d="M174.704,185.513c0,0-5.351,5.561-6.925,15.003c-1.574,9.443-9.034,29.574-6.61,31.073
						c2.424,1.499,24.873,18.029,24.873,18.029l9.855-9.128l-13.954-17.844l6.934-30.313L174.704,185.513z"/>
				</defs>
				<use xlink:href="#XMLID_21_"  style="overflow:visible;fill:#92E3A9;"/>
				<clipPath id="XMLID_00000147939277027598656740000006246892729000442292_">
					<use xlink:href="#XMLID_21_"  style="overflow:visible;"/>
				</clipPath>
				<path style="opacity:0.3;clip-path:url(#XMLID_00000147939277027598656740000006246892729000442292_);" d="M174.704,185.513
					c0,0-5.351,5.561-6.925,15.003c-1.574,9.443-9.034,29.574-6.61,31.073c2.424,1.499,24.873,18.029,24.873,18.029l9.855-9.128
					l-13.954-17.844l6.934-30.313L174.704,185.513z"/>
				
					<use xlink:href="#XMLID_21_"  style="overflow:visible;fill:none;stroke:#263238;stroke-width:1.259;stroke-linecap:round;stroke-linejoin:round;stroke-miterlimit:10;"/>
			</g>
			
				<path style="fill:none;stroke:#263238;stroke-width:1.259;stroke-linecap:round;stroke-linejoin:round;stroke-miterlimit:10;" d="
				M165.209,227.606c0,0,4.753-4.921,11.53-2.628"/>
		</g>
		<g>
			
				<path style="fill:#CBF2D6;stroke:#263238;stroke-width:1.259;stroke-linecap:round;stroke-linejoin:round;stroke-miterlimit:10;" d="
				M144.617,272.551c5.511,5.146,13.607,7.158,21.231,4.527c7.196-2.483,12.157-8.487,13.673-15.416l161.898-55.869
				c5.467,4.52,13.075,6.186,20.271,3.703c7.624-2.631,12.756-9.208,13.921-16.658v-2.518l-15.61,5.387l-8.157-7.081l1.742-8.992
				l15.61-5.387v-2.518c-5.511-5.146-13.607-7.158-21.232-4.527c-7.196,2.483-12.157,8.487-13.673,15.416l-161.898,55.87
				c-5.467-4.52-13.075-6.186-20.271-3.703c-7.624,2.631-12.756,9.208-13.921,16.658v2.518l15.61-5.387l8.157,7.081l-1.741,8.992
				l-15.61,5.387V272.551z"/>
			
				<path style="fill:#858585;stroke:#263238;stroke-width:1.259;stroke-linecap:round;stroke-linejoin:round;stroke-miterlimit:10;" d="
				M351.427,188.262l2.159-11.147l15.61-5.387c-5.511-5.146-13.607-7.158-21.232-4.527c-7.196,2.483-12.157,8.487-13.673,15.416
				l-161.898,55.87c-5.467-4.52-13.075-6.186-20.271-3.703c-7.624,2.631-12.756,9.208-13.921,16.658l15.61-5.387l8.575,7.443
				l-2.159,11.147l-15.61,5.387c5.511,5.146,13.607,7.158,21.231,4.527c7.196-2.483,12.157-8.487,13.673-15.416l161.898-55.87
				c5.467,4.52,13.075,6.186,20.271,3.702c7.624-2.631,12.756-9.208,13.921-16.658l-15.61,5.387L351.427,188.262z"/>
		</g>
		<g>
			
				<path style="fill:#FFFFFF;stroke:#263238;stroke-width:1.259;stroke-linecap:round;stroke-linejoin:round;stroke-miterlimit:10;" d="
				M228.975,153.437c0,0-3.139-6.22-3.599-8.476c-0.326-1.604,0.328-4.942,0-6.546c-0.768-3.75-6.019-14.079-6.019-14.079
				s-0.19-0.52-0.936-1.105l-3.07,3.788h-8.356l-12.743,16.836l6.28,15.112l-1.846,2.18c1.13,1.113,1.846,1.754,1.846,1.754
				l-1.846,10.966l17.973,1.823l0.475-6.966h5.462c1.536,0,2.78-1.245,2.78-2.78v-9.523l2.51-0.711
				C228.859,155.435,229.37,154.368,228.975,153.437z"/>
			
				<path style="fill:#263238;stroke:#263238;stroke-width:1.259;stroke-linecap:round;stroke-linejoin:round;stroke-miterlimit:10;" d="
				M200.532,162.902l3.062-6c0,0-6.603-2.355-5.235-8.25c1.368-5.895,6.876-0.895,6.876-0.895h1.759l1.553-6.814
				c0,0,3.834-4.114,3.566-5.557c-0.268-1.442-0.824-3.088-0.824-3.088s12.376-1.895,10.766-9.171
				c-1.609-7.276-18.217-4.518-18.217-4.518s-4.898-8.745-17.489,8.252c0,0-9.183,5.242-2.467,16.234
				C190.599,154.089,200.532,162.902,200.532,162.902z"/>
			
				<path style="fill:#858585;stroke:#263238;stroke-width:1.259;stroke-linecap:round;stroke-linejoin:round;stroke-miterlimit:10;" d="
				M206.995,134.26c0,0-9.628,19.2-17.812,20.617l-2.675-3.62c0,0,0.472-3.062,5.666-3.498c0,0,4.896-2.161,10.702-12.371
				L206.995,134.26z"/>
			
				<path style="fill:none;stroke:#263238;stroke-width:1.259;stroke-linecap:round;stroke-linejoin:round;stroke-miterlimit:10;" d="
				M216.659,154.876c0,0,2.076,2.52,5.396,2.033"/>
			<path style="fill:#263238;" d="M222.056,143.097c0,0.856-0.323,1.55-0.722,1.55c-0.399,0-0.722-0.694-0.722-1.55
				c0-0.856,0.323-1.55,0.722-1.55C221.732,141.547,222.056,142.241,222.056,143.097z"/>
			
				<path style="fill:none;stroke:#263238;stroke-width:1.259;stroke-linecap:round;stroke-linejoin:round;stroke-miterlimit:10;" d="
				M222.056,137.221c0,0-3.567-0.798-4.922,2.606"/>
			
				<path style="fill:#92E3A9;stroke:#263238;stroke-width:1.259;stroke-linecap:round;stroke-linejoin:round;stroke-miterlimit:10;" d="
				M186.335,148.094c-0.74,0.976-2.241,0.856-2.806-0.229c-3.175-6.097-9.702-22.457,7.791-30.534
				c20.794-9.601,31.928,3.475,31.928,3.475l5.529,0.59l1.477,2.576l-41.6,21.064L186.335,148.094z"/>
		</g>
		<g>
			<path style="fill:#263238;stroke:#263238;stroke-width:1.259;stroke-miterlimit:10;" d="M191.157,176.909
				c0,0,2.469-5.666,9.375-5.98c6.907-0.315,17.52,0.63,20.24,7.239c0,0,14.912,4.314,18.353,14.899
				c3.44,10.584-1.468,59.384-1.468,59.384s4.406,19.515,1.678,32.525c0,0-15.108,5.183-56.027,6.054c0,0-2.999-25.274-1.29-34.234
				c0,0-11.93-63.099-7.314-71.282C179.32,177.329,191.157,176.909,191.157,176.909z"/>
			
				<path style="fill:#92E3A9;stroke:#263238;stroke-width:1.259;stroke-linecap:round;stroke-linejoin:round;stroke-miterlimit:10;" d="
				M198.94,224.316c-12.205-0.278-18.554,2.736-21.564,4.969c0.602,3.979,1.216,7.812,1.793,11.286
				c1.879-1.561,6.834-3.295,19.457-3.543c19.226-0.378,34.792,3.921,39.921,5.535c0.281-3.391,0.592-7.42,0.876-11.712
				C232.591,229.072,214.24,224.663,198.94,224.316z"/>
			
				<path style="fill:#92E3A9;stroke:#263238;stroke-width:1.259;stroke-linecap:round;stroke-linejoin:round;stroke-miterlimit:10;" d="
				M237.656,252.451c0,0,0.094-0.932,0.246-2.561c-5.717-1.425-21.833-5.101-37.277-5.452c-12.685-0.288-17.948,2.428-20.062,4.306
				c0.865,4.934,1.455,8.052,1.455,8.052c-0.116,0.606-0.208,1.292-0.283,2.035c2.391-1.376,7.566-2.723,18.575-2.939
				c18.051-0.354,32.868,3.412,38.857,5.209C238.458,256.012,237.656,252.451,237.656,252.451z"/>
			<g>
				<path style="fill:none;stroke:#7F7F7F;stroke-width:0.9443;stroke-linecap:round;stroke-linejoin:round;" d="M214.043,177.242
					c0.855,0.211,1.728,0.449,2.617,0.716"/>
				<path style="fill:none;stroke:#7F7F7F;stroke-width:0.9443;stroke-linecap:round;stroke-linejoin:round;" d="M195.897,176.07
					c0,0,6.402-1.154,15.392,0.569"/>
			</g>
		</g>
		<g>
			
				<path style="fill:#92E3A9;stroke:#263238;stroke-width:1.259;stroke-linecap:round;stroke-linejoin:round;stroke-miterlimit:10;" d="
				M225.541,217.035c0,0-1.583-12.265,5.055-26.301c6.639-14.035,11.968,14.175,11.968,14.175s7.605,12.017,9.436,20.581
				c0,0,6.527-6.349,33.301-8.455l3.135,11.261c0,0-36.841,18.085-44.619,16.748C238.075,244.057,225.541,217.035,225.541,217.035z"
				/>
			<g>
				
					<path style="fill:none;stroke:#263238;stroke-width:1.259;stroke-linecap:round;stroke-linejoin:round;stroke-miterlimit:10;" d="
					M238.757,220.976c-0.003,1.11,0.08,2.23,0.285,3.34"/>
				
					<path style="fill:none;stroke:#263238;stroke-width:1.259;stroke-linecap:round;stroke-linejoin:round;stroke-miterlimit:10;" d="
					M231.885,217.035c0,0,5.374-11.798,8.195-10.959c1.999,0.595-0.136,5.284-0.997,10.959"/>
			</g>
			
				<path style="fill:#263238;stroke:#263238;stroke-width:1.259;stroke-linecap:round;stroke-linejoin:round;stroke-miterlimit:10;" d="
				M282.141,215.9c0,0,4.332,7.522,4.122,15.374l5.246-2.85c0,0-0.516-9.574-4.188-12.796L282.141,215.9z"/>
			
				<path style="fill:#263238;stroke:#263238;stroke-width:1.259;stroke-linecap:round;stroke-linejoin:round;stroke-miterlimit:10;" d="
				M286.262,217.301l8.573-1.401c0,0,2.061-4.652,7.312-4.477c4.006,0.134,7.299-0.852,8.635-1.327
				c0.357-0.127,0.742,0.134,0.73,0.513c-0.038,1.224-0.921,3.554-6.915,4.096c0,0,5.411,3.288,6.917,1.953
				c1.505-1.335,3.06-0.69,3.06-0.69s0.175,4.209-2.8,4.383c0,0-0.7,2.727-2.975,2.676c0,0-1.575,2.224-2.8,1.874
				c0,0-1.4,0.425-3.676,0.037c-2.275-0.387-4.726-0.873-4.726-0.873l-8.007,2.492L286.262,217.301z"/>
			<path style="fill:none;stroke:#7F7F7F;stroke-width:0.9443;stroke-linecap:round;stroke-linejoin:round;" d="M310.784,218.31
				c0,0,0.105,1.721-1.154,2.036c-1.259,0.315,0.317,1.791-3.987,3.105"/>
			
				<path style="fill:none;stroke:#263238;stroke-width:1.259;stroke-linecap:round;stroke-linejoin:round;stroke-miterlimit:10;" d="
				M252.134,228.865c0,0,0.21,3.231-0.839,6.799"/>
			<g>
				<path style="fill:none;stroke:#7F7F7F;stroke-width:0.9443;stroke-linecap:round;stroke-linejoin:round;" d="M290.445,221.765
					c-0.41-1.558-0.971-3.135-1.736-4.411"/>
				<path style="fill:none;stroke:#7F7F7F;stroke-width:0.9443;stroke-linecap:round;stroke-linejoin:round;" d="M291.07,224.719
					c-0.079-0.475-0.172-0.976-0.28-1.491"/>
			</g>
		</g>
	</g>
</g>
</svg>
